<?xml version="1.0" standalone="no"?>
<!DOCTYPE svg PUBLIC "-//W3C//DTD SVG 20010904//EN"
 "http://www.w3.org/TR/2001/REC-SVG-20010904/DTD/svg10.dtd">
<svg version="1.0" xmlns="http://www.w3.org/2000/svg"
 width="896.000000pt" height="896.000000pt" viewBox="0 0 896.000000 896.000000"
 preserveAspectRatio="xMidYMid meet">
<metadata>
Created by potrace 1.14, written by Peter Selinger 2001-2017
</metadata>
<g transform="translate(0.000000,896.000000) scale(0.100000,-0.100000)"
fill="#000000" stroke="none">
<path d="M3680 7499 c-30 -4 -78 -10 -106 -14 -29 -3 -62 -8 -75 -11 -13 -3
-33 -7 -44 -9 -46 -7 -190 -47 -243 -67 -31 -12 -59 -23 -62 -24 -60 -16 -301
-138 -400 -200 -94 -60 -201 -140 -278 -209 -295 -262 -538 -598 -711 -982
-77 -169 -144 -378 -168 -518 -7 -41 -11 -60 -13 -60 -7 0 -15 -147 -14 -265
1 -204 33 -323 125 -461 84 -125 215 -230 369 -295 82 -34 223 -75 305 -88 40
-7 227 -33 255 -36 8 0 105 -2 215 -3 198 -2 322 6 422 27 15 3 46 9 68 12 22
3 43 8 46 10 3 2 19 6 35 8 16 3 61 15 99 26 39 12 75 23 80 24 6 2 17 6 25 9
8 3 46 18 84 32 37 13 118 50 180 81 121 60 123 62 209 117 32 20 60 37 63 37
2 0 25 16 51 36 27 20 61 45 77 57 119 88 336 296 421 402 21 28 42 52 45 55
3 3 34 43 67 90 83 116 154 235 215 360 28 58 51 106 53 108 1 1 29 5 61 7 32
3 77 7 99 10 68 8 257 18 320 17 82 0 156 -4 153 -7 -2 -2 -50 -27 -106 -56
-125 -63 -184 -117 -232 -214 -19 -38 -38 -71 -42 -73 -5 -2 -8 -8 -8 -14 0
-6 -18 -49 -40 -95 -22 -47 -40 -89 -40 -94 0 -5 -4 -9 -10 -9 -5 0 -10 -5
-10 -11 0 -12 -149 -311 -159 -319 -3 -3 -16 -25 -29 -50 -37 -72 -94 -179
-140 -262 -23 -42 -56 -103 -73 -135 -65 -123 -187 -349 -230 -425 -21 -38
-35 -68 -31 -68 4 0 2 -4 -3 -8 -6 -4 -28 -41 -49 -82 -41 -80 -105 -199 -143
-265 -12 -22 -27 -49 -32 -60 -5 -11 -38 -70 -73 -131 -36 -61 -68 -117 -72
-125 -4 -8 -24 -42 -44 -77 -20 -34 -73 -123 -117 -198 -100 -170 -161 -239
-254 -288 -39 -20 -71 -35 -71 -32 0 3 -15 -1 -34 -9 -18 -8 -36 -12 -38 -9
-3 2 -11 -2 -17 -10 -10 -12 -7 -18 18 -30 16 -9 40 -16 53 -16 34 0 167 61
245 112 183 120 261 137 387 83 51 -22 92 -17 88 10 -16 95 0 162 94 385 47
113 308 639 322 650 4 3 8 11 9 17 2 7 25 52 52 100 88 161 118 217 221 418
56 110 106 206 112 213 6 6 8 12 5 12 -7 0 188 381 273 535 9 17 32 57 50 90
61 110 173 287 198 313 6 7 12 18 12 23 0 16 118 129 134 129 9 0 16 4 16 8 0
10 118 40 189 49 25 3 87 6 136 6 82 1 119 -2 183 -17 41 -9 108 -47 146 -84
40 -37 104 -130 111 -160 2 -9 11 -36 19 -59 22 -58 32 -136 30 -218 -2 -117
-23 -235 -47 -264 -7 -8 -11 -17 -10 -20 7 -16 -107 -278 -126 -291 -4 -3 -14
-16 -20 -28 -25 -46 -110 -138 -181 -194 -48 -38 -179 -108 -203 -108 -7 0
-17 -3 -21 -7 -3 -4 -12 -8 -19 -9 -7 -1 -30 -7 -52 -13 -22 -5 -58 -13 -80
-16 -22 -3 -52 -8 -67 -11 -44 -9 -172 -14 -403 -15 -121 -1 -230 -6 -243 -10
-12 -5 -50 -36 -83 -70 -47 -49 -58 -66 -53 -83 23 -73 252 -533 351 -706 130
-226 314 -483 418 -583 48 -46 158 -127 173 -127 6 0 12 -4 14 -8 4 -10 91
-47 147 -62 190 -50 428 40 640 243 167 160 441 491 481 579 17 38 16 88 -1
88 -5 0 -36 -35 -70 -77 -73 -93 -175 -209 -244 -276 -90 -88 -283 -230 -325
-239 -8 -2 -17 -6 -20 -10 -3 -4 -37 -16 -77 -26 -198 -55 -402 0 -553 150
-100 100 -295 364 -412 558 -80 134 -258 474 -258 494 0 6 18 11 43 12 23 0
69 4 102 8 33 4 80 9 105 12 76 9 283 44 325 54 22 6 50 13 63 15 49 11 64 14
100 26 20 6 45 15 54 20 10 5 27 9 37 9 11 0 22 4 25 9 3 5 17 12 31 15 28 7
145 62 210 99 150 84 313 235 414 384 38 57 94 189 106 248 3 17 9 44 12 60
10 42 10 273 0 315 -44 197 -129 319 -272 389 -67 33 -221 77 -300 86 -27 3
-75 8 -105 11 -54 6 -376 6 -922 0 -153 -2 -278 -2 -278 0 0 2 12 38 26 81 14
43 27 85 29 93 1 8 8 35 15 60 7 25 14 55 16 68 2 12 6 34 9 50 10 52 26 157
30 197 6 50 6 302 0 335 -2 14 -7 43 -10 65 -19 135 -113 321 -204 403 -61 55
-124 102 -137 102 -8 0 -14 4 -14 9 0 12 -185 94 -242 107 -5 1 -9 2 -10 4 -3
2 -21 6 -58 14 -14 3 -36 8 -50 11 -14 4 -36 8 -50 11 -14 2 -34 6 -45 9 -19
4 -40 7 -160 21 -78 10 -524 12 -585 3z m463 -84 c77 -6 96 -9 152 -20 17 -3
43 -8 59 -11 94 -18 251 -88 311 -140 17 -14 35 -29 41 -32 30 -19 142 -177
149 -212 1 -3 9 -23 18 -44 10 -21 20 -53 23 -69 2 -17 7 -33 9 -37 7 -11 19
-154 18 -220 0 -82 -14 -238 -27 -300 -2 -14 -7 -42 -10 -64 -4 -21 -9 -42
-12 -47 -2 -5 -6 -21 -8 -36 -6 -45 -92 -311 -106 -326 -4 -5 -43 -10 -86 -12
-84 -4 -173 -12 -214 -20 -14 -3 -35 -7 -48 -10 -201 -38 -342 -119 -395 -229
-24 -48 -29 -71 -29 -135 0 -42 7 -100 16 -129 25 -85 97 -211 156 -273 l55
-58 -53 -56 c-30 -30 -58 -55 -63 -55 -5 0 -9 -4 -9 -9 0 -14 -192 -166 -289
-229 -87 -57 -330 -182 -353 -182 -8 0 -18 -4 -23 -9 -13 -13 -195 -65 -295
-86 -8 -1 -40 -6 -71 -9 -31 -4 -67 -9 -80 -12 -31 -6 -290 -6 -353 0 -50 6
-109 14 -159 22 -28 4 -109 26 -162 42 -43 14 -175 84 -175 94 0 4 -5 8 -11 8
-31 0 -146 150 -186 241 -25 56 -54 167 -60 229 -5 56 -5 247 1 276 2 12 7 45
11 75 4 30 9 57 11 60 2 3 6 21 9 40 17 97 81 287 141 416 13 29 35 77 49 107
67 146 213 377 344 546 164 212 389 440 536 545 15 11 39 29 54 41 97 76 402
244 443 244 10 0 18 4 18 8 0 5 19 13 43 19 23 6 67 18 97 26 144 40 304 50
513 32z m537 -1745 c0 -9 -116 -225 -132 -245 -4 -5 -39 -56 -77 -113 -37 -57
-77 -113 -87 -125 -11 -12 -37 -44 -59 -72 -65 -81 -62 -79 -88 -53 -61 59
-69 181 -21 307 36 96 101 163 208 215 82 40 216 89 216 78 0 -3 5 -1 12 6 14
14 28 16 28 2z"/>
</g>
</svg>
