<svg width="38" height="23" viewBox="0 0 38 23" fill="none" xmlns="http://www.w3.org/2000/svg">
<path d="M16.43 19.24L15.6564 18.6064L15.6557 18.6072L16.43 19.24ZM3.23 19.27L2.45202 19.8984L2.45872 19.9065L3.23 19.27ZM3.26 3.79L2.48637 3.15636L2.48571 3.15717L3.26 3.79ZM16.46 3.76L15.682 4.38837L15.6887 4.39649L16.46 3.76ZM13.73 16.87L14.5567 17.4326L14.5567 17.4326L13.73 16.87ZM13.7 6.16L12.875 6.7251L12.8786 6.7304L13.7 6.16ZM5.99 6.13L6.81304 6.69801L6.81671 6.69262L5.99 6.13ZM5.99 16.87L5.1597 17.4273L5.16412 17.4339L5.16863 17.4404L5.99 16.87ZM15.6557 18.6072C14.1468 20.4534 12.2317 21.36 9.83 21.36V23.36C12.8283 23.36 15.3132 22.1866 17.2043 19.8728L15.6557 18.6072ZM9.83 21.36C7.42468 21.36 5.50892 20.4604 4.00128 18.6335L2.45872 19.9065C4.35108 22.1996 6.83532 23.36 9.83 23.36V21.36ZM4.00794 18.6417C2.49206 16.7649 1.71 14.4261 1.71 11.56H-0.29C-0.29 14.8139 0.607937 17.6151 2.45206 19.8983L4.00794 18.6417ZM1.71 11.56V11.5H-0.29V11.56H1.71ZM1.71 11.5C1.71 8.63677 2.50036 6.29964 4.03429 4.42283L2.48571 3.15717C0.619644 5.44035 -0.29 8.24323 -0.29 11.5H1.71ZM4.03363 4.42364C5.56488 2.55409 7.49162 1.64 9.89 1.64V-0.36C6.88838 -0.36 4.39512 0.825911 2.48637 3.15636L4.03363 4.42364ZM9.89 1.64C12.2913 1.64 14.1941 2.54607 15.6821 4.38834L17.2379 3.13166C15.3659 0.813932 12.8887 -0.36 9.89 -0.36V1.64ZM15.6887 4.39649C17.2196 6.25158 18.01 8.57656 18.01 11.44H20.01C20.01 8.18344 19.1004 5.38842 17.2313 3.1235L15.6887 4.39649ZM18.01 11.44V11.5H20.01V11.44H18.01ZM18.01 11.5C18.01 14.3601 17.2114 16.7078 15.6564 18.6064L17.2036 19.8736C19.0886 17.5722 20.01 14.7599 20.01 11.5H18.01ZM9.89 20.03C11.8389 20.03 13.4129 19.1133 14.5567 17.4326L12.9033 16.3074C12.0871 17.5067 11.1011 18.03 9.89 18.03V20.03ZM14.5567 17.4326C15.6711 15.7952 16.2 13.8188 16.2 11.56H14.2C14.2 13.5012 13.7489 15.0648 12.9033 16.3074L14.5567 17.4326ZM16.2 11.56V11.5H14.2V11.56H16.2ZM16.2 11.5C16.2 9.21949 15.6602 7.22949 14.5214 5.5896L12.8786 6.7304C13.7398 7.97051 14.2 9.54051 14.2 11.5H16.2ZM14.525 5.59491C13.3647 3.90087 11.7836 2.97 9.83 2.97V4.97C11.0364 4.97 12.0353 5.49913 12.875 6.72509L14.525 5.59491ZM9.83 2.97C7.88111 2.97 6.3071 3.88667 5.16329 5.56737L6.81671 6.69262C7.6329 5.49333 8.61889 4.97 9.83 4.97V2.97ZM5.16697 5.56199C4.04767 7.18384 3.52 9.16402 3.52 11.44H5.52C5.52 9.47598 5.97233 7.91616 6.81303 6.698L5.16697 5.56199ZM3.52 11.44V11.5H5.52V11.44H3.52ZM3.52 11.5C3.52 13.7771 4.04806 15.7712 5.1597 17.4273L6.8203 16.3127C5.97194 15.0488 5.52 13.4629 5.52 11.5H3.52ZM5.16863 17.4404C6.33454 19.1193 7.92725 20.03 9.89 20.03V18.03C8.65275 18.03 7.64546 17.5007 6.81137 16.2996L5.16863 17.4404ZM21.886 22H20.886V23H21.886V22ZM21.886 19.09L21.2381 18.3283L20.886 18.6278V19.09H21.886ZM29.116 12.94L29.7639 13.7017L29.7651 13.7007L29.116 12.94ZM32.206 9.85L33.0184 10.4332L33.0252 10.4235L32.206 9.85ZM32.086 4.9L31.4021 5.62954L31.4082 5.63531L31.4145 5.64098L32.086 4.9ZM27.166 4.75L26.6062 3.92141L26.6062 3.92141L27.166 4.75ZM24.826 7.15L24.209 7.93694L25.0153 8.5692L25.6278 7.74766L24.826 7.15ZM22.186 5.08L21.3745 4.4957L20.8136 5.27467L21.569 5.86694L22.186 5.08ZM25.546 1.78L26.0627 2.63625L26.0734 2.62964L25.546 1.78ZM34.906 2.44L34.2345 3.18101L34.2402 3.18614L34.906 2.44ZM36.196 10L35.2976 9.56077L35.2935 9.56927L36.196 10ZM34.516 12.4L33.799 11.7029L33.7987 11.7032L34.516 12.4ZM31.396 15.16L30.7645 14.3845L30.7558 14.3918L31.396 15.16ZM27.076 18.76L26.4358 17.9918L24.314 19.76H27.076V18.76ZM37.066 18.76H38.066V17.76H37.066V18.76ZM37.066 22V23H38.066V22H37.066ZM22.886 22V19.09H20.886V22H22.886ZM22.5339 19.8517L29.7639 13.7017L28.4681 12.1783L21.2381 18.3283L22.5339 19.8517ZM29.7651 13.7007C31.2763 12.4111 32.3842 11.3165 33.0183 10.4332L31.3937 9.26679C30.9079 9.94347 29.9557 10.9089 28.4669 12.1793L29.7651 13.7007ZM33.0252 10.4235C33.6953 9.4663 34.046 8.40811 34.046 7.27H32.046C32.046 7.97189 31.8368 8.6337 31.3868 9.27654L33.0252 10.4235ZM34.046 7.27C34.046 6.03669 33.6404 4.95915 32.7575 4.15901L31.4145 5.64098C31.8116 6.00085 32.046 6.50331 32.046 7.27H34.046ZM32.77 4.17046C31.9224 3.37585 30.8579 3 29.656 3V5C30.4142 5 30.9697 5.22415 31.4021 5.62954L32.77 4.17046ZM29.656 3C28.5429 3 27.5167 3.30617 26.6062 3.92141L27.7259 5.57859C28.2953 5.19382 28.9292 5 29.656 5V3ZM26.6062 3.92141C25.7372 4.50853 24.8793 5.40529 24.0243 6.55233L25.6278 7.74766C26.4127 6.69471 27.1148 5.99147 27.7259 5.57859L26.6062 3.92141ZM25.443 6.36306L22.803 4.29306L21.569 5.86694L24.209 7.93694L25.443 6.36306ZM22.9976 5.6643C24.0256 4.23642 25.0522 3.24594 26.0627 2.63619L25.0294 0.923811C23.7198 1.71405 22.5064 2.92358 21.3745 4.4957L22.9976 5.6643ZM26.0734 2.62964C27.0353 2.03257 28.2993 1.7 29.926 1.7V-0.300001C28.0327 -0.300001 26.3767 0.0874262 25.0187 0.930359L26.0734 2.62964ZM29.926 1.7C31.7654 1.7 33.1709 2.2171 34.2345 3.18099L35.5775 1.69901C34.0811 0.3429 32.1666 -0.300001 29.926 -0.300001V1.7ZM34.2402 3.18614C35.3119 4.14241 35.856 5.37324 35.856 6.97H37.856C37.856 4.84675 37.1001 3.05759 35.5718 1.69386L34.2402 3.18614ZM35.856 6.97V7.03H37.856V6.97H35.856ZM35.856 7.03C35.856 7.96989 35.6656 8.80803 35.2976 9.56079L37.0944 10.4392C37.6064 9.39196 37.856 8.25011 37.856 7.03H35.856ZM35.2935 9.56927C34.9218 10.3481 34.4254 11.0587 33.799 11.7029L35.233 13.0971C36.0066 12.3013 36.6302 11.4119 37.0985 10.4307L35.2935 9.56927ZM33.7987 11.7032C33.1596 12.3612 32.1552 13.2522 30.7646 14.3846L32.0274 15.9354C33.4369 14.7878 34.5125 13.8388 35.2333 13.0968L33.7987 11.7032ZM30.7558 14.3918L26.4358 17.9918L27.7162 19.5282L32.0362 15.9282L30.7558 14.3918ZM27.076 19.76H37.066V17.76H27.076V19.76ZM36.066 18.76V22H38.066V18.76H36.066ZM37.066 21H21.886V23H37.066V21Z" fill="#FFCB74"/>
</svg>
