<svg width="38" height="23" viewBox="0 0 38 23" fill="none" xmlns="http://www.w3.org/2000/svg">
<path d="M16.43 19.24L15.6564 18.6064L15.6557 18.6072L16.43 19.24ZM3.23 19.27L2.45202 19.8984L2.45872 19.9065L3.23 19.27ZM3.26 3.79L2.48637 3.15636L2.48571 3.15717L3.26 3.79ZM16.46 3.76L15.682 4.38837L15.6887 4.39649L16.46 3.76ZM13.73 16.87L14.5567 17.4326L14.5567 17.4326L13.73 16.87ZM13.7 6.16L12.875 6.7251L12.8786 6.7304L13.7 6.16ZM5.99 6.13L6.81304 6.69801L6.81671 6.69262L5.99 6.13ZM5.99 16.87L5.1597 17.4273L5.16412 17.4339L5.16863 17.4404L5.99 16.87ZM15.6557 18.6072C14.1468 20.4534 12.2317 21.36 9.83 21.36V23.36C12.8283 23.36 15.3132 22.1866 17.2043 19.8728L15.6557 18.6072ZM9.83 21.36C7.42468 21.36 5.50892 20.4604 4.00128 18.6335L2.45872 19.9065C4.35108 22.1996 6.83532 23.36 9.83 23.36V21.36ZM4.00794 18.6417C2.49206 16.7649 1.71 14.4261 1.71 11.56H-0.29C-0.29 14.8139 0.607937 17.6151 2.45206 19.8983L4.00794 18.6417ZM1.71 11.56V11.5H-0.29V11.56H1.71ZM1.71 11.5C1.71 8.63677 2.50036 6.29964 4.03429 4.42283L2.48571 3.15717C0.619644 5.44035 -0.29 8.24323 -0.29 11.5H1.71ZM4.03363 4.42364C5.56488 2.55409 7.49162 1.64 9.89 1.64V-0.36C6.88838 -0.36 4.39512 0.825911 2.48637 3.15636L4.03363 4.42364ZM9.89 1.64C12.2913 1.64 14.1941 2.54607 15.6821 4.38834L17.2379 3.13166C15.3659 0.813932 12.8887 -0.36 9.89 -0.36V1.64ZM15.6887 4.39649C17.2196 6.25158 18.01 8.57656 18.01 11.44H20.01C20.01 8.18344 19.1004 5.38842 17.2313 3.1235L15.6887 4.39649ZM18.01 11.44V11.5H20.01V11.44H18.01ZM18.01 11.5C18.01 14.3601 17.2114 16.7078 15.6564 18.6064L17.2036 19.8736C19.0886 17.5722 20.01 14.7599 20.01 11.5H18.01ZM9.89 20.03C11.8389 20.03 13.4129 19.1133 14.5567 17.4326L12.9033 16.3074C12.0871 17.5067 11.1011 18.03 9.89 18.03V20.03ZM14.5567 17.4326C15.6711 15.7952 16.2 13.8188 16.2 11.56H14.2C14.2 13.5012 13.7489 15.0648 12.9033 16.3074L14.5567 17.4326ZM16.2 11.56V11.5H14.2V11.56H16.2ZM16.2 11.5C16.2 9.21949 15.6602 7.22949 14.5214 5.5896L12.8786 6.7304C13.7398 7.97051 14.2 9.54051 14.2 11.5H16.2ZM14.525 5.59491C13.3647 3.90087 11.7836 2.97 9.83 2.97V4.97C11.0364 4.97 12.0353 5.49913 12.875 6.72509L14.525 5.59491ZM9.83 2.97C7.88111 2.97 6.3071 3.88667 5.16329 5.56737L6.81671 6.69262C7.6329 5.49333 8.61889 4.97 9.83 4.97V2.97ZM5.16697 5.56199C4.04767 7.18384 3.52 9.16402 3.52 11.44H5.52C5.52 9.47598 5.97233 7.91616 6.81303 6.698L5.16697 5.56199ZM3.52 11.44V11.5H5.52V11.44H3.52ZM3.52 11.5C3.52 13.7771 4.04806 15.7712 5.1597 17.4273L6.8203 16.3127C5.97194 15.0488 5.52 13.4629 5.52 11.5H3.52ZM5.16863 17.4404C6.33454 19.1193 7.92725 20.03 9.89 20.03V18.03C8.65275 18.03 7.64546 17.5007 6.81137 16.2996L5.16863 17.4404ZM21.706 18.7L21.0204 17.972L20.3342 18.6183L20.9388 19.3414L21.706 18.7ZM24.286 16.27L25.0488 15.6233L24.3674 14.8196L23.6004 15.542L24.286 16.27ZM32.386 18.16L33.035 18.9208L33.0368 18.9193L32.386 18.16ZM32.146 13.42L31.5869 14.2491L31.5936 14.2536L31.6003 14.258L32.146 13.42ZM26.896 12.55L25.9281 12.8014L26.1226 13.55H26.896V12.55ZM26.296 10.24L25.5675 9.55497L25.1894 9.95712L25.3281 10.4914L26.296 10.24ZM31.966 4.21L32.6945 4.89502L34.279 3.21H31.966V4.21ZM22.876 4.21H21.876V5.21H22.876V4.21ZM22.876 0.999999V-1.43051e-06H21.876V0.999999H22.876ZM36.766 0.999999H37.766V-1.43051e-06H36.766V0.999999ZM36.766 3.76L37.482 4.4581L37.766 4.16682V3.76H36.766ZM30.916 9.76L30.2 9.0619L28.7928 10.5052L30.7934 10.7524L30.916 9.76ZM35.326 11.53L34.6884 12.3004L34.6956 12.3063L34.7029 12.3122L35.326 11.53ZM35.056 20.5L35.7298 21.239L35.7356 21.2336L35.056 20.5ZM29.746 21.36C26.7073 21.36 24.3138 20.2601 22.4732 18.0586L20.9388 19.3414C23.1782 22.0199 26.1447 23.36 29.746 23.36V21.36ZM22.3916 19.428L24.9716 16.998L23.6004 15.542L21.0204 17.972L22.3916 19.428ZM23.5233 16.9167C25.244 18.9462 27.3497 20.03 29.806 20.03V18.03C28.0223 18.03 26.4481 17.2738 25.0488 15.6233L23.5233 16.9167ZM29.806 20.03C31.0428 20.03 32.145 19.6799 33.035 18.9208L31.7371 17.3992C31.267 17.8001 30.6492 18.03 29.806 18.03V20.03ZM33.0368 18.9193C33.9634 18.125 34.436 17.0754 34.436 15.85H32.436C32.436 16.5046 32.2086 16.995 31.7352 17.4007L33.0368 18.9193ZM34.436 15.85V15.79H32.436V15.85H34.436ZM34.436 15.79C34.436 14.4293 33.833 13.3252 32.6917 12.582L31.6003 14.258C32.1791 14.6348 32.436 15.1107 32.436 15.79H34.436ZM32.7052 12.5909C31.6215 11.8601 30.2206 11.55 28.606 11.55V13.55C29.9914 13.55 30.9505 13.8199 31.5869 14.2491L32.7052 12.5909ZM28.606 11.55H26.896V13.55H28.606V11.55ZM27.8639 12.2986L27.2639 9.9886L25.3281 10.4914L25.9281 12.8014L27.8639 12.2986ZM27.0245 10.925L32.6945 4.89502L31.2375 3.52497L25.5675 9.55497L27.0245 10.925ZM31.966 3.21H22.876V5.21H31.966V3.21ZM23.876 4.21V0.999999H21.876V4.21H23.876ZM22.876 2H36.766V-1.43051e-06H22.876V2ZM35.766 0.999999V3.76H37.766V0.999999H35.766ZM36.05 3.0619L30.2 9.0619L31.632 10.4581L37.482 4.4581L36.05 3.0619ZM30.7934 10.7524C32.4207 10.9536 33.7015 11.4836 34.6884 12.3004L35.9636 10.7596C34.6306 9.65642 32.9713 9.00642 31.0387 8.76755L30.7934 10.7524ZM34.7029 12.3122C35.5978 13.025 36.096 14.079 36.096 15.64H38.096C38.096 13.601 37.4142 11.915 35.9491 10.7478L34.7029 12.3122ZM36.096 15.64V15.7H38.096V15.64H36.096ZM36.096 15.7C36.096 17.3761 35.5217 18.7054 34.3764 19.7664L35.7356 21.2336C37.3104 19.7746 38.096 17.9039 38.096 15.7H36.096ZM34.3823 19.761C33.2396 20.8029 31.7255 21.36 29.746 21.36V23.36C32.1265 23.36 34.1525 22.6771 35.7298 21.239L34.3823 19.761Z" fill="#FFCB74"/>
</svg>
