<svg width="40" height="23" viewBox="0 0 40 23" fill="none" xmlns="http://www.w3.org/2000/svg">
<path d="M16.43 19.24L15.6564 18.6064L15.6557 18.6072L16.43 19.24ZM3.23 19.27L2.45202 19.8984L2.45872 19.9065L3.23 19.27ZM3.26 3.79L2.48637 3.15636L2.48571 3.15717L3.26 3.79ZM16.46 3.76L15.682 4.38837L15.6887 4.39649L16.46 3.76ZM13.73 16.87L14.5567 17.4326V17.4326L13.73 16.87ZM13.7 6.16L12.875 6.7251L12.8786 6.7304L13.7 6.16ZM5.99 6.13L6.81304 6.69801L6.81671 6.69262L5.99 6.13ZM5.99 16.87L5.1597 17.4273L5.16412 17.4339L5.16863 17.4404L5.99 16.87ZM15.6557 18.6072C14.1468 20.4534 12.2317 21.36 9.83 21.36V23.36C12.8283 23.36 15.3132 22.1866 17.2043 19.8728L15.6557 18.6072ZM9.83 21.36C7.42468 21.36 5.50892 20.4604 4.00128 18.6335L2.45872 19.9065C4.35108 22.1996 6.83532 23.36 9.83 23.36V21.36ZM4.00794 18.6417C2.49206 16.7649 1.71 14.4261 1.71 11.56H-0.29C-0.29 14.8139 0.607937 17.6151 2.45206 19.8983L4.00794 18.6417ZM1.71 11.56V11.5H-0.29V11.56H1.71ZM1.71 11.5C1.71 8.63677 2.50036 6.29964 4.03429 4.42283L2.48571 3.15717C0.619644 5.44035 -0.29 8.24323 -0.29 11.5H1.71ZM4.03363 4.42364C5.56488 2.55409 7.49162 1.64 9.89 1.64V-0.360001C6.88838 -0.360001 4.39512 0.825911 2.48637 3.15636L4.03363 4.42364ZM9.89 1.64C12.2913 1.64 14.1941 2.54607 15.6821 4.38834L17.2379 3.13166C15.3659 0.813931 12.8887 -0.360001 9.89 -0.360001V1.64ZM15.6887 4.39649C17.2196 6.25158 18.01 8.57656 18.01 11.44H20.01C20.01 8.18344 19.1004 5.38842 17.2313 3.1235L15.6887 4.39649ZM18.01 11.44V11.5H20.01V11.44H18.01ZM18.01 11.5C18.01 14.3601 17.2114 16.7078 15.6564 18.6064L17.2036 19.8736C19.0886 17.5722 20.01 14.7599 20.01 11.5H18.01ZM9.89 20.03C11.8389 20.03 13.4129 19.1133 14.5567 17.4326L12.9033 16.3074C12.0871 17.5067 11.1011 18.03 9.89 18.03V20.03ZM14.5567 17.4326C15.6711 15.7952 16.2 13.8188 16.2 11.56H14.2C14.2 13.5012 13.7489 15.0648 12.9033 16.3074L14.5567 17.4326ZM16.2 11.56V11.5H14.2V11.56H16.2ZM16.2 11.5C16.2 9.21949 15.6602 7.22949 14.5214 5.5896L12.8786 6.7304C13.7398 7.97051 14.2 9.54051 14.2 11.5H16.2ZM14.525 5.59491C13.3647 3.90087 11.7836 2.97 9.83 2.97V4.97C11.0364 4.97 12.0353 5.49913 12.875 6.72509L14.525 5.59491ZM9.83 2.97C7.88111 2.97 6.3071 3.88667 5.16329 5.56737L6.81671 6.69262C7.6329 5.49333 8.61889 4.97 9.83 4.97V2.97ZM5.16697 5.56199C4.04767 7.18384 3.52 9.16402 3.52 11.44H5.52C5.52 9.47598 5.97233 7.91616 6.81303 6.698L5.16697 5.56199ZM3.52 11.44V11.5H5.52V11.44H3.52ZM3.52 11.5C3.52 13.7771 4.04806 15.7712 5.1597 17.4273L6.8203 16.3127C5.97194 15.0488 5.52 13.4629 5.52 11.5H3.52ZM5.16863 17.4404C6.33454 19.1193 7.92725 20.03 9.89 20.03V18.03C8.65275 18.03 7.64546 17.5007 6.81137 16.2996L5.16863 17.4404ZM33.069 22H32.069V23H33.069V22ZM33.069 17.29H34.069V16.29H33.069V17.29ZM22.479 17.29L21.5115 17.5429L21.7068 18.29H22.479V17.29ZM21.789 14.65L21.0254 14.0043L20.6902 14.4006L20.8215 14.9029L21.789 14.65ZM33.459 0.849998V-0.150002H32.995L32.6954 0.20428L33.459 0.849998ZM36.609 0.849998H37.609V-0.150002H36.609V0.849998ZM36.609 14.26H35.609V15.26H36.609V14.26ZM39.609 14.26H40.609V13.26H39.609V14.26ZM39.609 17.29V18.29H40.609V17.29H39.609ZM36.609 17.29V16.29H35.609V17.29H36.609ZM36.609 22V23H37.609V22H36.609ZM26.169 14.26L25.3996 13.6212L24.0389 15.26H26.169V14.26ZM33.069 14.26V15.26H34.069V14.26H33.069ZM33.069 5.95H34.069V3.18026L32.2996 5.31118L33.069 5.95ZM34.069 22V17.29H32.069V22H34.069ZM33.069 16.29H22.479V18.29H33.069V16.29ZM23.4465 17.0371L22.7565 14.3971L20.8215 14.9029L21.5115 17.5429L23.4465 17.0371ZM22.5526 15.2957L34.2226 1.49572L32.6954 0.20428L21.0254 14.0043L22.5526 15.2957ZM33.459 1.85H36.609V-0.150002H33.459V1.85ZM35.609 0.849998V14.26H37.609V0.849998H35.609ZM36.609 15.26H39.609V13.26H36.609V15.26ZM38.609 14.26V17.29H40.609V14.26H38.609ZM39.609 16.29H36.609V18.29H39.609V16.29ZM35.609 17.29V22H37.609V17.29H35.609ZM36.609 21H33.069V23H36.609V21ZM26.169 15.26H33.069V13.26H26.169V15.26ZM34.069 14.26V5.95H32.069V14.26H34.069ZM32.2996 5.31118L25.3996 13.6212L26.9383 14.8988L33.8383 6.58882L32.2996 5.31118Z" fill="#5E5AFF"/>
</svg>
