<svg width="38" height="23" viewBox="0 0 38 23" fill="none" xmlns="http://www.w3.org/2000/svg">
<path d="M16.43 19.24L15.6564 18.6064L15.6557 18.6072L16.43 19.24ZM3.23 19.27L2.45202 19.8984L2.45872 19.9065L3.23 19.27ZM3.26 3.79L2.48637 3.15636L2.48571 3.15717L3.26 3.79ZM16.46 3.76L15.682 4.38837L15.6887 4.39649L16.46 3.76ZM13.73 16.87L14.5567 17.4326L14.5567 17.4326L13.73 16.87ZM13.7 6.16L12.875 6.7251L12.8786 6.7304L13.7 6.16ZM5.99 6.13L6.81304 6.69801L6.81671 6.69262L5.99 6.13ZM5.99 16.87L5.1597 17.4273L5.16412 17.4339L5.16863 17.4404L5.99 16.87ZM15.6557 18.6072C14.1468 20.4534 12.2317 21.36 9.83 21.36V23.36C12.8283 23.36 15.3132 22.1866 17.2043 19.8728L15.6557 18.6072ZM9.83 21.36C7.42468 21.36 5.50892 20.4604 4.00128 18.6335L2.45872 19.9065C4.35108 22.1996 6.83532 23.36 9.83 23.36V21.36ZM4.00794 18.6417C2.49206 16.7649 1.71 14.4261 1.71 11.56H-0.29C-0.29 14.8139 0.607937 17.6151 2.45206 19.8983L4.00794 18.6417ZM1.71 11.56V11.5H-0.29V11.56H1.71ZM1.71 11.5C1.71 8.63677 2.50036 6.29964 4.03429 4.42283L2.48571 3.15717C0.619644 5.44035 -0.29 8.24323 -0.29 11.5H1.71ZM4.03363 4.42364C5.56488 2.55409 7.49162 1.64 9.89 1.64V-0.36C6.88838 -0.36 4.39512 0.825911 2.48637 3.15636L4.03363 4.42364ZM9.89 1.64C12.2913 1.64 14.1941 2.54607 15.6821 4.38834L17.2379 3.13166C15.3659 0.813932 12.8887 -0.36 9.89 -0.36V1.64ZM15.6887 4.39649C17.2196 6.25158 18.01 8.57656 18.01 11.44H20.01C20.01 8.18344 19.1004 5.38842 17.2313 3.1235L15.6887 4.39649ZM18.01 11.44V11.5H20.01V11.44H18.01ZM18.01 11.5C18.01 14.3601 17.2114 16.7078 15.6564 18.6064L17.2036 19.8736C19.0886 17.5722 20.01 14.7599 20.01 11.5H18.01ZM9.89 20.03C11.8389 20.03 13.4129 19.1133 14.5567 17.4326L12.9033 16.3074C12.0871 17.5067 11.1011 18.03 9.89 18.03V20.03ZM14.5567 17.4326C15.6711 15.7952 16.2 13.8188 16.2 11.56H14.2C14.2 13.5012 13.7489 15.0648 12.9033 16.3074L14.5567 17.4326ZM16.2 11.56V11.5H14.2V11.56H16.2ZM16.2 11.5C16.2 9.21949 15.6602 7.22949 14.5214 5.5896L12.8786 6.7304C13.7398 7.97051 14.2 9.54051 14.2 11.5H16.2ZM14.525 5.59491C13.3647 3.90087 11.7836 2.97 9.83 2.97V4.97C11.0364 4.97 12.0353 5.49913 12.875 6.72509L14.525 5.59491ZM9.83 2.97C7.88111 2.97 6.3071 3.88667 5.16329 5.56737L6.81671 6.69262C7.6329 5.49333 8.61889 4.97 9.83 4.97V2.97ZM5.16697 5.56199C4.04767 7.18384 3.52 9.16402 3.52 11.44H5.52C5.52 9.47598 5.97233 7.91616 6.81303 6.698L5.16697 5.56199ZM3.52 11.44V11.5H5.52V11.44H3.52ZM3.52 11.5C3.52 13.7771 4.04806 15.7712 5.1597 17.4273L6.8203 16.3127C5.97194 15.0488 5.52 13.4629 5.52 11.5H3.52ZM5.16863 17.4404C6.33454 19.1193 7.92725 20.03 9.89 20.03V18.03C8.65275 18.03 7.64546 17.5007 6.81137 16.2996L5.16863 17.4404ZM22.119 19.15L21.3585 18.5006L20.7444 19.2198L21.4282 19.8731L22.119 19.15ZM24.399 16.48L25.0813 15.7489L24.3172 15.0358L23.6385 15.8306L24.399 16.48ZM32.829 18.01L32.1733 17.255L32.1733 17.255L32.829 18.01ZM32.769 12.79L32.1443 13.5709L32.1503 13.5757L32.1564 13.5804L32.769 12.79ZM25.749 12.76L25.1969 13.5938L25.6655 13.904L26.1741 13.6651L25.749 12.76ZM23.529 11.29L22.5307 11.2318L22.4972 11.8061L22.9769 12.1238L23.529 11.29ZM24.129 0.999999V-1.43051e-06H23.1856L23.1307 0.941788L24.129 0.999999ZM36.699 0.999999H37.699V-1.43051e-06H36.699V0.999999ZM36.699 4.3V5.3H37.699V4.3H36.699ZM27.309 4.3V3.3H26.3742L26.3113 4.23267L27.309 4.3ZM26.979 9.19L25.9813 9.12267L25.8779 10.6545L27.3207 10.1298L26.979 9.19ZM35.559 10.3L34.9166 11.0664L34.9227 11.0715L34.9288 11.0765L35.559 10.3ZM35.469 20.41L34.7989 19.6677L34.7937 19.6724L35.469 20.41ZM29.829 21.36C27.205 21.36 24.8777 20.4025 22.8098 18.4269L21.4282 19.8731C23.8403 22.1775 26.653 23.36 29.829 23.36V21.36ZM22.8794 19.7994L25.1594 17.1294L23.6385 15.8306L21.3585 18.5006L22.8794 19.7994ZM23.7167 17.2111C25.6328 18.9995 27.6649 20 29.799 20V18C28.3331 18 26.7651 17.3205 25.0813 15.7489L23.7167 17.2111ZM29.799 20C31.2372 20 32.5004 19.6198 33.4847 18.765L32.1733 17.255C31.6376 17.7202 30.8808 18 29.799 18V20ZM33.4847 18.765C34.4853 17.8961 34.969 16.7294 34.969 15.37H32.969C32.969 16.2106 32.6927 16.8039 32.1733 17.255L33.4847 18.765ZM34.969 15.37V15.31H32.969V15.37H34.969ZM34.969 15.31C34.969 13.9578 34.4391 12.8192 33.3816 11.9996L32.1564 13.5804C32.6989 14.0008 32.969 14.5422 32.969 15.31H34.969ZM33.3937 12.0091C32.3732 11.1928 31.0839 10.83 29.619 10.83V12.83C30.7541 12.83 31.5647 13.1072 32.1443 13.5709L33.3937 12.0091ZM29.619 10.83C28.1906 10.83 26.756 11.1822 25.3238 11.8549L26.1741 13.6651C27.382 13.0978 28.5274 12.83 29.619 12.83V10.83ZM26.3011 11.9262L24.0811 10.4562L22.9769 12.1238L25.1969 13.5938L26.3011 11.9262ZM24.5273 11.3482L25.1273 1.05821L23.1307 0.941788L22.5307 11.2318L24.5273 11.3482ZM24.129 2H36.699V-1.43051e-06H24.129V2ZM35.699 0.999999V4.3H37.699V0.999999H35.699ZM36.699 3.3H27.309V5.3H36.699V3.3ZM26.3113 4.23267L25.9813 9.12267L27.9767 9.25733L28.3067 4.36733L26.3113 4.23267ZM27.3207 10.1298C28.3162 9.76781 29.3107 9.59 30.309 9.59V7.59C29.0672 7.59 27.8418 7.81219 26.6372 8.25021L27.3207 10.1298ZM30.309 9.59C32.2644 9.59 33.7718 10.1068 34.9166 11.0664L36.2014 9.53363C34.6262 8.21323 32.6335 7.59 30.309 7.59V9.59ZM34.9288 11.0765C36.0267 11.9675 36.629 13.2832 36.629 15.19H38.629C38.629 12.8168 37.8513 10.8725 36.1892 9.52354L34.9288 11.0765ZM36.629 15.19V15.25H38.629V15.19H36.629ZM36.629 15.25C36.629 17.1396 36.0058 18.5781 34.7989 19.6677L36.1391 21.1523C37.8121 19.6419 38.629 17.6404 38.629 15.25H36.629ZM34.7937 19.6724C33.596 20.7689 31.9757 21.36 29.829 21.36V23.36C32.3623 23.36 34.502 22.6511 36.1442 21.1476L34.7937 19.6724Z" fill="#FFCB74"/>
</svg>
