<svg width="39" height="23" viewBox="0 0 39 23" fill="none" xmlns="http://www.w3.org/2000/svg">
<path d="M16.43 19.24L15.6564 18.6064L15.6557 18.6072L16.43 19.24ZM3.23 19.27L2.45202 19.8984L2.45872 19.9065L3.23 19.27ZM3.26 3.79L2.48637 3.15636L2.48571 3.15717L3.26 3.79ZM16.46 3.76L15.682 4.38837L15.6887 4.39649L16.46 3.76ZM13.73 16.87L14.5567 17.4326L14.5567 17.4326L13.73 16.87ZM13.7 6.16L12.875 6.7251L12.8786 6.7304L13.7 6.16ZM5.99 6.13L6.81304 6.69801L6.81671 6.69262L5.99 6.13ZM5.99 16.87L5.1597 17.4273L5.16412 17.4339L5.16863 17.4404L5.99 16.87ZM15.6557 18.6072C14.1468 20.4534 12.2317 21.36 9.83 21.36V23.36C12.8283 23.36 15.3132 22.1866 17.2043 19.8728L15.6557 18.6072ZM9.83 21.36C7.42468 21.36 5.50892 20.4604 4.00128 18.6335L2.45872 19.9065C4.35108 22.1996 6.83532 23.36 9.83 23.36V21.36ZM4.00794 18.6417C2.49206 16.7649 1.71 14.4261 1.71 11.56H-0.29C-0.29 14.8139 0.607937 17.6151 2.45206 19.8983L4.00794 18.6417ZM1.71 11.56V11.5H-0.29V11.56H1.71ZM1.71 11.5C1.71 8.63677 2.50036 6.29964 4.03429 4.42283L2.48571 3.15717C0.619644 5.44035 -0.29 8.24323 -0.29 11.5H1.71ZM4.03363 4.42364C5.56488 2.55409 7.49162 1.64 9.89 1.64V-0.36C6.88838 -0.36 4.39512 0.825911 2.48637 3.15636L4.03363 4.42364ZM9.89 1.64C12.2913 1.64 14.1941 2.54607 15.6821 4.38834L17.2379 3.13166C15.3659 0.813932 12.8887 -0.36 9.89 -0.36V1.64ZM15.6887 4.39649C17.2196 6.25158 18.01 8.57656 18.01 11.44H20.01C20.01 8.18344 19.1004 5.38842 17.2313 3.1235L15.6887 4.39649ZM18.01 11.44V11.5H20.01V11.44H18.01ZM18.01 11.5C18.01 14.3601 17.2114 16.7078 15.6564 18.6064L17.2036 19.8736C19.0886 17.5722 20.01 14.7599 20.01 11.5H18.01ZM9.89 20.03C11.8389 20.03 13.4129 19.1133 14.5567 17.4326L12.9033 16.3074C12.0871 17.5067 11.1011 18.03 9.89 18.03V20.03ZM14.5567 17.4326C15.6711 15.7952 16.2 13.8188 16.2 11.56H14.2C14.2 13.5012 13.7489 15.0648 12.9033 16.3074L14.5567 17.4326ZM16.2 11.56V11.5H14.2V11.56H16.2ZM16.2 11.5C16.2 9.21949 15.6602 7.22949 14.5214 5.5896L12.8786 6.7304C13.7398 7.97051 14.2 9.54051 14.2 11.5H16.2ZM14.525 5.59491C13.3647 3.90087 11.7836 2.97 9.83 2.97V4.97C11.0364 4.97 12.0353 5.49913 12.875 6.72509L14.525 5.59491ZM9.83 2.97C7.88111 2.97 6.3071 3.88667 5.16329 5.56737L6.81671 6.69262C7.6329 5.49333 8.61889 4.97 9.83 4.97V2.97ZM5.16697 5.56199C4.04767 7.18384 3.52 9.16402 3.52 11.44H5.52C5.52 9.47598 5.97233 7.91616 6.81303 6.698L5.16697 5.56199ZM3.52 11.44V11.5H5.52V11.44H3.52ZM3.52 11.5C3.52 13.7771 4.04806 15.7712 5.1597 17.4273L6.8203 16.3127C5.97194 15.0488 5.52 13.4629 5.52 11.5H3.52ZM5.16863 17.4404C6.33454 19.1193 7.92725 20.03 9.89 20.03V18.03C8.65275 18.03 7.64546 17.5007 6.81137 16.2996L5.16863 17.4404ZM24.969 20.14L25.6761 19.4329L25.6761 19.4329L24.969 20.14ZM23.049 17.02L22.1018 17.3408L22.1041 17.3476L22.1066 17.3544L23.049 17.02ZM24.759 3.85L23.9545 3.25602L23.9509 3.26093L24.759 3.85ZM37.839 2.98L38.663 3.54653L39.1886 2.78205L38.4656 2.2007L37.839 2.98ZM35.859 5.86L35.2343 6.64087L36.0739 7.31255L36.683 6.42653L35.859 5.86ZM26.769 7.66L27.7217 7.96405L27.7235 7.95827L26.769 7.66ZM26.259 10.69L25.2597 10.653L25.1623 13.2808L26.9812 11.3817L26.259 10.69ZM36.549 10.33L37.1989 9.56997L37.1989 9.56997L36.549 10.33ZM36.369 20.35L35.7028 19.6042L35.6978 19.6087L36.369 20.35ZM27.579 18.1L28.2375 17.3474L28.2375 17.3474L27.579 18.1ZM33.789 18.1L34.4762 18.8265L34.4767 18.826L33.789 18.1ZM27.549 12.73L28.217 13.4743L28.2273 13.4648L27.549 12.73ZM30.819 21.36C28.6193 21.36 26.9391 20.6959 25.6761 19.4329L24.2619 20.8471C25.9589 22.5441 28.1786 23.36 30.819 23.36V21.36ZM25.6761 19.4329C24.9521 18.7089 24.3871 17.8006 23.9914 16.6856L22.1066 17.3544C22.5909 18.7194 23.3058 19.8911 24.2619 20.8471L25.6761 19.4329ZM23.9961 16.6992C23.6247 15.6027 23.419 14.0935 23.419 12.13H21.419C21.419 14.2065 21.6332 15.9573 22.1018 17.3408L23.9961 16.6992ZM23.419 12.13V12.07H21.419V12.13H23.419ZM23.419 12.07C23.419 8.88594 24.1611 6.36782 25.5671 4.43907L23.9509 3.26093C22.2369 5.61218 21.419 8.57406 21.419 12.07H23.419ZM25.5635 4.44397C26.939 2.58088 28.8486 1.64 31.419 1.64V-0.36C28.2694 -0.36 25.7389 0.839121 23.9545 3.25603L25.5635 4.44397ZM31.419 1.64C33.5159 1.64 35.4378 2.33233 37.2123 3.7593L38.4656 2.2007C36.3602 0.507668 34.0021 -0.36 31.419 -0.36V1.64ZM37.0149 2.41347L35.0349 5.29347L36.683 6.42653L38.663 3.54653L37.0149 2.41347ZM36.4837 5.07913C35.6396 4.40387 34.8253 3.88037 34.0426 3.53508L33.2353 5.36492C33.8127 5.61963 34.4784 6.03612 35.2343 6.64087L36.4837 5.07913ZM34.0426 3.53508C33.2142 3.16962 32.2928 3 31.299 3V5C32.0652 5 32.7037 5.13038 33.2353 5.36492L34.0426 3.53508ZM31.299 3C29.905 3 28.682 3.45359 27.7007 4.38454L29.0772 5.83546C29.656 5.2864 30.373 5 31.299 5V3ZM27.7007 4.38454C26.8058 5.23354 26.1689 6.22775 25.8145 7.36172L27.7235 7.95827C27.9691 7.17225 28.4121 6.46645 29.0772 5.83546L27.7007 4.38454ZM25.8163 7.35596C25.4862 8.39023 25.3027 9.49083 25.2597 10.653L27.2583 10.727C27.2953 9.72917 27.4517 8.80977 27.7216 7.96404L25.8163 7.35596ZM26.9812 11.3817C28.1489 10.1624 29.5664 9.56 31.299 9.56V7.56C29.0316 7.56 27.089 8.37758 25.5368 9.99832L26.9812 11.3817ZM31.299 9.56C33.2228 9.56 34.7299 10.0902 35.8991 11.09L37.1989 9.56997C35.6081 8.20976 33.6152 7.56 31.299 7.56V9.56ZM35.8991 11.09C37.0279 12.0552 37.619 13.3719 37.619 15.16H39.619C39.619 12.8681 38.8301 10.9648 37.1989 9.56997L35.8991 11.09ZM37.619 15.16V15.22H39.619V15.16H37.619ZM37.619 15.22C37.619 17.0263 36.9823 18.4612 35.7028 19.6042L37.0352 21.0958C38.7557 19.5588 39.619 17.5737 39.619 15.22H37.619ZM35.6978 19.6087C34.4228 20.7631 32.8209 21.36 30.819 21.36V23.36C33.2571 23.36 35.3552 22.6169 37.0402 21.0913L35.6978 19.6087ZM26.9205 18.8526C27.9411 19.7456 29.2431 20.15 30.729 20.15V18.15C29.6149 18.15 28.8169 17.8544 28.2375 17.3474L26.9205 18.8526ZM30.729 20.15C32.2112 20.15 33.5032 19.7468 34.4762 18.8265L33.1018 17.3735C32.5947 17.8532 31.8468 18.15 30.729 18.15V20.15ZM34.4767 18.826C35.4471 17.9066 35.929 16.729 35.929 15.37H33.929C33.929 16.211 33.6508 16.8534 33.1012 17.374L34.4767 18.826ZM35.929 15.37V15.31H33.929V15.37H35.929ZM35.929 15.31C35.929 13.9554 35.4246 12.7954 34.4161 11.9162L33.1019 13.4238C33.6534 13.9046 33.929 14.5046 33.929 15.31H35.929ZM34.4161 11.9162C33.411 11.0399 32.1166 10.65 30.639 10.65V12.65C31.7614 12.65 32.547 12.9401 33.1019 13.4238L34.4161 11.9162ZM30.639 10.65C29.1622 10.65 27.872 11.0709 26.8707 11.9952L28.2273 13.4648C28.786 12.9491 29.5557 12.65 30.639 12.65V10.65ZM26.8811 11.9858C25.8916 12.8738 25.379 14.0135 25.379 15.34H27.379C27.379 14.5865 27.6464 13.9862 28.2169 13.4742L26.8811 11.9858ZM25.379 15.34V15.4H27.379V15.34H25.379ZM25.379 15.4C25.379 16.7769 25.895 17.9553 26.9205 18.8526L28.2375 17.3474C27.663 16.8447 27.379 16.2231 27.379 15.4H25.379Z" fill="#FFCB74"/>
</svg>
