<svg width="39" height="23" viewBox="0 0 39 23" fill="none" xmlns="http://www.w3.org/2000/svg">
<path d="M16.43 19.24L15.6564 18.6064L15.6557 18.6072L16.43 19.24ZM3.23 19.27L2.45202 19.8984L2.45872 19.9065L3.23 19.27ZM3.26 3.79L2.48637 3.15636L2.48571 3.15717L3.26 3.79ZM16.46 3.76L15.682 4.38837L15.6887 4.39649L16.46 3.76ZM13.73 16.87L14.5567 17.4326V17.4326L13.73 16.87ZM13.7 6.16L12.875 6.7251L12.8786 6.7304L13.7 6.16ZM5.99 6.13L6.81304 6.69801L6.81671 6.69262L5.99 6.13ZM5.99 16.87L5.1597 17.4273L5.16412 17.4339L5.16863 17.4404L5.99 16.87ZM15.6557 18.6072C14.1468 20.4534 12.2317 21.36 9.83 21.36V23.36C12.8283 23.36 15.3132 22.1866 17.2043 19.8728L15.6557 18.6072ZM9.83 21.36C7.42468 21.36 5.50892 20.4604 4.00128 18.6335L2.45872 19.9065C4.35108 22.1996 6.83532 23.36 9.83 23.36V21.36ZM4.00794 18.6417C2.49206 16.7649 1.71 14.4261 1.71 11.56H-0.29C-0.29 14.8139 0.607937 17.6151 2.45206 19.8983L4.00794 18.6417ZM1.71 11.56V11.5H-0.29V11.56H1.71ZM1.71 11.5C1.71 8.63677 2.50036 6.29964 4.03429 4.42283L2.48571 3.15717C0.619644 5.44035 -0.29 8.24323 -0.29 11.5H1.71ZM4.03363 4.42364C5.56488 2.55409 7.49162 1.64 9.89 1.64V-0.360001C6.88838 -0.360001 4.39512 0.825911 2.48637 3.15636L4.03363 4.42364ZM9.89 1.64C12.2913 1.64 14.1941 2.54607 15.6821 4.38834L17.2379 3.13166C15.3659 0.813931 12.8887 -0.360001 9.89 -0.360001V1.64ZM15.6887 4.39649C17.2196 6.25158 18.01 8.57656 18.01 11.44H20.01C20.01 8.18344 19.1004 5.38842 17.2313 3.1235L15.6887 4.39649ZM18.01 11.44V11.5H20.01V11.44H18.01ZM18.01 11.5C18.01 14.3601 17.2114 16.7078 15.6564 18.6064L17.2036 19.8736C19.0886 17.5722 20.01 14.7599 20.01 11.5H18.01ZM9.89 20.03C11.8389 20.03 13.4129 19.1133 14.5567 17.4326L12.9033 16.3074C12.0871 17.5067 11.1011 18.03 9.89 18.03V20.03ZM14.5567 17.4326C15.6711 15.7952 16.2 13.8188 16.2 11.56H14.2C14.2 13.5012 13.7489 15.0648 12.9033 16.3074L14.5567 17.4326ZM16.2 11.56V11.5H14.2V11.56H16.2ZM16.2 11.5C16.2 9.21949 15.6602 7.22949 14.5214 5.5896L12.8786 6.7304C13.7398 7.97051 14.2 9.54051 14.2 11.5H16.2ZM14.525 5.59491C13.3647 3.90087 11.7836 2.97 9.83 2.97V4.97C11.0364 4.97 12.0353 5.49913 12.875 6.72509L14.525 5.59491ZM9.83 2.97C7.88111 2.97 6.3071 3.88667 5.16329 5.56737L6.81671 6.69262C7.6329 5.49333 8.61889 4.97 9.83 4.97V2.97ZM5.16697 5.56199C4.04767 7.18384 3.52 9.16402 3.52 11.44H5.52C5.52 9.47598 5.97233 7.91616 6.81303 6.698L5.16697 5.56199ZM3.52 11.44V11.5H5.52V11.44H3.52ZM3.52 11.5C3.52 13.7771 4.04806 15.7712 5.1597 17.4273L6.8203 16.3127C5.97194 15.0488 5.52 13.4629 5.52 11.5H3.52ZM5.16863 17.4404C6.33454 19.1193 7.92725 20.03 9.89 20.03V18.03C8.65275 18.03 7.64546 17.5007 6.81137 16.2996L5.16863 17.4404ZM24.399 20.65L23.8007 21.4513L23.8067 21.4557L23.8127 21.4601L24.399 20.65ZM25.929 11.11L26.3105 12.0344L28.2981 11.2141L26.3901 10.2226L25.929 11.11ZM24.939 2.32L25.5553 3.1075L24.939 2.32ZM35.379 2.32L34.7627 3.1075L35.379 2.32ZM34.389 11.11L33.9279 10.2226L32.1004 11.1722L33.9768 12.0211L34.389 11.11ZM35.919 20.65L36.5103 21.4564L35.919 20.65ZM27.459 9.01L26.8209 9.78009L26.8317 9.78875L27.459 9.01ZM32.829 9.01L32.2016 8.23117L32.191 8.23998L32.829 9.01ZM32.859 4.63L32.2233 5.40193L32.2288 5.40644L32.2343 5.41087L32.859 4.63ZM27.429 4.63L26.8043 3.84913L26.7988 3.85356L26.7933 3.85807L27.429 4.63ZM26.949 18.31L26.3267 19.0928L26.3377 19.1016L26.349 19.11L26.949 18.31ZM33.339 18.34L33.9357 19.1425L33.939 19.14L33.339 18.34ZM33.309 13.72L33.8864 12.9036L33.309 13.72ZM27.009 13.72L26.4315 12.9036L27.009 13.72ZM30.159 21.3C27.999 21.3 26.2979 20.7898 24.9853 19.8399L23.8127 21.4601C25.5401 22.7102 27.679 23.3 30.159 23.3V21.3ZM24.9973 19.8487C23.7382 18.9086 23.149 17.74 23.149 16.27H21.149C21.149 18.4 22.0597 20.1514 23.8007 21.4513L24.9973 19.8487ZM23.149 16.27V16.21H21.149V16.27H23.149ZM23.149 16.21C23.149 15.2185 23.4097 14.4184 23.8974 13.7605C24.3922 13.0928 25.1708 12.5047 26.3105 12.0344L25.5475 10.1856C24.1671 10.7553 23.0557 11.5372 22.2906 12.5695C21.5183 13.6116 21.149 14.8415 21.149 16.21H23.149ZM26.3901 10.2226C25.4873 9.75354 24.8674 9.20405 24.471 8.59775C24.0784 7.99735 23.869 7.28685 23.869 6.43H21.869C21.869 7.63315 22.1696 8.73265 22.797 9.69225C23.4206 10.646 24.3307 11.4065 25.4679 11.9974L26.3901 10.2226ZM23.869 6.43V6.37H21.869V6.43H23.869ZM23.869 6.37C23.869 5.08534 24.3947 4.01579 25.5553 3.1075L24.3227 1.53249C22.7233 2.78421 21.869 4.41466 21.869 6.37H23.869ZM25.5553 3.1075C26.7264 2.191 28.2366 1.7 30.159 1.7V-0.300001C27.8814 -0.300001 25.9116 0.288996 24.3227 1.53249L25.5553 3.1075ZM30.159 1.7C32.0814 1.7 33.5916 2.191 34.7627 3.1075L35.9953 1.53249C34.4064 0.288996 32.4366 -0.300001 30.159 -0.300001V1.7ZM34.7627 3.1075C35.9233 4.01579 36.449 5.08534 36.449 6.37H38.449C38.449 4.41466 37.5947 2.78421 35.9953 1.53249L34.7627 3.1075ZM36.449 6.37V6.43H38.449V6.37H36.449ZM36.449 6.43C36.449 7.28685 36.2396 7.99735 35.847 8.59775C35.4506 9.20405 34.8307 9.75354 33.9279 10.2226L34.8501 11.9974C35.9873 11.4065 36.8974 10.646 37.521 9.69225C38.1484 8.73265 38.449 7.63315 38.449 6.43H36.449ZM33.9768 12.0211C35.1304 12.543 35.922 13.1557 36.424 13.825C36.9165 14.4816 37.169 15.2432 37.169 16.15H39.169C39.169 14.8368 38.7915 13.6484 38.024 12.625C37.266 11.6143 36.1675 10.817 34.8012 10.1989L33.9768 12.0211ZM37.169 16.15V16.21H39.169V16.15H37.169ZM37.169 16.21C37.169 17.7514 36.5708 18.932 35.3276 19.8436L36.5103 21.4564C38.2672 20.168 39.169 18.3886 39.169 16.21H37.169ZM35.3276 19.8436C34.039 20.7886 32.3417 21.3 30.159 21.3V23.3C32.6562 23.3 34.799 22.7114 36.5103 21.4564L35.3276 19.8436ZM26.8317 9.78875C27.7583 10.5352 28.8909 10.88 30.159 10.88V8.88C29.2671 8.88 28.5996 8.64476 28.0863 8.23125L26.8317 9.78875ZM30.159 10.88C31.4262 10.88 32.5553 10.5355 33.467 9.78002L32.191 8.23998C31.7027 8.64454 31.0518 8.88 30.159 8.88V10.88ZM33.4563 9.78875C34.4045 9.02494 34.909 8.00205 34.909 6.79H32.909C32.909 7.37794 32.6935 7.83506 32.2017 8.23125L33.4563 9.78875ZM34.909 6.79V6.73H32.909V6.79H34.909ZM34.909 6.73C34.909 5.56349 34.4026 4.58423 33.4837 3.84913L32.2343 5.41087C32.7154 5.79576 32.909 6.21651 32.909 6.73H34.909ZM33.4947 3.85807C32.5916 3.11436 31.4466 2.79 30.159 2.79V4.79C31.1113 4.79 31.7664 5.02564 32.2233 5.40193L33.4947 3.85807ZM30.159 2.79C28.8699 2.79 27.7221 3.11488 26.8043 3.84913L28.0537 5.41087C28.5359 5.02512 29.2081 4.79 30.159 4.79V2.79ZM26.7933 3.85807C25.8955 4.59739 25.409 5.57484 25.409 6.73H27.409C27.409 6.20516 27.6024 5.78261 28.0647 5.40193L26.7933 3.85807ZM25.409 6.73V6.79H27.409V6.73H25.409ZM25.409 6.79C25.409 7.99123 25.8944 9.01226 26.821 9.78002L28.097 8.23998C27.6236 7.84774 27.409 7.38877 27.409 6.79H25.409ZM26.349 19.11C27.3725 19.8777 28.6755 20.21 30.159 20.21V18.21C28.9624 18.21 28.1254 17.9423 27.549 17.51L26.349 19.11ZM30.159 20.21C31.6342 20.21 32.9286 19.8913 33.9357 19.1425L32.7423 17.5375C32.1894 17.9487 31.3638 18.21 30.159 18.21V20.21ZM33.939 19.14C34.9654 18.3702 35.539 17.3252 35.539 16.06H33.539C33.539 16.6348 33.3125 17.1098 32.739 17.54L33.939 19.14ZM35.539 16.06V16H33.539V16.06H35.539ZM35.539 16C35.539 14.7101 34.9501 13.6559 33.8864 12.9036L32.7315 14.5364C33.3079 14.9441 33.539 15.4099 33.539 16H35.539ZM33.8864 12.9036C32.8564 12.175 31.589 11.85 30.159 11.85V13.85C31.289 13.85 32.1215 14.105 32.7315 14.5364L33.8864 12.9036ZM30.159 11.85C28.729 11.85 27.4615 12.175 26.4315 12.9036L27.5864 14.5364C28.1964 14.105 29.029 13.85 30.159 13.85V11.85ZM26.4315 12.9036C25.3679 13.6559 24.779 14.7101 24.779 16H26.779C26.779 15.4099 27.0101 14.9441 27.5864 14.5364L26.4315 12.9036ZM24.779 16V16.06H26.779V16H24.779ZM24.779 16.06C24.779 17.2878 25.3438 18.3115 26.3267 19.0928L27.5712 17.5272C26.9941 17.0685 26.779 16.5922 26.779 16.06H24.779Z" fill="#5E5AFF"/>
</svg>
