<svg width="39" height="23" viewBox="0 0 39 23" fill="none" xmlns="http://www.w3.org/2000/svg">
<path d="M16.43 19.24L15.6564 18.6064L15.6557 18.6072L16.43 19.24ZM3.23 19.27L2.45202 19.8984L2.45872 19.9065L3.23 19.27ZM3.26 3.79L2.48637 3.15636L2.48571 3.15717L3.26 3.79ZM16.46 3.76L15.682 4.38837L15.6887 4.39649L16.46 3.76ZM13.73 16.87L14.5567 17.4326V17.4326L13.73 16.87ZM13.7 6.16L12.875 6.7251L12.8786 6.7304L13.7 6.16ZM5.99 6.13L6.81304 6.69801L6.81671 6.69262L5.99 6.13ZM5.99 16.87L5.1597 17.4273L5.16412 17.4339L5.16863 17.4404L5.99 16.87ZM15.6557 18.6072C14.1468 20.4534 12.2317 21.36 9.83 21.36V23.36C12.8283 23.36 15.3132 22.1866 17.2043 19.8728L15.6557 18.6072ZM9.83 21.36C7.42468 21.36 5.50892 20.4604 4.00128 18.6335L2.45872 19.9065C4.35108 22.1996 6.83532 23.36 9.83 23.36V21.36ZM4.00794 18.6417C2.49206 16.7649 1.71 14.4261 1.71 11.56H-0.29C-0.29 14.8139 0.607937 17.6151 2.45206 19.8983L4.00794 18.6417ZM1.71 11.56V11.5H-0.29V11.56H1.71ZM1.71 11.5C1.71 8.63677 2.50036 6.29964 4.03429 4.42283L2.48571 3.15717C0.619644 5.44035 -0.29 8.24323 -0.29 11.5H1.71ZM4.03363 4.42364C5.56488 2.55409 7.49162 1.64 9.89 1.64V-0.360001C6.88838 -0.360001 4.39512 0.825911 2.48637 3.15636L4.03363 4.42364ZM9.89 1.64C12.2913 1.64 14.1941 2.54607 15.6821 4.38834L17.2379 3.13166C15.3659 0.813931 12.8887 -0.360001 9.89 -0.360001V1.64ZM15.6887 4.39649C17.2196 6.25158 18.01 8.57656 18.01 11.44H20.01C20.01 8.18344 19.1004 5.38842 17.2313 3.1235L15.6887 4.39649ZM18.01 11.44V11.5H20.01V11.44H18.01ZM18.01 11.5C18.01 14.3601 17.2114 16.7078 15.6564 18.6064L17.2036 19.8736C19.0886 17.5722 20.01 14.7599 20.01 11.5H18.01ZM9.89 20.03C11.8389 20.03 13.4129 19.1133 14.5567 17.4326L12.9033 16.3074C12.0871 17.5067 11.1011 18.03 9.89 18.03V20.03ZM14.5567 17.4326C15.6711 15.7952 16.2 13.8188 16.2 11.56H14.2C14.2 13.5012 13.7489 15.0648 12.9033 16.3074L14.5567 17.4326ZM16.2 11.56V11.5H14.2V11.56H16.2ZM16.2 11.5C16.2 9.21949 15.6602 7.22949 14.5214 5.5896L12.8786 6.7304C13.7398 7.97051 14.2 9.54051 14.2 11.5H16.2ZM14.525 5.59491C13.3647 3.90087 11.7836 2.97 9.83 2.97V4.97C11.0364 4.97 12.0353 5.49913 12.875 6.72509L14.525 5.59491ZM9.83 2.97C7.88111 2.97 6.3071 3.88667 5.16329 5.56737L6.81671 6.69262C7.6329 5.49333 8.61889 4.97 9.83 4.97V2.97ZM5.16697 5.56199C4.04767 7.18384 3.52 9.16402 3.52 11.44H5.52C5.52 9.47598 5.97233 7.91616 6.81303 6.698L5.16697 5.56199ZM3.52 11.44V11.5H5.52V11.44H3.52ZM3.52 11.5C3.52 13.7771 4.04806 15.7712 5.1597 17.4273L6.8203 16.3127C5.97194 15.0488 5.52 13.4629 5.52 11.5H3.52ZM5.16863 17.4404C6.33454 19.1193 7.92725 20.03 9.89 20.03V18.03C8.65275 18.03 7.64546 17.5007 6.81137 16.2996L5.16863 17.4404ZM32.079 18.37L31.5534 17.5191L31.5421 17.5263L32.079 18.37ZM33.669 16.72L32.796 16.2322H32.796L33.669 16.72ZM34.539 14.62L35.5025 14.8876L35.5043 14.8809L34.539 14.62ZM34.869 12.4L35.8686 12.427L35.9472 9.51986L34.0974 11.7639L34.869 12.4ZM24.519 12.82L23.8512 13.5644L23.8574 13.5698L24.519 12.82ZM24.669 2.71L23.9821 1.98326L24.669 2.71ZM36.159 2.89L36.8661 2.18289L36.159 2.89ZM36.249 19.21L35.4572 18.5992L35.4536 18.604L36.249 19.21ZM22.959 19.84L22.1447 19.2596L21.6007 20.0227L22.327 20.615L22.959 19.84ZM24.969 17.02L25.6054 16.2486L24.7776 15.5657L24.1547 16.4396L24.969 17.02ZM27.339 10.51L26.6711 11.2542L26.6764 11.259L26.6819 11.2638L27.339 10.51ZM33.549 10.45L34.2367 11.176L34.2372 11.1755L33.549 10.45ZM33.519 4.93L32.85 5.67329L33.519 4.93ZM27.279 4.96L26.5813 4.24346L26.5719 4.25289L27.279 4.96ZM29.769 20C30.8147 20 31.776 19.7481 32.6159 19.2137L31.5421 17.5263C31.062 17.8319 30.4833 18 29.769 18V20ZM32.6045 19.2208C33.4254 18.7138 34.0767 18.0404 34.5419 17.2078L32.796 16.2322C32.5013 16.7596 32.0926 17.1862 31.5535 17.5192L32.6045 19.2208ZM34.5419 17.2078C34.9591 16.4612 35.2803 15.6876 35.5025 14.8876L33.5755 14.3524C33.3977 14.9924 33.1388 15.6188 32.796 16.2322L34.5419 17.2078ZM35.5043 14.8809C35.7242 14.0673 35.8464 13.2488 35.8686 12.427L33.8694 12.373C33.8516 13.0312 33.7537 13.6927 33.5736 14.3591L35.5043 14.8809ZM34.0974 11.7639C33.0849 12.9922 31.7291 13.62 29.919 13.62V15.62C32.2689 15.62 34.2131 14.7678 35.6406 13.0361L34.0974 11.7639ZM29.919 13.62C27.863 13.62 26.3177 13.0735 25.1806 12.0702L23.8574 13.5698C25.4403 14.9665 27.4949 15.62 29.919 15.62V13.62ZM25.1867 12.0756C24.0619 11.0666 23.479 9.72945 23.479 7.96H21.479C21.479 10.2305 22.2561 12.1334 23.8512 13.5644L25.1867 12.0756ZM23.479 7.96V7.9H21.479V7.96H23.479ZM23.479 7.9C23.479 6.08403 24.1036 4.62045 25.3559 3.43674L23.9821 1.98326C22.3144 3.55955 21.479 5.55597 21.479 7.9H23.479ZM25.3559 3.43674C26.6032 2.2578 28.2246 1.64 30.309 1.64V-0.360001C27.7934 -0.360001 25.6548 0.402195 23.9821 1.98326L25.3559 3.43674ZM30.309 1.64C32.4817 1.64 34.1647 2.30989 35.4519 3.59711L36.8661 2.18289C35.1533 0.470113 32.9362 -0.360001 30.309 -0.360001V1.64ZM35.4519 3.59711C36.8651 5.01036 37.679 7.35695 37.679 10.87H39.679C39.679 7.10305 38.8128 4.12964 36.8661 2.18289L35.4519 3.59711ZM37.679 10.87V10.93H39.679V10.87H37.679ZM37.679 10.93C37.679 14.1935 36.9075 16.7192 35.4572 18.5992L37.0408 19.8208C38.8305 17.5008 39.679 14.5065 39.679 10.93H37.679ZM35.4536 18.604C34.0541 20.4408 32.1662 21.36 29.679 21.36V23.36C32.7518 23.36 35.2439 22.1792 37.0444 19.816L35.4536 18.604ZM29.679 21.36C27.5124 21.36 25.4913 20.6148 23.591 19.065L22.327 20.615C24.5467 22.4252 27.0056 23.36 29.679 23.36V21.36ZM23.7733 20.4204L25.7833 17.6004L24.1547 16.4396L22.1447 19.2596L23.7733 20.4204ZM24.3326 17.7914C26.0579 19.2147 27.8754 20 29.769 20V18C28.4626 18 27.0801 17.4653 25.6054 16.2486L24.3326 17.7914ZM26.6819 11.2638C27.687 12.1401 28.9814 12.53 30.459 12.53V10.53C29.3366 10.53 28.551 10.2399 27.9961 9.75623L26.6819 11.2638ZM30.459 12.53C31.9499 12.53 33.2487 12.112 34.2367 11.176L32.8612 9.72405C32.3293 10.228 31.5681 10.53 30.459 10.53V12.53ZM34.2372 11.1755C35.213 10.2497 35.719 9.08876 35.719 7.75H33.719C33.719 8.53124 33.4449 9.1703 32.8607 9.72453L34.2372 11.1755ZM35.719 7.75V7.69H33.719V7.75H35.719ZM35.719 7.69C35.719 6.29958 35.2082 5.10491 34.188 4.18671L32.85 5.67329C33.4298 6.19508 33.719 6.84042 33.719 7.69H35.719ZM34.188 4.18671C33.165 3.26608 31.8475 2.85 30.339 2.85V4.85C31.4705 4.85 32.2729 5.15392 32.85 5.67329L34.188 4.18671ZM30.339 2.85C28.8557 2.85 27.5655 3.28532 26.5814 4.24353L27.9766 5.67647C28.5125 5.15467 29.2623 4.85 30.339 4.85V2.85ZM26.5719 4.25289C25.6302 5.19452 25.169 6.3854 25.169 7.75H27.169C27.169 6.8746 27.4477 6.20548 27.9861 5.66711L26.5719 4.25289ZM25.169 7.75V7.81H27.169V7.75H25.169ZM25.169 7.81C25.169 9.17803 25.6681 10.3542 26.6711 11.2542L28.0069 9.76576C27.4498 9.26583 27.169 8.64197 27.169 7.81H25.169Z" fill="#5E5AFF"/>
</svg>
