<svg width="35" height="35" viewBox="0 0 35 35" fill="none" xmlns="http://www.w3.org/2000/svg">
<g id="finish.svg" clip-path="url(#clip0_6_983)">
<g id="Group">
<g id="Page-1">
<g id="037---Waypoint-Flag">
<path id="Shape" d="M34.4605 16.0449C32.2635 14.9518 30.231 13.5553 28.4227 11.8964C29.3516 8.38404 30.0407 4.81266 30.4854 1.2069C30.5897 0.366903 30.122 0.0958284 29.9767 0.0328868C29.5674 -0.122933 29.105 0.0304418 28.8699 0.399978C25.6775 4.21959 21.3048 3.78378 16.6751 3.3198C12.0093 2.85313 7.19559 2.3797 3.62688 6.47645C3.12782 5.85351 2.30543 5.58812 1.53639 5.80182L1.45606 5.82434C0.397821 6.12156 -0.220315 7.2191 0.074085 8.27813L7.19594 33.7634C7.40256 34.5011 8.07399 35.0117 8.84001 35.0138C8.99619 35.0136 9.15161 34.9921 9.30201 34.9501L9.92519 34.776C10.3619 34.654 10.7327 34.3635 10.9552 33.9684C11.1776 33.5733 11.234 33.106 11.1118 32.6694L8.9061 24.7753C12.1183 20.6449 16.5944 21.0823 21.3304 21.5553C26.0609 22.0278 30.9474 22.5155 34.5371 18.2228L34.5388 18.2205C34.8914 17.781 35.0366 17.2105 34.9369 16.6559C34.8844 16.388 34.7075 16.1611 34.4605 16.0449ZM9.93831 33.3959C9.86821 33.5218 9.75052 33.6143 9.61164 33.6526L8.98841 33.8266C8.69971 33.9069 8.40051 33.7383 8.31962 33.4498L1.19741 7.96424C1.07584 7.52535 1.3321 7.07079 1.77054 6.9476L1.85028 6.92538C1.92241 6.90507 1.997 6.8948 2.07194 6.89487C2.44195 6.89546 2.7666 7.14159 2.86709 7.49769L2.93026 7.72379V7.72501L6.57779 20.7774L9.98842 32.9829C10.0275 33.1218 10.0094 33.2705 9.93831 33.3959ZM33.6408 17.4753C30.4479 21.2938 26.0746 20.8571 21.4467 20.3943C16.8364 19.9334 12.0783 19.458 8.52279 23.4018L5.33604 11.9988L4.13187 7.68955C7.34417 3.5599 11.82 4.0076 16.5595 4.4808C21.0598 4.92968 25.7054 5.39454 29.2396 1.7336C28.804 5.05866 28.1548 8.35223 27.2959 11.5939C27.1797 12.013 27.3115 12.4618 27.636 12.7514C29.4902 14.4489 31.5657 15.8876 33.806 17.0281C33.7935 17.1896 33.7363 17.3445 33.6408 17.4753Z" fill="#FFCB74"/>
</g>
</g>
</g>
</g>
<defs>
<clipPath id="clip0_6_983">
<rect width="35" height="35" fill="white"/>
</clipPath>
</defs>
</svg>
