<svg width="88" height="99" viewBox="0 0 88 99" fill="none" xmlns="http://www.w3.org/2000/svg">
<path d="M22.272 78.152C19.712 78.152 17.152 77.928 14.592 77.48C12.032 77.096 9.696 76.36 7.584 75.272C5.536 74.184 3.872 72.648 2.592 70.664C1.312 68.68 0.672 66.12 0.672 62.984C0.672 60.36 1.184 57.352 2.208 53.96C3.296 50.504 4.896 47.048 7.008 43.592C9.12 40.072 11.744 36.808 14.88 33.8C18.08 30.792 21.76 28.392 25.92 26.6C30.144 24.744 34.88 23.816 40.128 23.816C47.808 23.816 53.408 25.064 56.928 27.56C60.448 29.992 62.208 33.8 62.208 38.984C62.208 44.04 61.152 48.904 59.04 53.576C56.992 58.248 54.112 62.44 50.4 66.152C46.752 69.864 42.528 72.808 37.728 74.984C32.928 77.096 27.776 78.152 22.272 78.152ZM21.504 76.712C25.408 76.712 29.12 75.976 32.64 74.504C36.224 72.968 39.456 70.92 42.336 68.36C45.28 65.736 47.808 62.76 49.92 59.432C52.096 56.104 53.76 52.616 54.912 48.968C56.128 45.32 56.736 41.704 56.736 38.12C56.736 34.152 55.488 31.016 52.992 28.712C50.496 26.408 46.272 25.256 40.32 25.256C36.928 25.256 33.536 26.12 30.144 27.848C26.816 29.512 23.68 31.752 20.736 34.568C17.856 37.384 15.264 40.488 12.96 43.88C10.72 47.272 8.96 50.696 7.68 54.152C6.4 57.608 5.76 60.84 5.76 63.848C5.76 67.88 6.944 71.048 9.312 73.352C11.744 75.592 15.808 76.712 21.504 76.712Z" fill="#2F2F2F"/>
<path d="M70.312 98.208C68.712 98.208 67.08 97.696 65.416 96.672C63.816 95.712 62.184 94.144 60.52 91.968C58.472 89.152 56.744 86.464 55.336 83.904C53.928 81.344 52.776 79.104 51.88 77.184C51.048 75.264 50.408 73.888 49.96 73.056C49.96 73.056 50.12 72.864 50.44 72.48C50.76 72.032 51.144 71.616 51.592 71.232C52.104 70.784 52.52 70.56 52.84 70.56C55.848 70.56 58.536 70.528 60.904 70.464C63.336 70.336 65.48 69.952 67.336 69.312C69.256 68.608 70.952 67.424 72.424 65.76C73.896 64.096 75.144 61.728 76.168 58.656C76.488 57.888 76.68 57.12 76.744 56.352C76.872 55.52 76.936 54.72 76.936 53.952C76.936 51.776 76.392 49.856 75.304 48.192C74.216 46.528 72.648 45.568 70.6 45.312C70.344 45.248 70.056 45.216 69.736 45.216C69.416 45.216 69.096 45.216 68.776 45.216C67.56 45.216 66.216 45.376 64.744 45.696C63.336 46.016 62.28 46.624 61.576 47.52C59.976 49.632 58.44 52.032 56.968 54.72C55.496 57.344 54.088 60.032 52.744 62.784C51.4 65.472 50.12 68 48.904 70.368C48.584 71.008 47.976 72.16 47.08 73.824C46.184 75.424 45.192 77.28 44.104 79.392C43.016 81.44 41.992 83.488 41.032 85.536C40.072 87.584 39.304 89.408 38.728 91.008C38.216 92.608 38.088 93.696 38.344 94.272C38.408 94.336 38.44 94.432 38.44 94.56C38.44 94.752 38.344 94.848 38.152 94.848C37.64 94.848 37.128 94.72 36.616 94.464C36.104 94.208 35.496 94.08 34.792 94.08C34.152 94.08 33.512 94.24 32.872 94.56C32.232 94.816 31.4 95.296 30.376 96C29.352 96.704 28.2 97.28 26.92 97.728C26.792 97.792 26.6 97.824 26.344 97.824C25.896 97.824 25.544 97.696 25.288 97.44C25.032 97.248 25.032 97.088 25.288 96.96C26.696 96.704 27.912 96.192 28.936 95.424C29.96 94.592 30.792 93.568 31.432 92.352C32.776 90.112 34.088 87.872 35.368 85.632C36.712 83.328 37.992 81.024 39.208 78.72C40.68 75.904 42.184 73.088 43.72 70.272C45.256 67.392 46.792 64.544 48.328 61.728C49.8 59.104 51.112 56.576 52.264 54.144C53.416 51.712 54.28 49.952 54.856 48.864C55.304 48.032 56.072 47.296 57.16 46.656C58.312 45.952 59.432 45.408 60.52 45.024C60.136 45.024 59.752 45.024 59.368 45.024C58.984 44.96 58.568 44.928 58.12 44.928C56.136 44.928 53.96 45.056 51.592 45.312C49.288 45.504 47.016 45.824 44.776 46.272C42.6 46.72 40.68 47.328 39.016 48.096C37.352 48.864 36.232 49.792 35.656 50.88C35.4 51.456 35.176 52.032 34.984 52.608C34.792 53.184 34.696 53.76 34.696 54.336C34.696 55.808 35.208 56.864 36.232 57.504C36.296 57.504 36.328 57.568 36.328 57.696C36.328 57.824 36.2 57.952 35.944 58.08C35.752 58.208 35.592 58.24 35.464 58.176C34.824 57.856 34.088 57.088 33.256 55.872C32.488 54.592 31.976 53.536 31.72 52.704C31.528 51.936 31.432 51.232 31.432 50.592C31.432 48.928 31.976 47.648 33.064 46.752C34.152 45.792 35.528 45.12 37.192 44.736C38.856 44.288 40.552 44.032 42.28 43.968C44.072 43.84 45.64 43.776 46.984 43.776C49.032 43.776 51.464 43.776 54.28 43.776C57.096 43.712 59.688 43.68 62.056 43.68C62.632 43.68 63.272 43.68 63.976 43.68C64.68 43.616 65.416 43.584 66.184 43.584C67.912 43.584 69.704 43.68 71.56 43.872C73.416 44.064 75.112 44.48 76.648 45.12C78.184 45.76 79.368 46.752 80.2 48.096C81.288 49.888 81.832 51.936 81.832 54.24C81.832 57.76 80.904 60.704 79.048 63.072C78.408 63.904 77.704 64.704 76.936 65.472C76.168 66.24 75.272 66.976 74.248 67.68C72.584 68.832 70.6 69.824 68.296 70.656C65.992 71.424 63.592 72 61.096 72.384C58.664 72.768 56.424 73.024 54.376 73.152C55.208 74.944 56.456 77.344 58.12 80.352C59.848 83.36 61.928 86.368 64.36 89.376C65.64 90.976 66.952 92.096 68.296 92.736C69.64 93.376 70.952 93.696 72.232 93.696C74.28 93.696 76.2 93.088 77.992 91.872C79.848 90.656 81.512 89.248 82.984 87.648C84.52 85.984 85.736 84.544 86.632 83.328C86.824 83.008 86.984 82.848 87.112 82.848C87.304 82.848 87.4 83.04 87.4 83.424C87.4 83.936 87.208 84.448 86.824 84.96C83.88 88.992 81.064 92.224 78.376 94.656C75.688 97.024 73 98.208 70.312 98.208Z" fill="#2F2F2F"/>
</svg>
