<svg width="37" height="56" viewBox="0 0 37 56" fill="none" xmlns="http://www.w3.org/2000/svg">
<path d="M8.352 29.432C7.392 29.432 6.432 29.348 5.472 29.18C4.512 29.036 3.636 28.76 2.844 28.352C2.076 27.944 1.452 27.368 0.972 26.624C0.492 25.88 0.252 24.92 0.252 23.744C0.252 22.76 0.444 21.632 0.828 20.36C1.236 19.064 1.836 17.768 2.628 16.472C3.42 15.152 4.404 13.928 5.58 12.8C6.78 11.672 8.16 10.772 9.72 10.1C11.304 9.404 13.08 9.056 15.048 9.056C17.928 9.056 20.028 9.524 21.348 10.46C22.668 11.372 23.328 12.8 23.328 14.744C23.328 16.64 22.932 18.464 22.14 20.216C21.372 21.968 20.292 23.54 18.9 24.932C17.532 26.324 15.948 27.428 14.148 28.244C12.348 29.036 10.416 29.432 8.352 29.432ZM8.064 28.892C9.528 28.892 10.92 28.616 12.24 28.064C13.584 27.488 14.796 26.72 15.876 25.76C16.98 24.776 17.928 23.66 18.72 22.412C19.536 21.164 20.16 19.856 20.592 18.488C21.048 17.12 21.276 15.764 21.276 14.42C21.276 12.932 20.808 11.756 19.872 10.892C18.936 10.028 17.352 9.596 15.12 9.596C13.848 9.596 12.576 9.92 11.304 10.568C10.056 11.192 8.88 12.032 7.776 13.088C6.696 14.144 5.724 15.308 4.86 16.58C4.02 17.852 3.36 19.136 2.88 20.432C2.4 21.728 2.16 22.94 2.16 24.068C2.16 25.58 2.604 26.768 3.492 27.632C4.404 28.472 5.928 28.892 8.064 28.892Z" fill="#2F2F2F"/>
<path d="M29.992 39.828C29.392 39.828 28.78 39.636 28.156 39.252C27.556 38.892 26.944 38.304 26.32 37.488C25.552 36.432 24.904 35.424 24.376 34.464C23.848 33.504 23.416 32.664 23.08 31.944C22.768 31.224 22.528 30.708 22.36 30.396C22.36 30.396 22.42 30.324 22.54 30.18C22.66 30.012 22.804 29.856 22.972 29.712C23.164 29.544 23.32 29.46 23.44 29.46C24.568 29.46 25.576 29.448 26.464 29.424C27.376 29.376 28.18 29.232 28.876 28.992C29.596 28.728 30.232 28.284 30.784 27.66C31.336 27.036 31.804 26.148 32.188 24.996C32.308 24.708 32.38 24.42 32.404 24.132C32.452 23.82 32.476 23.52 32.476 23.232C32.476 22.416 32.272 21.696 31.864 21.072C31.456 20.448 30.868 20.088 30.1 19.992C30.004 19.968 29.896 19.956 29.776 19.956C29.656 19.956 29.536 19.956 29.416 19.956C28.96 19.956 28.456 20.016 27.904 20.136C27.376 20.256 26.98 20.484 26.716 20.82C26.116 21.612 25.54 22.512 24.988 23.52C24.436 24.504 23.908 25.512 23.404 26.544C22.9 27.552 22.42 28.5 21.964 29.388C21.844 29.628 21.616 30.06 21.28 30.684C20.944 31.284 20.572 31.98 20.164 32.772C19.756 33.54 19.372 34.308 19.012 35.076C18.652 35.844 18.364 36.528 18.148 37.128C17.956 37.728 17.908 38.136 18.004 38.352C18.028 38.376 18.04 38.412 18.04 38.46C18.04 38.532 18.004 38.568 17.932 38.568C17.74 38.568 17.548 38.52 17.356 38.424C17.164 38.328 16.936 38.28 16.672 38.28C16.432 38.28 16.192 38.34 15.952 38.46C15.712 38.556 15.4 38.736 15.016 39C14.632 39.264 14.2 39.48 13.72 39.648C13.672 39.672 13.6 39.684 13.504 39.684C13.336 39.684 13.204 39.636 13.108 39.54C13.012 39.468 13.012 39.408 13.108 39.36C13.636 39.264 14.092 39.072 14.476 38.784C14.86 38.472 15.172 38.088 15.412 37.632C15.916 36.792 16.408 35.952 16.888 35.112C17.392 34.248 17.872 33.384 18.328 32.52C18.88 31.464 19.444 30.408 20.02 29.352C20.596 28.272 21.172 27.204 21.748 26.148C22.3 25.164 22.792 24.216 23.224 23.304C23.656 22.392 23.98 21.732 24.196 21.324C24.364 21.012 24.652 20.736 25.06 20.496C25.492 20.232 25.912 20.028 26.32 19.884C26.176 19.884 26.032 19.884 25.888 19.884C25.744 19.86 25.588 19.848 25.42 19.848C24.676 19.848 23.86 19.896 22.972 19.992C22.108 20.064 21.256 20.184 20.416 20.352C19.6 20.52 18.88 20.748 18.256 21.036C17.632 21.324 17.212 21.672 16.996 22.08C16.9 22.296 16.816 22.512 16.744 22.728C16.672 22.944 16.636 23.16 16.636 23.376C16.636 23.928 16.828 24.324 17.212 24.564C17.236 24.564 17.248 24.588 17.248 24.636C17.248 24.684 17.2 24.732 17.104 24.78C17.032 24.828 16.972 24.84 16.924 24.816C16.684 24.696 16.408 24.408 16.096 23.952C15.808 23.472 15.616 23.076 15.52 22.764C15.448 22.476 15.412 22.212 15.412 21.972C15.412 21.348 15.616 20.868 16.024 20.532C16.432 20.172 16.948 19.92 17.572 19.776C18.196 19.608 18.832 19.512 19.48 19.488C20.152 19.44 20.74 19.416 21.244 19.416C22.012 19.416 22.924 19.416 23.98 19.416C25.036 19.392 26.008 19.38 26.896 19.38C27.112 19.38 27.352 19.38 27.616 19.38C27.88 19.356 28.156 19.344 28.444 19.344C29.092 19.344 29.764 19.38 30.46 19.452C31.156 19.524 31.792 19.68 32.368 19.92C32.944 20.16 33.388 20.532 33.7 21.036C34.108 21.708 34.312 22.476 34.312 23.34C34.312 24.66 33.964 25.764 33.268 26.652C33.028 26.964 32.764 27.264 32.476 27.552C32.188 27.84 31.852 28.116 31.468 28.38C30.844 28.812 30.1 29.184 29.236 29.496C28.372 29.784 27.472 30 26.536 30.144C25.624 30.288 24.784 30.384 24.016 30.432C24.328 31.104 24.796 32.004 25.42 33.132C26.068 34.26 26.848 35.388 27.76 36.516C28.24 37.116 28.732 37.536 29.236 37.776C29.74 38.016 30.232 38.136 30.712 38.136C31.48 38.136 32.2 37.908 32.872 37.452C33.568 36.996 34.192 36.468 34.744 35.868C35.32 35.244 35.776 34.704 36.112 34.248C36.184 34.128 36.244 34.068 36.292 34.068C36.364 34.068 36.4 34.14 36.4 34.284C36.4 34.476 36.328 34.668 36.184 34.86C35.08 36.372 34.024 37.584 33.016 38.496C32.008 39.384 31 39.828 29.992 39.828Z" fill="#2F2F2F"/>
</svg>
