<svg width="35" height="36" viewBox="0 0 35 36" fill="none" xmlns="http://www.w3.org/2000/svg">
<g id="thumbs-up.svg" clip-path="url(#clip0_6_989)">
<path id="Vector" d="M9.3024 34.9996H4.32096C3.44019 34.9996 2.59549 34.6498 1.97269 34.027C1.34989 33.4042 1 32.5595 1 31.6787V20.0553C1 19.1745 1.34989 18.3298 1.97269 17.707C2.59549 17.0842 3.44019 16.7344 4.32096 16.7344H9.3024M9.3024 34.9996V16.7344M9.3024 34.9996H28.0326C28.8335 35.0087 29.6107 34.728 30.221 34.2093C30.8312 33.6905 31.2335 32.9687 31.3536 32.1768L33.645 17.2325C33.7173 16.7565 33.6852 16.2706 33.551 15.8082C33.4167 15.3459 33.1836 14.9183 32.8677 14.555C32.5518 14.1917 32.1607 13.9015 31.7215 13.7043C31.2823 13.5072 30.8055 13.4079 30.3241 13.4134H20.9258V6.77148C20.9258 5.45032 20.4009 4.18327 19.4667 3.24907C18.5325 2.31487 17.2655 1.79004 15.9443 1.79004L9.3024 16.7344" stroke="#FFCB74" stroke-width="2" stroke-linecap="round" stroke-linejoin="round"/>
</g>
<defs>
<clipPath id="clip0_6_989">
<rect width="35" height="36" fill="white"/>
</clipPath>
</defs>
</svg>
