<svg width="16" height="13" viewBox="0 0 16 13" fill="none" xmlns="http://www.w3.org/2000/svg">
<mask id="path-1-outside-1_138_199" maskUnits="userSpaceOnUse" x="-1" y="-1" width="18" height="15" fill="black">
<rect fill="white" x="-1" y="-1" width="18" height="15"/>
<path d="M5.04 12.208C2.272 12.208 0.512 9.952 0.512 6.4C0.512 2.848 2.272 0.591999 5.04 0.591999C7.824 0.591999 9.584 2.848 9.584 6.4C9.584 9.952 7.824 12.208 5.04 12.208ZM5.04 10.048C6.384 10.048 7.152 8.72 7.152 6.4C7.152 4.08 6.384 2.752 5.04 2.752C3.712 2.752 2.944 4.08 2.944 6.4C2.944 8.72 3.712 10.048 5.04 10.048ZM13.1338 0.799999H15.3258V12H12.9738V4.512C12.3338 4.96 11.4538 5.216 10.4778 5.216V3.328C12.0778 3.264 13.1338 2.304 13.1338 0.799999Z"/>
</mask>
<path d="M5.04 11.208C3.9562 11.208 3.11826 10.7799 2.52659 10.0211C1.91495 9.23669 1.512 8.02271 1.512 6.4H-0.488C-0.488 8.32929 -0.010954 10.0193 0.949407 11.2509C1.92974 12.5081 3.3558 13.208 5.04 13.208V11.208ZM1.512 6.4C1.512 4.77729 1.91495 3.56331 2.52659 2.77891C3.11826 2.02013 3.9562 1.592 5.04 1.592V-0.408001C3.3558 -0.408001 1.92974 0.291868 0.949407 1.54908C-0.010954 2.78069 -0.488 4.47071 -0.488 6.4H1.512ZM5.04 1.592C6.13368 1.592 6.97541 2.02163 7.56817 2.77989C8.18104 3.56386 8.584 4.77724 8.584 6.4H10.584C10.584 4.47076 10.107 2.78014 9.14384 1.54811C8.1606 0.290365 6.73032 -0.408001 5.04 -0.408001V1.592ZM8.584 6.4C8.584 8.02276 8.18104 9.23614 7.56817 10.0201C6.97541 10.7784 6.13368 11.208 5.04 11.208V13.208C6.73032 13.208 8.1606 12.5096 9.14384 11.2519C10.107 10.0199 10.584 8.32924 10.584 6.4H8.584ZM5.04 11.048C6.11234 11.048 6.94961 10.4863 7.46549 9.59493C7.94983 8.7581 8.152 7.64577 8.152 6.4H6.152C6.152 7.47423 5.97017 8.1859 5.73451 8.59307C5.53039 8.94574 5.31166 9.048 5.04 9.048V11.048ZM8.152 6.4C8.152 5.15423 7.94983 4.0419 7.46549 3.20507C6.94961 2.31374 6.11234 1.752 5.04 1.752V3.752C5.31166 3.752 5.53039 3.85426 5.73451 4.20693C5.97017 4.6141 6.152 5.32577 6.152 6.4H8.152ZM5.04 1.752C3.97088 1.752 3.1388 2.31848 2.6273 3.20716C2.14629 4.0429 1.944 5.15393 1.944 6.4H3.944C3.944 5.32607 4.12571 4.6131 4.3607 4.20484C4.5652 3.84952 4.78113 3.752 5.04 3.752V1.752ZM1.944 6.4C1.944 7.64607 2.14629 8.7571 2.6273 9.59284C3.1388 10.4815 3.97088 11.048 5.04 11.048V9.048C4.78113 9.048 4.5652 8.95048 4.3607 8.59516C4.12571 8.1869 3.944 7.47393 3.944 6.4H1.944ZM13.1337 0.799999V-0.200001H12.1337V0.799999H13.1337ZM15.3258 0.799999H16.3258V-0.200001H15.3258V0.799999ZM15.3258 12V13H16.3258V12H15.3258ZM12.9738 12H11.9738V13H12.9738V12ZM12.9738 4.512H13.9738V2.59134L12.4003 3.69277L12.9738 4.512ZM10.4777 5.216H9.47775V6.216H10.4777V5.216ZM10.4777 3.328L10.4378 2.3288L9.47775 2.3672V3.328H10.4777ZM13.1337 1.8H15.3258V-0.200001H13.1337V1.8ZM14.3258 0.799999V12H16.3258V0.799999H14.3258ZM15.3258 11H12.9738V13H15.3258V11ZM13.9738 12V4.512H11.9738V12H13.9738ZM12.4003 3.69277C11.9593 4.00143 11.2899 4.216 10.4777 4.216V6.216C11.6176 6.216 12.7082 5.91857 13.5472 5.33123L12.4003 3.69277ZM11.4777 5.216V3.328H9.47775V5.216H11.4777ZM10.5177 4.3272C11.5051 4.28771 12.4159 3.96665 13.0905 3.33275C13.7756 2.68905 14.1337 1.79947 14.1337 0.799999H12.1337C12.1337 1.30453 11.9639 1.64695 11.721 1.87525C11.4676 2.11335 11.0504 2.30429 10.4378 2.3288L10.5177 4.3272Z" fill="#D83957" mask="url(#path-1-outside-1_138_199)"/>
</svg>
