<svg width="19" height="13" viewBox="0 0 19 13" fill="none" xmlns="http://www.w3.org/2000/svg">
<mask id="path-1-outside-1_138_202" maskUnits="userSpaceOnUse" x="-1" y="-1" width="21" height="15" fill="black">
<rect fill="white" x="-1" y="-1" width="21" height="15"/>
<path d="M5.04 12.208C2.272 12.208 0.512 9.952 0.512 6.4C0.512 2.848 2.272 0.591999 5.04 0.591999C7.824 0.591999 9.584 2.848 9.584 6.4C9.584 9.952 7.824 12.208 5.04 12.208ZM5.04 10.048C6.384 10.048 7.152 8.72 7.152 6.4C7.152 4.08 6.384 2.752 5.04 2.752C3.712 2.752 2.944 4.08 2.944 6.4C2.944 8.72 3.712 10.048 5.04 10.048ZM10.5098 12V10.256C12.2698 9.184 15.8538 6.432 15.8538 4.144C15.8538 3.28 15.2938 2.736 14.4618 2.736C13.6138 2.736 12.9258 3.328 12.7338 4.656L10.3978 4.224C10.7018 1.984 12.3018 0.608 14.4618 0.608C16.5578 0.608 18.2698 1.872 18.2698 4.032C18.2698 6.56 15.9818 8.528 14.0938 9.904H18.5098V12H10.5098Z"/>
</mask>
<path d="M5.04 11.208C3.9562 11.208 3.11826 10.7799 2.52659 10.0211C1.91495 9.23669 1.512 8.02271 1.512 6.4H-0.488C-0.488 8.32929 -0.010954 10.0193 0.949407 11.2509C1.92974 12.5081 3.3558 13.208 5.04 13.208V11.208ZM1.512 6.4C1.512 4.77729 1.91495 3.56331 2.52659 2.77891C3.11826 2.02013 3.9562 1.592 5.04 1.592V-0.408001C3.3558 -0.408001 1.92974 0.291868 0.949407 1.54908C-0.010954 2.78069 -0.488 4.47071 -0.488 6.4H1.512ZM5.04 1.592C6.13368 1.592 6.97541 2.02163 7.56817 2.77989C8.18104 3.56386 8.584 4.77724 8.584 6.4H10.584C10.584 4.47076 10.107 2.78014 9.14384 1.54811C8.1606 0.290365 6.73032 -0.408001 5.04 -0.408001V1.592ZM8.584 6.4C8.584 8.02276 8.18104 9.23614 7.56817 10.0201C6.97541 10.7784 6.13368 11.208 5.04 11.208V13.208C6.73032 13.208 8.1606 12.5096 9.14384 11.2519C10.107 10.0199 10.584 8.32924 10.584 6.4H8.584ZM5.04 11.048C6.11234 11.048 6.94961 10.4863 7.46549 9.59493C7.94983 8.7581 8.152 7.64577 8.152 6.4H6.152C6.152 7.47423 5.97017 8.1859 5.73451 8.59307C5.53039 8.94574 5.31166 9.048 5.04 9.048V11.048ZM8.152 6.4C8.152 5.15423 7.94983 4.0419 7.46549 3.20507C6.94961 2.31374 6.11234 1.752 5.04 1.752V3.752C5.31166 3.752 5.53039 3.85426 5.73451 4.20693C5.97017 4.6141 6.152 5.32577 6.152 6.4H8.152ZM5.04 1.752C3.97088 1.752 3.1388 2.31848 2.6273 3.20716C2.14629 4.0429 1.944 5.15393 1.944 6.4H3.944C3.944 5.32607 4.12571 4.6131 4.3607 4.20484C4.5652 3.84952 4.78113 3.752 5.04 3.752V1.752ZM1.944 6.4C1.944 7.64607 2.14629 8.7571 2.6273 9.59284C3.1388 10.4815 3.97088 11.048 5.04 11.048V9.048C4.78113 9.048 4.5652 8.95048 4.3607 8.59516C4.12571 8.1869 3.944 7.47393 3.944 6.4H1.944ZM10.5098 12H9.50975V13H10.5098V12ZM10.5098 10.256L9.98956 9.40195L9.50975 9.6942V10.256H10.5098ZM12.7338 4.656L12.5519 5.63933L13.5746 5.82846L13.7235 4.79909L12.7338 4.656ZM10.3977 4.224L9.40683 4.08952L9.27865 5.034L10.2159 5.20733L10.3977 4.224ZM14.0938 9.904L13.5048 9.09586L11.0238 10.904H14.0938V9.904ZM18.5098 9.904H19.5098V8.904H18.5098V9.904ZM18.5098 12V13H19.5098V12H18.5098ZM11.5098 12V10.256H9.50975V12H11.5098ZM11.0299 11.11C11.9606 10.5432 13.3626 9.54082 14.5463 8.36565C15.1386 7.77757 15.7007 7.12225 16.1202 6.43388C16.5347 5.75366 16.8538 4.96956 16.8538 4.144H14.8538C14.8538 4.46244 14.7248 4.88033 14.4123 5.39312C14.1048 5.89775 13.6609 6.42643 13.1372 6.94635C12.0889 7.98718 10.8189 8.89678 9.98956 9.40195L11.0299 11.11ZM16.8538 4.144C16.8538 3.49134 16.6377 2.86975 16.1769 2.40889C15.7167 1.94872 15.0995 1.736 14.4618 1.736V3.736C14.656 3.736 14.7348 3.79528 14.7626 3.82311C14.7898 3.85025 14.8538 3.93266 14.8538 4.144H16.8538ZM14.4618 1.736C13.7876 1.736 13.1361 1.97959 12.631 2.5048C12.1421 3.01317 11.8599 3.71122 11.744 4.51291L13.7235 4.79909C13.7996 4.27278 13.9574 4.01083 14.0725 3.8912C14.1714 3.78841 14.2879 3.736 14.4618 3.736V1.736ZM12.9156 3.67267L10.5796 3.24067L10.2159 5.20733L12.5519 5.63933L12.9156 3.67267ZM11.3887 4.35848C11.5123 3.44786 11.888 2.77303 12.395 2.32621C12.9018 1.87947 13.5994 1.608 14.4618 1.608V-0.392C13.1641 -0.392 11.9817 0.0245247 11.0725 0.825791C10.1635 1.62696 9.58725 2.76014 9.40683 4.08952L11.3887 4.35848ZM14.4618 1.608C15.3159 1.608 16.0256 1.86558 16.5044 2.27221C16.9661 2.66428 17.2698 3.23939 17.2698 4.032H19.2698C19.2698 2.66461 18.7174 1.52772 17.7991 0.747788C16.8979 -0.017584 15.7036 -0.392 14.4618 -0.392V1.608ZM17.2698 4.032C17.2698 4.97996 16.8425 5.88529 16.1182 6.76385C15.3922 7.64441 14.4308 8.42097 13.5048 9.09586L14.6827 10.7121C15.6447 10.011 16.7713 9.11559 17.6613 8.03615C18.553 6.95471 19.2698 5.61204 19.2698 4.032H17.2698ZM14.0938 10.904H18.5098V8.904H14.0938V10.904ZM17.5098 9.904V12H19.5098V9.904H17.5098ZM18.5098 11H10.5098V13H18.5098V11Z" fill="#D83957" mask="url(#path-1-outside-1_138_202)"/>
</svg>
