<svg width="19" height="13" viewBox="0 0 19 13" fill="none" xmlns="http://www.w3.org/2000/svg">
<mask id="path-1-outside-1_138_209" maskUnits="userSpaceOnUse" x="-1" y="-1" width="21" height="15" fill="black">
<rect fill="white" x="-1" y="-1" width="21" height="15"/>
<path d="M5.04 12.208C2.272 12.208 0.512 9.952 0.512 6.4C0.512 2.848 2.272 0.591999 5.04 0.591999C7.824 0.591999 9.584 2.848 9.584 6.4C9.584 9.952 7.824 12.208 5.04 12.208ZM5.04 10.048C6.384 10.048 7.152 8.72 7.152 6.4C7.152 4.08 6.384 2.752 5.04 2.752C3.712 2.752 2.944 4.08 2.944 6.4C2.944 8.72 3.712 10.048 5.04 10.048ZM14.6538 12.192C12.7498 12.192 11.0218 11.2 10.4458 9.296L12.5738 8.736C12.9418 9.552 13.5978 10.048 14.6378 10.048C15.7578 10.048 16.5098 9.328 16.5098 8.176C16.5098 7.12 15.8538 6.432 14.7818 6.432C14.1738 6.432 13.6298 6.624 13.2298 6.88L12.4938 5.568L15.3418 2.912H10.9898V0.799999H18.2538V2.544L15.6778 4.816H15.7898C17.6458 4.912 18.9418 6.256 18.9418 8.24C18.9418 10.72 16.9738 12.192 14.6538 12.192Z"/>
</mask>
<path d="M5.04 11.208C3.9562 11.208 3.11826 10.7799 2.52659 10.0211C1.91495 9.23669 1.512 8.02271 1.512 6.4H-0.488C-0.488 8.32929 -0.010954 10.0193 0.949407 11.2509C1.92974 12.5081 3.3558 13.208 5.04 13.208V11.208ZM1.512 6.4C1.512 4.77729 1.91495 3.56331 2.52659 2.77891C3.11826 2.02013 3.9562 1.592 5.04 1.592V-0.408001C3.3558 -0.408001 1.92974 0.291868 0.949407 1.54908C-0.010954 2.78069 -0.488 4.47071 -0.488 6.4H1.512ZM5.04 1.592C6.13368 1.592 6.97541 2.02163 7.56817 2.77989C8.18104 3.56386 8.584 4.77724 8.584 6.4H10.584C10.584 4.47076 10.107 2.78014 9.14384 1.54811C8.1606 0.290365 6.73032 -0.408001 5.04 -0.408001V1.592ZM8.584 6.4C8.584 8.02276 8.18104 9.23614 7.56817 10.0201C6.97541 10.7784 6.13368 11.208 5.04 11.208V13.208C6.73032 13.208 8.1606 12.5096 9.14384 11.2519C10.107 10.0199 10.584 8.32924 10.584 6.4H8.584ZM5.04 11.048C6.11234 11.048 6.94961 10.4863 7.46549 9.59493C7.94983 8.7581 8.152 7.64577 8.152 6.4H6.152C6.152 7.47423 5.97017 8.1859 5.73451 8.59307C5.53039 8.94574 5.31166 9.048 5.04 9.048V11.048ZM8.152 6.4C8.152 5.15423 7.94983 4.0419 7.46549 3.20507C6.94961 2.31374 6.11234 1.752 5.04 1.752V3.752C5.31166 3.752 5.53039 3.85426 5.73451 4.20693C5.97017 4.6141 6.152 5.32577 6.152 6.4H8.152ZM5.04 1.752C3.97088 1.752 3.1388 2.31848 2.6273 3.20716C2.14629 4.0429 1.944 5.15393 1.944 6.4H3.944C3.944 5.32607 4.12571 4.6131 4.3607 4.20484C4.5652 3.84952 4.78113 3.752 5.04 3.752V1.752ZM1.944 6.4C1.944 7.64607 2.14629 8.7571 2.6273 9.59284C3.1388 10.4815 3.97088 11.048 5.04 11.048V9.048C4.78113 9.048 4.5652 8.95048 4.3607 8.59516C4.12571 8.1869 3.944 7.47393 3.944 6.4H1.944ZM10.4458 9.296L10.1913 8.32893L9.18828 8.59287L9.48859 9.58556L10.4458 9.296ZM12.5737 8.736L13.4853 8.32489L13.1375 7.5536L12.3193 7.76893L12.5737 8.736ZM13.2297 6.88L12.3576 7.36925L12.8761 8.29358L13.7688 7.72227L13.2297 6.88ZM12.4937 5.568L11.8117 4.83667L11.2374 5.37231L11.6216 6.05725L12.4937 5.568ZM15.3418 2.912L16.0238 3.64333L17.8803 1.912H15.3418V2.912ZM10.9897 2.912H9.98975V3.912H10.9897V2.912ZM10.9897 0.799999V-0.200001H9.98975V0.799999H10.9897ZM18.2537 0.799999H19.2537V-0.200001H18.2537V0.799999ZM18.2537 2.544L18.9152 3.29397L19.2537 2.99539V2.544H18.2537ZM15.6777 4.816L15.0163 4.06603L13.0322 5.816H15.6777V4.816ZM15.7898 4.816L15.8414 3.81733L15.8156 3.816H15.7898V4.816ZM14.6538 11.192C13.0893 11.192 11.8242 10.3991 11.4029 9.00644L9.48859 9.58556C10.2193 12.0009 12.4102 13.192 14.6538 13.192V11.192ZM10.7002 10.2631L12.8282 9.70307L12.3193 7.76893L10.1913 8.32893L10.7002 10.2631ZM11.6622 9.14711C11.9072 9.6904 12.2735 10.1807 12.8002 10.5308C13.3295 10.8826 13.9535 11.048 14.6378 11.048V9.048C14.282 9.048 14.058 8.96538 13.9073 8.8652C13.754 8.76326 13.6083 8.5976 13.4853 8.32489L11.6622 9.14711ZM14.6378 11.048C15.4147 11.048 16.1509 10.7944 16.6965 10.2554C17.2441 9.71455 17.5098 8.97504 17.5098 8.176H15.5098C15.5098 8.52896 15.3994 8.72545 15.291 8.83257C15.1806 8.9416 14.9808 9.048 14.6378 9.048V11.048ZM17.5098 8.176C17.5098 7.43981 17.2775 6.73396 16.7619 6.20798C16.2436 5.67927 15.5367 5.432 14.7817 5.432V7.432C15.0988 7.432 15.2559 7.52873 15.3336 7.60802C15.414 7.69003 15.5098 7.85619 15.5098 8.176H17.5098ZM14.7817 5.432C13.9668 5.432 13.2377 5.68767 12.6907 6.03773L13.7688 7.72227C14.0218 7.56033 14.3807 7.432 14.7817 7.432V5.432ZM14.1019 6.39075L13.3659 5.07875L11.6216 6.05725L12.3576 7.36925L14.1019 6.39075ZM13.1758 6.29933L16.0238 3.64333L14.6597 2.18067L11.8117 4.83667L13.1758 6.29933ZM15.3418 1.912H10.9897V3.912H15.3418V1.912ZM11.9897 2.912V0.799999H9.98975V2.912H11.9897ZM10.9897 1.8H18.2537V-0.200001H10.9897V1.8ZM17.2537 0.799999V2.544H19.2537V0.799999H17.2537ZM17.5923 1.79403L15.0163 4.06603L16.3392 5.56597L18.9152 3.29397L17.5923 1.79403ZM15.6777 5.816H15.7898V3.816H15.6777V5.816ZM15.7381 5.81466C16.4314 5.85052 16.9674 6.11285 17.3305 6.50214C17.694 6.89181 17.9417 7.47068 17.9417 8.24H19.9417C19.9417 7.02532 19.5415 5.94019 18.793 5.13786C18.0441 4.33515 17.0041 3.87747 15.8414 3.81733L15.7381 5.81466ZM17.9417 8.24C17.9417 9.1937 17.5729 9.90475 17.0127 10.3904C16.4375 10.8892 15.6083 11.192 14.6538 11.192V13.192C16.0192 13.192 17.334 12.7588 18.3228 11.9016C19.3266 11.0312 19.9417 9.7663 19.9417 8.24H17.9417Z" fill="#D83957" mask="url(#path-1-outside-1_138_209)"/>
</svg>
