<svg width="20" height="13" viewBox="0 0 20 13" fill="none" xmlns="http://www.w3.org/2000/svg">
<mask id="path-1-outside-1_138_216" maskUnits="userSpaceOnUse" x="-1" y="-1" width="22" height="15" fill="black">
<rect fill="white" x="-1" y="-1" width="22" height="15"/>
<path d="M5.04 12.208C2.272 12.208 0.512 9.952 0.512 6.4C0.512 2.848 2.272 0.591999 5.04 0.591999C7.824 0.591999 9.584 2.848 9.584 6.4C9.584 9.952 7.824 12.208 5.04 12.208ZM5.04 10.048C6.384 10.048 7.152 8.72 7.152 6.4C7.152 4.08 6.384 2.752 5.04 2.752C3.712 2.752 2.944 4.08 2.944 6.4C2.944 8.72 3.712 10.048 5.04 10.048ZM15.5498 12V10.064H10.3178V8.304L14.6378 0.799999H17.8058V8.096H19.1018V10.064H17.8058V12H15.5498ZM12.5898 8.096H15.5498V3.104H15.3578L12.5898 7.888V8.096Z"/>
</mask>
<path d="M5.04 11.208C3.9562 11.208 3.11826 10.7799 2.52659 10.0211C1.91495 9.23669 1.512 8.02271 1.512 6.4H-0.488C-0.488 8.32929 -0.010954 10.0193 0.949407 11.2509C1.92974 12.5081 3.3558 13.208 5.04 13.208V11.208ZM1.512 6.4C1.512 4.77729 1.91495 3.56331 2.52659 2.77891C3.11826 2.02013 3.9562 1.592 5.04 1.592V-0.408001C3.3558 -0.408001 1.92974 0.291868 0.949407 1.54908C-0.010954 2.78069 -0.488 4.47071 -0.488 6.4H1.512ZM5.04 1.592C6.13368 1.592 6.97541 2.02163 7.56817 2.77989C8.18104 3.56386 8.584 4.77724 8.584 6.4H10.584C10.584 4.47076 10.107 2.78014 9.14384 1.54811C8.1606 0.290365 6.73032 -0.408001 5.04 -0.408001V1.592ZM8.584 6.4C8.584 8.02276 8.18104 9.23614 7.56817 10.0201C6.97541 10.7784 6.13368 11.208 5.04 11.208V13.208C6.73032 13.208 8.1606 12.5096 9.14384 11.2519C10.107 10.0199 10.584 8.32924 10.584 6.4H8.584ZM5.04 11.048C6.11234 11.048 6.94961 10.4863 7.46549 9.59493C7.94983 8.7581 8.152 7.64577 8.152 6.4H6.152C6.152 7.47423 5.97017 8.1859 5.73451 8.59307C5.53039 8.94574 5.31166 9.048 5.04 9.048V11.048ZM8.152 6.4C8.152 5.15423 7.94983 4.0419 7.46549 3.20507C6.94961 2.31374 6.11234 1.752 5.04 1.752V3.752C5.31166 3.752 5.53039 3.85426 5.73451 4.20693C5.97017 4.6141 6.152 5.32577 6.152 6.4H8.152ZM5.04 1.752C3.97088 1.752 3.1388 2.31848 2.6273 3.20716C2.14629 4.0429 1.944 5.15393 1.944 6.4H3.944C3.944 5.32607 4.12571 4.6131 4.3607 4.20484C4.5652 3.84952 4.78113 3.752 5.04 3.752V1.752ZM1.944 6.4C1.944 7.64607 2.14629 8.7571 2.6273 9.59284C3.1388 10.4815 3.97088 11.048 5.04 11.048V9.048C4.78113 9.048 4.5652 8.95048 4.3607 8.59516C4.12571 8.1869 3.944 7.47393 3.944 6.4H1.944ZM15.5498 12H14.5498V13H15.5498V12ZM15.5498 10.064H16.5498V9.064H15.5498V10.064ZM10.3177 10.064H9.31775V11.064H10.3177V10.064ZM10.3177 8.304L9.4511 7.80508L9.31775 8.03672V8.304H10.3177ZM14.6378 0.799999V-0.200001H14.0596L13.7711 0.301077L14.6378 0.799999ZM17.8057 0.799999H18.8057V-0.200001H17.8057V0.799999ZM17.8057 8.096H16.8057V9.096H17.8057V8.096ZM19.1017 8.096H20.1017V7.096H19.1017V8.096ZM19.1017 10.064V11.064H20.1017V10.064H19.1017ZM17.8057 10.064V9.064H16.8057V10.064H17.8057ZM17.8057 12V13H18.8057V12H17.8057ZM12.5898 8.096H11.5898V9.096H12.5898V8.096ZM15.5498 8.096V9.096H16.5498V8.096H15.5498ZM15.5498 3.104H16.5498V2.104H15.5498V3.104ZM15.3577 3.104V2.104H14.781L14.4922 2.60319L15.3577 3.104ZM12.5898 7.888L11.7242 7.38719L11.5898 7.61955V7.888H12.5898ZM16.5498 12V10.064H14.5498V12H16.5498ZM15.5498 9.064H10.3177V11.064H15.5498V9.064ZM11.3177 10.064V8.304H9.31775V10.064H11.3177ZM11.1844 8.80292L15.5044 1.29892L13.7711 0.301077L9.4511 7.80508L11.1844 8.80292ZM14.6378 1.8H17.8057V-0.200001H14.6378V1.8ZM16.8057 0.799999V8.096H18.8057V0.799999H16.8057ZM17.8057 9.096H19.1017V7.096H17.8057V9.096ZM18.1017 8.096V10.064H20.1017V8.096H18.1017ZM19.1017 9.064H17.8057V11.064H19.1017V9.064ZM16.8057 10.064V12H18.8057V10.064H16.8057ZM17.8057 11H15.5498V13H17.8057V11ZM12.5898 9.096H15.5498V7.096H12.5898V9.096ZM16.5498 8.096V3.104H14.5498V8.096H16.5498ZM15.5498 2.104H15.3577V4.104H15.5498V2.104ZM14.4922 2.60319L11.7242 7.38719L13.4553 8.38881L16.2233 3.60481L14.4922 2.60319ZM11.5898 7.888V8.096H13.5898V7.888H11.5898Z" fill="#D83957" mask="url(#path-1-outside-1_138_216)"/>
</svg>
