<svg width="19" height="13" viewBox="0 0 19 13" fill="none" xmlns="http://www.w3.org/2000/svg">
<mask id="path-1-outside-1_138_223" maskUnits="userSpaceOnUse" x="-1" y="-1" width="21" height="15" fill="black">
<rect fill="white" x="-1" y="-1" width="21" height="15"/>
<path d="M5.04 12.208C2.272 12.208 0.512 9.952 0.512 6.4C0.512 2.848 2.272 0.591999 5.04 0.591999C7.824 0.591999 9.584 2.848 9.584 6.4C9.584 9.952 7.824 12.208 5.04 12.208ZM5.04 10.048C6.384 10.048 7.152 8.72 7.152 6.4C7.152 4.08 6.384 2.752 5.04 2.752C3.712 2.752 2.944 4.08 2.944 6.4C2.944 8.72 3.712 10.048 5.04 10.048ZM14.7338 12.192C12.8138 12.192 11.0698 11.2 10.4778 9.296L12.6858 8.736C13.0378 9.568 13.7418 10.048 14.7178 10.048C15.9338 10.048 16.5898 9.328 16.5898 8.176C16.5898 7.008 15.8378 6.432 14.7977 6.432C14.0138 6.432 13.3258 6.736 12.8298 7.232L11.0378 6.624L11.6938 0.799999H18.2378V2.912H13.4858L13.2298 5.248C13.8538 4.832 14.5738 4.608 15.4218 4.608C17.5338 4.608 18.9738 5.92 18.9738 8.128C18.9738 10.512 17.2618 12.192 14.7338 12.192Z"/>
</mask>
<path d="M5.04 11.208C3.9562 11.208 3.11826 10.7799 2.52659 10.0211C1.91495 9.23669 1.512 8.02271 1.512 6.4H-0.488C-0.488 8.32929 -0.010954 10.0193 0.949407 11.2509C1.92974 12.5081 3.3558 13.208 5.04 13.208V11.208ZM1.512 6.4C1.512 4.77729 1.91495 3.56331 2.52659 2.77891C3.11826 2.02013 3.9562 1.592 5.04 1.592V-0.408001C3.3558 -0.408001 1.92974 0.291868 0.949407 1.54908C-0.010954 2.78069 -0.488 4.47071 -0.488 6.4H1.512ZM5.04 1.592C6.13368 1.592 6.97541 2.02163 7.56817 2.77989C8.18104 3.56386 8.584 4.77724 8.584 6.4H10.584C10.584 4.47076 10.107 2.78014 9.14384 1.54811C8.1606 0.290365 6.73032 -0.408001 5.04 -0.408001V1.592ZM8.584 6.4C8.584 8.02276 8.18104 9.23614 7.56817 10.0201C6.97541 10.7784 6.13368 11.208 5.04 11.208V13.208C6.73032 13.208 8.1606 12.5096 9.14384 11.2519C10.107 10.0199 10.584 8.32924 10.584 6.4H8.584ZM5.04 11.048C6.11234 11.048 6.94961 10.4863 7.46549 9.59493C7.94983 8.7581 8.152 7.64577 8.152 6.4H6.152C6.152 7.47423 5.97017 8.1859 5.73451 8.59307C5.53039 8.94574 5.31166 9.048 5.04 9.048V11.048ZM8.152 6.4C8.152 5.15423 7.94983 4.0419 7.46549 3.20507C6.94961 2.31374 6.11234 1.752 5.04 1.752V3.752C5.31166 3.752 5.53039 3.85426 5.73451 4.20693C5.97017 4.6141 6.152 5.32577 6.152 6.4H8.152ZM5.04 1.752C3.97088 1.752 3.1388 2.31848 2.6273 3.20716C2.14629 4.0429 1.944 5.15393 1.944 6.4H3.944C3.944 5.32607 4.12571 4.6131 4.3607 4.20484C4.5652 3.84952 4.78113 3.752 5.04 3.752V1.752ZM1.944 6.4C1.944 7.64607 2.14629 8.7571 2.6273 9.59284C3.1388 10.4815 3.97088 11.048 5.04 11.048V9.048C4.78113 9.048 4.5652 8.95048 4.3607 8.59516C4.12571 8.1869 3.944 7.47393 3.944 6.4H1.944ZM10.4777 9.296L10.2319 8.32669L9.20975 8.58593L9.52284 9.5929L10.4777 9.296ZM12.6858 8.736L13.6067 8.34636L13.2722 7.55561L12.4399 7.76669L12.6858 8.736ZM12.8298 7.232L12.5085 8.17898L13.0972 8.37874L13.5369 7.93911L12.8298 7.232ZM11.0378 6.624L10.044 6.51207L9.9539 7.31226L10.7165 7.57098L11.0378 6.624ZM11.6938 0.799999V-0.200001H10.8001L10.7 0.68807L11.6938 0.799999ZM18.2378 0.799999H19.2378V-0.200001H18.2378V0.799999ZM18.2378 2.912V3.912H19.2378V2.912H18.2378ZM13.4858 2.912V1.912H12.5894L12.4917 2.80306L13.4858 2.912ZM13.2297 5.248L12.2357 5.13906L12.0024 7.26809L13.7845 6.08005L13.2297 5.248ZM14.7338 11.192C13.1489 11.192 11.8665 10.3944 11.4327 8.9991L9.52284 9.5929C10.273 12.0056 12.4786 13.192 14.7338 13.192V11.192ZM10.7236 10.2653L12.9316 9.70531L12.4399 7.76669L10.2319 8.32669L10.7236 10.2653ZM11.7648 9.12564C12.2767 10.3356 13.3487 11.048 14.7178 11.048V9.048C14.1348 9.048 13.7988 8.80044 13.6067 8.34636L11.7648 9.12564ZM14.7178 11.048C15.5242 11.048 16.277 10.8047 16.8256 10.2422C17.3701 9.68392 17.5898 8.93798 17.5898 8.176H15.5898C15.5898 8.56602 15.4814 8.75607 15.3939 8.84579C15.3105 8.93127 15.1273 9.048 14.7178 9.048V11.048ZM17.5898 8.176C17.5898 7.36757 17.3219 6.64174 16.7576 6.12711C16.2079 5.62581 15.4943 5.432 14.7978 5.432V7.432C15.1412 7.432 15.3236 7.52619 15.4099 7.60489C15.4816 7.67026 15.5898 7.81643 15.5898 8.176H17.5898ZM14.7978 5.432C13.7468 5.432 12.8049 5.84262 12.1226 6.52489L13.5369 7.93911C13.8466 7.62938 14.2807 7.432 14.7978 7.432V5.432ZM13.151 6.28502L11.359 5.67702L10.7165 7.57098L12.5085 8.17898L13.151 6.28502ZM12.0315 6.73593L12.6875 0.911929L10.7 0.68807L10.044 6.51207L12.0315 6.73593ZM11.6938 1.8H18.2378V-0.200001H11.6938V1.8ZM17.2378 0.799999V2.912H19.2378V0.799999H17.2378ZM18.2378 1.912H13.4858V3.912H18.2378V1.912ZM12.4917 2.80306L12.2357 5.13906L14.2238 5.35694L14.4798 3.02094L12.4917 2.80306ZM13.7845 6.08005C14.2378 5.77783 14.7633 5.608 15.4218 5.608V3.608C14.3842 3.608 13.4697 3.88617 12.675 4.41595L13.7845 6.08005ZM15.4218 5.608C16.2706 5.608 16.8913 5.86851 17.2943 6.25853C17.6924 6.64396 17.9738 7.24815 17.9738 8.128H19.9738C19.9738 6.79985 19.5351 5.64404 18.6852 4.82147C17.8402 4.00349 16.6849 3.608 15.4218 3.608V5.608ZM17.9738 8.128C17.9738 9.07226 17.6397 9.8207 17.1073 10.3344C16.5728 10.8503 15.7726 11.192 14.7338 11.192V13.192C16.2229 13.192 17.5427 12.6937 18.4962 11.7736C19.4518 10.8513 19.9738 9.56774 19.9738 8.128H17.9738Z" fill="#D83957" mask="url(#path-1-outside-1_138_223)"/>
</svg>
