<svg width="20" height="13" viewBox="0 0 20 13" fill="none" xmlns="http://www.w3.org/2000/svg">
<mask id="path-1-outside-1_138_230" maskUnits="userSpaceOnUse" x="-1" y="-1" width="22" height="15" fill="black">
<rect fill="white" x="-1" y="-1" width="22" height="15"/>
<path d="M5.04 12.208C2.272 12.208 0.512 9.952 0.512 6.4C0.512 2.848 2.272 0.591999 5.04 0.591999C7.824 0.591999 9.584 2.848 9.584 6.4C9.584 9.952 7.824 12.208 5.04 12.208ZM5.04 10.048C6.384 10.048 7.152 8.72 7.152 6.4C7.152 4.08 6.384 2.752 5.04 2.752C3.712 2.752 2.944 4.08 2.944 6.4C2.944 8.72 3.712 10.048 5.04 10.048ZM19.1498 3.328L16.9258 3.84C16.5898 2.992 16.0138 2.576 15.2138 2.576C13.4378 2.576 12.9578 4.448 12.9578 5.888C13.6778 5.104 14.7498 4.736 15.7898 4.736C17.8378 4.736 19.4698 6.08 19.4698 8.288C19.4698 10.592 17.6938 12.208 15.1658 12.208C12.3018 12.208 10.6058 10.112 10.6058 6.496C10.6058 2.832 12.3338 0.591999 15.1978 0.591999C17.1178 0.591999 18.5898 1.6 19.1498 3.328ZM13.0698 8.128C13.3098 9.376 14.0458 10.096 15.1498 10.096C16.3178 10.096 17.1178 9.312 17.1178 8.208C17.1178 7.168 16.3498 6.496 15.2778 6.496C14.3658 6.496 13.4378 6.928 13.0698 7.728C13.0538 7.856 13.0538 7.984 13.0698 8.128Z"/>
</mask>
<path d="M5.04 11.208C3.9562 11.208 3.11826 10.7799 2.52659 10.0211C1.91495 9.23669 1.512 8.02271 1.512 6.4H-0.488C-0.488 8.32929 -0.010954 10.0193 0.949407 11.2509C1.92974 12.5081 3.3558 13.208 5.04 13.208V11.208ZM1.512 6.4C1.512 4.77729 1.91495 3.56331 2.52659 2.77891C3.11826 2.02013 3.9562 1.592 5.04 1.592V-0.408001C3.3558 -0.408001 1.92974 0.291868 0.949407 1.54908C-0.010954 2.78069 -0.488 4.47071 -0.488 6.4H1.512ZM5.04 1.592C6.13368 1.592 6.97541 2.02163 7.56817 2.77989C8.18104 3.56386 8.584 4.77724 8.584 6.4H10.584C10.584 4.47076 10.107 2.78014 9.14384 1.54811C8.1606 0.290365 6.73032 -0.408001 5.04 -0.408001V1.592ZM8.584 6.4C8.584 8.02276 8.18104 9.23614 7.56817 10.0201C6.97541 10.7784 6.13368 11.208 5.04 11.208V13.208C6.73032 13.208 8.1606 12.5096 9.14384 11.2519C10.107 10.0199 10.584 8.32924 10.584 6.4H8.584ZM5.04 11.048C6.11234 11.048 6.94961 10.4863 7.46549 9.59493C7.94983 8.7581 8.152 7.64577 8.152 6.4H6.152C6.152 7.47423 5.97017 8.1859 5.73451 8.59307C5.53039 8.94574 5.31166 9.048 5.04 9.048V11.048ZM8.152 6.4C8.152 5.15423 7.94983 4.0419 7.46549 3.20507C6.94961 2.31374 6.11234 1.752 5.04 1.752V3.752C5.31166 3.752 5.53039 3.85426 5.73451 4.20693C5.97017 4.6141 6.152 5.32577 6.152 6.4H8.152ZM5.04 1.752C3.97088 1.752 3.1388 2.31848 2.6273 3.20716C2.14629 4.0429 1.944 5.15393 1.944 6.4H3.944C3.944 5.32607 4.12571 4.6131 4.3607 4.20484C4.5652 3.84952 4.78113 3.752 5.04 3.752V1.752ZM1.944 6.4C1.944 7.64607 2.14629 8.7571 2.6273 9.59284C3.1388 10.4815 3.97088 11.048 5.04 11.048V9.048C4.78113 9.048 4.5652 8.95048 4.3607 8.59516C4.12571 8.1869 3.944 7.47393 3.944 6.4H1.944ZM19.1497 3.328L19.3741 4.30251L20.4374 4.05771L20.101 3.01971L19.1497 3.328ZM16.9258 3.84L15.9961 4.20836L16.3126 5.00731L17.1501 4.81451L16.9258 3.84ZM12.9578 5.888H11.9578V8.45529L13.6943 6.5644L12.9578 5.888ZM13.0697 8.128L12.0759 8.23843L12.0802 8.27787L12.0877 8.31685L13.0697 8.128ZM13.0697 7.728L12.1613 7.31009L12.0966 7.45055L12.0775 7.60396L13.0697 7.728ZM18.9254 2.35349L16.7014 2.86549L17.1501 4.81451L19.3741 4.30251L18.9254 2.35349ZM17.8554 3.47163C17.6367 2.91949 17.309 2.43154 16.8356 2.08395C16.3546 1.73079 15.7957 1.576 15.2138 1.576V3.576C15.4318 3.576 15.5609 3.6292 15.6519 3.69605C15.7505 3.76846 15.8788 3.91251 15.9961 4.20836L17.8554 3.47163ZM15.2138 1.576C13.8818 1.576 13.0135 2.31933 12.5354 3.22524C12.0873 4.07427 11.9578 5.08534 11.9578 5.888H13.9578C13.9578 5.25066 14.0682 4.60573 14.3041 4.15876C14.51 3.76867 14.7697 3.576 15.2138 3.576V1.576ZM13.6943 6.5644C14.1849 6.03016 14.9646 5.736 15.7898 5.736V3.736C14.5349 3.736 13.1706 4.17784 12.2212 5.21159L13.6943 6.5644ZM15.7898 5.736C16.5969 5.736 17.2645 5.99943 17.72 6.41931C18.1657 6.83012 18.4697 7.44537 18.4697 8.288H20.4697C20.4697 6.92263 19.9578 5.76187 19.0755 4.94869C18.203 4.14457 17.0306 3.736 15.7898 3.736V5.736ZM18.4697 8.288C18.4697 9.16923 18.1366 9.87717 17.5925 10.3726C17.0417 10.8741 16.2168 11.208 15.1658 11.208V13.208C16.6427 13.208 17.9698 12.7339 18.939 11.8514C19.9149 10.9628 20.4697 9.71077 20.4697 8.288H18.4697ZM15.1658 11.208C14.0001 11.208 13.1623 10.7943 12.5922 10.0827C11.9981 9.3413 11.6058 8.16274 11.6058 6.496H9.60575C9.60575 8.44526 10.0614 10.1227 11.0313 11.3333C12.0252 12.5737 13.4674 13.208 15.1658 13.208V11.208ZM11.6058 6.496C11.6058 4.80675 12.0056 3.57196 12.6178 2.78308C13.2063 2.02471 14.0545 1.592 15.1978 1.592V-0.408001C13.477 -0.408001 12.0292 0.279291 11.0377 1.55692C10.0699 2.80404 9.60575 4.52125 9.60575 6.496H11.6058ZM15.1978 1.592C16.7254 1.592 17.7844 2.35851 18.1985 3.63629L20.101 3.01971C19.3951 0.841488 17.5101 -0.408001 15.1978 -0.408001V1.592ZM12.0877 8.31685C12.2356 9.08562 12.5544 9.78706 13.0953 10.3034C13.6501 10.833 14.3648 11.096 15.1497 11.096V9.096C14.8307 9.096 14.6254 8.999 14.4762 8.85664C14.3131 8.70094 14.1439 8.41838 14.0518 7.93915L12.0877 8.31685ZM15.1497 11.096C15.9614 11.096 16.7124 10.8202 17.2663 10.2855C17.8223 9.74875 18.1178 9.01007 18.1178 8.208H16.1178C16.1178 8.50993 16.0132 8.71525 15.8772 8.84653C15.7391 8.97983 15.5061 9.096 15.1497 9.096V11.096ZM18.1178 8.208C18.1178 7.42791 17.8225 6.72488 17.2744 6.22391C16.7352 5.73097 16.0213 5.496 15.2778 5.496V7.496C15.6062 7.496 15.8123 7.59703 15.9251 7.70009C16.029 7.79512 16.1178 7.94809 16.1178 8.208H18.1178ZM15.2778 5.496C14.1132 5.496 12.7432 6.04504 12.1613 7.31009L13.9782 8.14591C14.1323 7.81096 14.6183 7.496 15.2778 7.496V5.496ZM12.0775 7.60396C12.0506 7.81865 12.0522 8.02589 12.0759 8.23843L14.0636 8.01757C14.0553 7.94211 14.0569 7.89335 14.062 7.85203L12.0775 7.60396Z" fill="#D83957" mask="url(#path-1-outside-1_138_230)"/>
</svg>
