<svg width="20" height="13" viewBox="0 0 20 13" fill="none" xmlns="http://www.w3.org/2000/svg">
<mask id="path-1-outside-1_138_266" maskUnits="userSpaceOnUse" x="-1" y="-1" width="22" height="15" fill="black">
<rect fill="white" x="-1" y="-1" width="22" height="15"/>
<path d="M5.04 12.208C2.272 12.208 0.512 9.952 0.512 6.4C0.512 2.848 2.272 0.591999 5.04 0.591999C7.824 0.591999 9.584 2.848 9.584 6.4C9.584 9.952 7.824 12.208 5.04 12.208ZM5.04 10.048C6.384 10.048 7.152 8.72 7.152 6.4C7.152 4.08 6.384 2.752 5.04 2.752C3.712 2.752 2.944 4.08 2.944 6.4C2.944 8.72 3.712 10.048 5.04 10.048ZM14.8298 12.192C12.1898 12.192 10.5098 10.896 10.5098 8.88C10.5098 7.552 11.2618 6.544 12.5258 6.016C11.5178 5.536 10.9578 4.672 10.9578 3.552C10.9578 1.744 12.4457 0.591999 14.8298 0.591999C17.1978 0.591999 18.6858 1.744 18.6858 3.552C18.6858 4.672 18.1258 5.536 17.1338 6.016C18.3978 6.544 19.1498 7.552 19.1498 8.88C19.1498 10.896 17.4698 12.192 14.8298 12.192ZM14.8298 5.2C15.8538 5.2 16.4778 4.72 16.4778 3.888C16.4778 3.056 15.8538 2.576 14.8298 2.576C13.7898 2.576 13.1818 3.056 13.1818 3.888C13.1818 4.72 13.7898 5.2 14.8298 5.2ZM14.8298 10.112C16.1098 10.112 16.8138 9.536 16.8138 8.576C16.8138 7.6 16.1098 7.024 14.8298 7.024C13.5658 7.024 12.8138 7.6 12.8138 8.576C12.8138 9.536 13.5658 10.112 14.8298 10.112Z"/>
</mask>
<path d="M5.04 11.208C3.9562 11.208 3.11826 10.7799 2.52659 10.0211C1.91495 9.23669 1.512 8.02271 1.512 6.4H-0.488C-0.488 8.32929 -0.010954 10.0193 0.949407 11.2509C1.92974 12.5081 3.3558 13.208 5.04 13.208V11.208ZM1.512 6.4C1.512 4.77729 1.91495 3.56331 2.52659 2.77891C3.11826 2.02013 3.9562 1.592 5.04 1.592V-0.408001C3.3558 -0.408001 1.92974 0.291868 0.949407 1.54908C-0.010954 2.78069 -0.488 4.47071 -0.488 6.4H1.512ZM5.04 1.592C6.13368 1.592 6.97541 2.02163 7.56817 2.77989C8.18104 3.56386 8.584 4.77724 8.584 6.4H10.584C10.584 4.47076 10.107 2.78014 9.14384 1.54811C8.1606 0.290365 6.73032 -0.408001 5.04 -0.408001V1.592ZM8.584 6.4C8.584 8.02276 8.18104 9.23614 7.56817 10.0201C6.97541 10.7784 6.13368 11.208 5.04 11.208V13.208C6.73032 13.208 8.1606 12.5096 9.14384 11.2519C10.107 10.0199 10.584 8.32924 10.584 6.4H8.584ZM5.04 11.048C6.11234 11.048 6.94961 10.4863 7.46549 9.59493C7.94983 8.7581 8.152 7.64577 8.152 6.4H6.152C6.152 7.47423 5.97017 8.1859 5.73451 8.59307C5.53039 8.94574 5.31166 9.048 5.04 9.048V11.048ZM8.152 6.4C8.152 5.15423 7.94983 4.0419 7.46549 3.20507C6.94961 2.31374 6.11234 1.752 5.04 1.752V3.752C5.31166 3.752 5.53039 3.85426 5.73451 4.20693C5.97017 4.6141 6.152 5.32577 6.152 6.4H8.152ZM5.04 1.752C3.97088 1.752 3.1388 2.31848 2.6273 3.20716C2.14629 4.0429 1.944 5.15393 1.944 6.4H3.944C3.944 5.32607 4.12571 4.6131 4.3607 4.20484C4.5652 3.84952 4.78113 3.752 5.04 3.752V1.752ZM1.944 6.4C1.944 7.64607 2.14629 8.7571 2.6273 9.59284C3.1388 10.4815 3.97088 11.048 5.04 11.048V9.048C4.78113 9.048 4.5652 8.95048 4.3607 8.59516C4.12571 8.1869 3.944 7.47393 3.944 6.4H1.944ZM12.5258 6.016L12.9112 6.93873L14.9771 6.07574L12.9557 5.11314L12.5258 6.016ZM17.1338 6.016L16.6982 5.11584L14.6996 6.08292L16.7483 6.93873L17.1338 6.016ZM14.8298 11.192C13.6612 11.192 12.8165 10.9041 12.2888 10.4989C11.7873 10.1137 11.5098 9.57983 11.5098 8.88H9.50975C9.50975 10.1962 10.0722 11.3183 11.0707 12.0851C12.043 12.8319 13.3583 13.192 14.8298 13.192V11.192ZM11.5098 8.88C11.5098 8.00705 11.9693 7.33219 12.9112 6.93873L12.1403 5.09327C10.5542 5.75581 9.50975 7.09695 9.50975 8.88H11.5098ZM12.9557 5.11314C12.2878 4.79508 11.9578 4.27732 11.9578 3.552H9.95775C9.95775 5.06668 10.7477 6.27692 12.0958 6.91886L12.9557 5.11314ZM11.9578 3.552C11.9578 2.95256 12.1901 2.50832 12.6084 2.18742C13.0543 1.84539 13.786 1.592 14.8298 1.592V-0.408001C13.4895 -0.408001 12.2852 -0.0853918 11.3911 0.600584C10.4694 1.30768 9.95775 2.34344 9.95775 3.552H11.9578ZM14.8298 1.592C15.8642 1.592 16.5917 1.84475 17.0359 2.18653C17.4531 2.50754 17.6857 2.9523 17.6857 3.552H19.6857C19.6857 2.3437 19.1744 1.30846 18.2556 0.601464C17.3638 -0.0847546 16.1633 -0.408001 14.8298 -0.408001V1.592ZM17.6857 3.552C17.6857 4.28006 17.3527 4.79913 16.6982 5.11584L17.5693 6.91616C18.8988 6.27287 19.6857 5.06394 19.6857 3.552H17.6857ZM16.7483 6.93873C17.6902 7.33219 18.1497 8.00705 18.1497 8.88H20.1497C20.1497 7.09695 19.1053 5.75581 17.5192 5.09327L16.7483 6.93873ZM18.1497 8.88C18.1497 9.57983 17.8722 10.1137 17.3707 10.4989C16.843 10.9041 15.9983 11.192 14.8298 11.192V13.192C16.3012 13.192 17.6165 12.8319 18.5888 12.0851C19.5873 11.3183 20.1497 10.1962 20.1497 8.88H18.1497ZM14.8298 6.2C15.4828 6.2 16.1406 6.04853 16.657 5.64117C17.2047 5.20917 17.4778 4.57927 17.4778 3.888H15.4778C15.4778 3.96977 15.4629 4.01066 15.4557 4.02619C15.4494 4.03984 15.4406 4.05341 15.4185 4.07083C15.3669 4.11147 15.2007 4.2 14.8298 4.2V6.2ZM17.4778 3.888C17.4778 3.19672 17.2047 2.56683 16.657 2.13483C16.1406 1.72747 15.4828 1.576 14.8298 1.576V3.576C15.2007 3.576 15.3669 3.66453 15.4185 3.70516C15.4406 3.72259 15.4494 3.73616 15.4557 3.74981C15.4629 3.76534 15.4778 3.80623 15.4778 3.888H17.4778ZM14.8298 1.576C14.172 1.576 13.5111 1.72604 12.9938 2.13697C12.4446 2.5732 12.1818 3.20514 12.1818 3.888H14.1818C14.1818 3.80262 14.197 3.7599 14.2042 3.744C14.2103 3.73049 14.2182 3.71858 14.2377 3.70303C14.2844 3.66596 14.4475 3.576 14.8298 3.576V1.576ZM12.1818 3.888C12.1818 4.57086 12.4446 5.2028 12.9938 5.63903C13.5111 6.04996 14.172 6.2 14.8298 6.2V4.2C14.4475 4.2 14.2844 4.11004 14.2377 4.07297C14.2182 4.05742 14.2103 4.04551 14.2042 4.032C14.197 4.0161 14.1818 3.97338 14.1818 3.888H12.1818ZM14.8298 11.112C15.6027 11.112 16.3471 10.9401 16.9196 10.4903C17.5257 10.0141 17.8138 9.32425 17.8138 8.576H15.8138C15.8138 8.78775 15.7498 8.86591 15.6839 8.91768C15.5844 8.99586 15.3368 9.112 14.8298 9.112V11.112ZM17.8138 8.576C17.8138 7.82509 17.5296 7.13062 16.9225 6.64995C16.3488 6.19578 15.6024 6.024 14.8298 6.024V8.024C15.3371 8.024 15.5827 8.14022 15.681 8.21805C15.7459 8.26938 15.8138 8.35091 15.8138 8.576H17.8138ZM14.8298 6.024C14.0621 6.024 13.3161 6.197 12.7383 6.64121C12.1266 7.11143 11.8138 7.80279 11.8138 8.576H13.8138C13.8138 8.37321 13.8769 8.28857 13.9572 8.22679C14.0714 8.139 14.3334 8.024 14.8298 8.024V6.024ZM11.8138 8.576C11.8138 9.3467 12.1309 10.0334 12.7412 10.499C13.3177 10.9389 14.0619 11.112 14.8298 11.112V9.112C14.3336 9.112 14.0698 8.99707 13.9543 8.90899C13.8726 8.84662 13.8138 8.7653 13.8138 8.576H11.8138Z" fill="#D83957" mask="url(#path-1-outside-1_138_266)"/>
</svg>
