<svg width="20" height="13" viewBox="0 0 20 13" fill="none" xmlns="http://www.w3.org/2000/svg">
<mask id="path-1-outside-1_138_273" maskUnits="userSpaceOnUse" x="-1" y="-1" width="22" height="15" fill="black">
<rect fill="white" x="-1" y="-1" width="22" height="15"/>
<path d="M5.04 12.208C2.272 12.208 0.512 9.952 0.512 6.4C0.512 2.848 2.272 0.591999 5.04 0.591999C7.824 0.591999 9.584 2.848 9.584 6.4C9.584 9.952 7.824 12.208 5.04 12.208ZM5.04 10.048C6.384 10.048 7.152 8.72 7.152 6.4C7.152 4.08 6.384 2.752 5.04 2.752C3.712 2.752 2.944 4.08 2.944 6.4C2.944 8.72 3.712 10.048 5.04 10.048ZM10.8778 9.472L13.1018 8.96C13.4378 9.808 14.0138 10.224 14.8138 10.224C16.5898 10.224 17.0698 8.352 17.0698 6.912C16.3498 7.696 15.2778 8.064 14.2378 8.064C12.1898 8.064 10.5578 6.72 10.5578 4.512C10.5578 2.208 12.3338 0.591999 14.8618 0.591999C17.7258 0.591999 19.4218 2.688 19.4218 6.304C19.4218 9.968 17.6938 12.208 14.8298 12.208C12.9098 12.208 11.4378 11.2 10.8778 9.472ZM16.9578 4.672C16.7178 3.424 15.9818 2.704 14.8778 2.704C13.7098 2.704 12.9098 3.488 12.9098 4.592C12.9098 5.632 13.6778 6.304 14.7498 6.304C15.6618 6.304 16.5898 5.872 16.9578 5.072C16.9738 4.944 16.9738 4.816 16.9578 4.672Z"/>
</mask>
<path d="M5.04 11.208C3.9562 11.208 3.11826 10.7799 2.52659 10.0211C1.91495 9.23669 1.512 8.02271 1.512 6.4H-0.488C-0.488 8.32929 -0.010954 10.0193 0.949407 11.2509C1.92974 12.5081 3.3558 13.208 5.04 13.208V11.208ZM1.512 6.4C1.512 4.77729 1.91495 3.56331 2.52659 2.77891C3.11826 2.02013 3.9562 1.592 5.04 1.592V-0.408001C3.3558 -0.408001 1.92974 0.291868 0.949407 1.54908C-0.010954 2.78069 -0.488 4.47071 -0.488 6.4H1.512ZM5.04 1.592C6.13368 1.592 6.97541 2.02163 7.56817 2.77989C8.18104 3.56386 8.584 4.77724 8.584 6.4H10.584C10.584 4.47076 10.107 2.78014 9.14384 1.54811C8.1606 0.290365 6.73032 -0.408001 5.04 -0.408001V1.592ZM8.584 6.4C8.584 8.02276 8.18104 9.23614 7.56817 10.0201C6.97541 10.7784 6.13368 11.208 5.04 11.208V13.208C6.73032 13.208 8.1606 12.5096 9.14384 11.2519C10.107 10.0199 10.584 8.32924 10.584 6.4H8.584ZM5.04 11.048C6.11234 11.048 6.94961 10.4863 7.46549 9.59493C7.94983 8.7581 8.152 7.64577 8.152 6.4H6.152C6.152 7.47423 5.97017 8.1859 5.73451 8.59307C5.53039 8.94574 5.31166 9.048 5.04 9.048V11.048ZM8.152 6.4C8.152 5.15423 7.94983 4.0419 7.46549 3.20507C6.94961 2.31374 6.11234 1.752 5.04 1.752V3.752C5.31166 3.752 5.53039 3.85426 5.73451 4.20693C5.97017 4.6141 6.152 5.32577 6.152 6.4H8.152ZM5.04 1.752C3.97088 1.752 3.1388 2.31848 2.6273 3.20716C2.14629 4.0429 1.944 5.15393 1.944 6.4H3.944C3.944 5.32607 4.12571 4.6131 4.3607 4.20484C4.5652 3.84952 4.78113 3.752 5.04 3.752V1.752ZM1.944 6.4C1.944 7.64607 2.14629 8.7571 2.6273 9.59284C3.1388 10.4815 3.97088 11.048 5.04 11.048V9.048C4.78113 9.048 4.5652 8.95048 4.3607 8.59516C4.12571 8.1869 3.944 7.47393 3.944 6.4H1.944ZM10.8778 9.472L10.6534 8.49749L9.59007 8.74229L9.92646 9.78029L10.8778 9.472ZM13.1018 8.96L14.0314 8.59164L13.7149 7.79269L12.8774 7.98549L13.1018 8.96ZM17.0697 6.912H18.0697V4.34471L16.3332 6.23559L17.0697 6.912ZM16.9578 4.672L17.9516 4.56157L17.9473 4.52213L17.9398 4.48315L16.9578 4.672ZM16.9578 5.072L17.8662 5.4899L17.9309 5.34945L17.95 5.19603L16.9578 5.072ZM11.1021 10.4465L13.3261 9.93451L12.8774 7.98549L10.6534 8.49749L11.1021 10.4465ZM12.1721 9.32836C12.3908 9.88051 12.7185 10.3685 13.1919 10.716C13.6729 11.0692 14.2318 11.224 14.8138 11.224V9.224C14.5957 9.224 14.4666 9.1708 14.3756 9.10395C14.277 9.03154 14.1487 8.88749 14.0314 8.59164L12.1721 9.32836ZM14.8138 11.224C16.1457 11.224 17.014 10.4807 17.4921 9.57476C17.9402 8.72573 18.0697 7.71466 18.0697 6.912H16.0697C16.0697 7.54934 15.9593 8.19427 15.7234 8.64124C15.5175 9.03133 15.2578 9.224 14.8138 9.224V11.224ZM16.3332 6.23559C15.8426 6.76984 15.0629 7.064 14.2378 7.064V9.064C15.4926 9.064 16.8569 8.62216 17.8063 7.5884L16.3332 6.23559ZM14.2378 7.064C13.4306 7.064 12.763 6.80057 12.3075 6.38069C11.8618 5.96987 11.5577 5.35463 11.5577 4.512H9.55775C9.55775 5.87737 10.0697 7.03813 10.952 7.85131C11.8245 8.65543 12.9969 9.064 14.2378 9.064V7.064ZM11.5577 4.512C11.5577 3.63077 11.8909 2.92282 12.435 2.42741C12.9858 1.92587 13.8107 1.592 14.8617 1.592V-0.408001C13.3848 -0.408001 12.0577 0.0661271 11.0885 0.948588C10.1126 1.83717 9.55775 3.08923 9.55775 4.512H11.5577ZM14.8617 1.592C16.0274 1.592 16.8652 2.00569 17.4354 2.71728C18.0294 3.45869 18.4217 4.63726 18.4217 6.304H20.4217C20.4217 4.35474 19.9661 2.6773 18.9962 1.46672C18.0023 0.226313 16.5601 -0.408001 14.8617 -0.408001V1.592ZM18.4217 6.304C18.4217 7.99325 18.0219 9.22804 17.4097 10.0169C16.8212 10.7753 15.973 11.208 14.8298 11.208V13.208C16.5505 13.208 17.9983 12.5207 18.9898 11.2431C19.9576 9.99596 20.4217 8.27875 20.4217 6.304H18.4217ZM14.8298 11.208C13.3021 11.208 12.2431 10.4415 11.829 9.16371L9.92646 9.78029C10.6324 11.9585 12.5174 13.208 14.8298 13.208V11.208ZM17.9398 4.48315C17.7919 3.71438 17.4731 3.01294 16.9322 2.49664C16.3774 1.967 15.6627 1.704 14.8778 1.704V3.704C15.1968 3.704 15.4021 3.801 15.5513 3.94336C15.7144 4.09906 15.8836 4.38162 15.9757 4.86085L17.9398 4.48315ZM14.8778 1.704C14.0661 1.704 13.3151 1.97983 12.7612 2.51453C12.2052 3.05125 11.9097 3.78993 11.9097 4.592H13.9097C13.9097 4.29007 14.0143 4.08475 14.1503 3.95347C14.2884 3.82017 14.5214 3.704 14.8778 3.704V1.704ZM11.9097 4.592C11.9097 5.37209 12.205 6.07512 12.7531 6.57609C13.2923 7.06903 14.0062 7.304 14.7498 7.304V5.304C14.4213 5.304 14.2152 5.20297 14.1024 5.09991C13.9985 5.00488 13.9097 4.85191 13.9097 4.592H11.9097ZM14.7498 7.304C15.9143 7.304 17.2843 6.75496 17.8662 5.4899L16.0493 4.65409C15.8952 4.98904 15.4092 5.304 14.7498 5.304V7.304ZM17.95 5.19603C17.9769 4.98135 17.9753 4.77411 17.9516 4.56157L15.9639 4.78243C15.9722 4.85789 15.9706 4.90665 15.9655 4.94797L17.95 5.19603Z" fill="#D83957" mask="url(#path-1-outside-1_138_273)"/>
</svg>
