<svg width="164" height="173" viewBox="0 0 164 173" fill="none" xmlns="http://www.w3.org/2000/svg">
<path d="M112.715 38.3585C111.229 37.6278 109.004 40.9008 107.735 40.186C106.471 39.4737 108.241 35.9762 107.415 31.1641C107.266 30.2963 106.328 24.8278 104.103 24.4036C99.8861 23.5995 94.7573 41.6252 88.4127 40.9635C87.0203 40.8183 85.4215 39.7576 81.1038 39.1595C79.3861 38.9215 78.4428 38.9236 77.9062 39.5022C77.1448 40.3232 77.8675 41.5878 78.4546 44.6184C79.3352 49.1634 78.3285 49.5115 79.3458 52.9322C80.1011 55.4715 81.0526 56.6134 80.4652 57.3403C79.6341 58.3689 77.192 56.7466 75.9886 57.8201C74.7605 58.9157 75.6509 62.0794 76.6741 64.2154C78.5942 68.2237 81.5384 69.7738 83.9605 71.8436C86.5927 74.093 89.8389 78.0077 91.8639 85.2275L107.518 149.964C104.597 136.491 97.2224 99.142 95.0615 84.8848C94.4378 80.769 93.935 76.5095 96.3856 73.0992C98.745 69.8158 103.558 67.7151 108.216 62.7748C108.76 62.1979 110.254 60.5725 109.792 59.3715C109.41 58.3787 108.039 58.5803 107.668 57.6586C107.171 56.4224 109.234 55.0562 110.957 52.1311C112.171 50.0685 112.599 48.2794 112.966 46.7408C113.077 46.2769 114.692 39.3311 112.715 38.3585Z" fill="#5E5AFF"/>
<path d="M57.3836 113.936C56.5965 114.454 57.5608 116.491 56.8439 116.907C56.1296 117.322 54.9236 115.444 52.3235 114.461C51.8547 114.284 48.8999 113.167 48.0498 114.136C46.4384 115.974 53.8057 123.692 51.6503 126.615C51.1774 127.257 50.1954 127.735 48.6561 129.682C48.0437 130.456 47.7725 130.92 47.9017 131.35C48.0849 131.961 48.914 131.971 50.5709 132.557C53.0557 133.436 52.9361 134.031 54.9085 134.519C56.3728 134.881 57.2077 134.743 57.395 135.241C57.6601 135.946 56.1592 136.676 56.3389 137.577C56.5223 138.496 58.332 138.971 59.6755 139.086C62.1968 139.3 63.8071 138.302 65.5219 137.71C67.3853 137.067 70.2434 136.604 74.3712 137.693L110.661 148.688C103.205 146.235 82.7466 139.078 75.1256 136.025C72.9256 135.143 70.6899 134.161 69.7232 131.974C68.7925 129.869 69.15 126.901 68.0695 123.189C67.9434 122.755 67.5767 121.553 66.8538 121.433C66.2563 121.334 65.9596 122.066 65.4002 121.982C64.65 121.869 64.5749 120.462 63.6362 118.773C62.9743 117.581 62.2195 116.855 61.5704 116.231C61.3747 116.043 58.4314 113.246 57.3836 113.936Z" fill="#5E5AFF"/>
<path d="M75.4328 107.194L72.1871 103.26L72.1943 102.797C72.2283 100.653 71.7921 98.8653 70.8981 97.4822C70.7559 97.2622 70.6025 97.0497 70.4465 96.833C69.8276 95.9745 69.0581 94.9074 68.7945 93.2501C68.6494 92.3249 68.4722 90.0792 69.9647 89.3972C70.3639 89.2097 70.7502 89.1971 71.0887 89.2567C71.0873 89.1875 71.087 89.1175 71.086 89.0422C71.0878 88.1205 71.2423 87.6251 71.3911 87.148C71.5053 86.7812 71.6237 86.403 71.699 85.6407C71.7321 85.3064 71.7436 85.0242 71.7537 84.7867C71.7855 84.0675 71.8632 83.1839 72.6794 82.6657C73.5709 82.1422 74.4907 82.5618 75.0999 82.8392C76.1869 83.3336 76.827 83.7838 77.2514 84.0824C77.4062 84.1918 77.5811 84.3144 77.6484 84.3435C78.1946 84.5714 80.21 82.7094 80.9724 82.0129C82.6808 80.4418 84.1591 79.0823 85.6318 79.8453C86.6861 80.3903 87.0687 81.7713 86.7961 84.0622C86.7108 84.7754 86.5286 85.3941 86.3431 85.9068C86.7631 85.8898 87.2142 85.9899 87.6074 86.3527C88.5372 87.2129 88.3258 88.8209 86.9828 91.1354C86.6504 91.7118 86.2007 92.4847 85.3689 93.2585C84.9768 93.6226 84.5912 93.9006 84.2578 94.1329C84.379 94.3343 84.472 94.5776 84.4953 94.8751C84.5651 95.75 84.0342 96.5349 82.8836 97.1808C81.629 97.9092 80.4788 98.3297 79.4652 98.702C78.5807 99.0281 77.8201 99.3112 77.3224 99.6858C76.408 100.394 76.1684 101.652 75.9496 103.224L75.4328 107.194Z" fill="#5E5AFF"/>
<path d="M61.1435 80.4853L58.1618 84.6227L57.7116 84.7333C55.6292 85.2442 54.0109 86.1194 52.8998 87.3352C52.7231 87.5284 52.5563 87.7307 52.3863 87.9366C51.7128 88.753 50.8759 89.768 49.3396 90.4434C48.4815 90.8185 46.3541 91.5594 45.3159 90.2888C45.0332 89.9502 44.9231 89.5796 44.8949 89.2372C44.8283 89.256 44.7607 89.2741 44.6881 89.2942C43.796 89.5262 43.2777 89.5024 42.7784 89.4795C42.3946 89.4621 41.9987 89.4435 41.2423 89.5641C40.9106 89.6168 40.6346 89.6772 40.4023 89.7277C39.6987 89.8794 38.8241 90.0283 38.1159 89.3703C37.3834 88.6407 37.5559 87.6446 37.6697 86.985C37.8724 85.808 38.1453 85.0747 38.3266 84.5884C38.3932 84.411 38.4673 84.2107 38.4785 84.1383C38.5604 83.5521 36.2481 82.075 35.381 81.5141C33.428 80.26 31.7379 79.1749 32.1024 77.5569C32.3622 76.3989 33.6009 75.6784 35.8861 75.3611C36.5976 75.2627 37.2422 75.282 37.7852 75.3314C37.6623 74.9294 37.6446 74.4677 37.8959 73.9953C38.4922 72.8778 40.1011 72.6744 42.6806 73.3863C43.3225 73.5617 44.1842 73.8006 45.1437 74.409C45.5953 74.6959 45.962 74.9983 46.2713 75.262C46.4354 75.0936 46.647 74.942 46.9289 74.844C47.7575 74.5544 48.6514 74.8689 49.5681 75.8181C50.5909 76.8469 51.2894 77.8528 51.9067 78.7388C52.4464 79.5117 52.9133 80.1756 53.4019 80.5621C54.3186 81.267 55.5963 81.1796 57.1724 80.9926L61.1435 80.4853Z" fill="#5E5AFF"/>
<path d="M50.7766 69.422L47.5308 65.4884L47.538 65.0248C47.572 62.8809 47.1359 61.0936 46.2418 59.7104C46.0997 59.4905 45.9463 59.2779 45.7903 59.0612C45.1714 58.2027 44.4019 57.1357 44.1382 55.4784C43.9931 54.5532 43.816 52.3074 45.3084 51.6255C45.7076 51.4379 46.094 51.4254 46.4325 51.485C46.4311 51.4158 46.4308 51.3458 46.4298 51.2705C46.4315 50.3487 46.586 49.8534 46.7349 49.3763C46.8491 49.0095 46.9674 48.6312 47.0427 47.869C47.0758 47.5347 47.0873 47.2525 47.0975 47.015C47.1293 46.2958 47.207 45.4121 48.0231 44.894C48.9147 44.3705 49.8344 44.79 50.4436 45.0674C51.5306 45.5619 52.1708 46.0121 52.5952 46.3107C52.7499 46.4201 52.9249 46.5426 52.9921 46.5718C53.5384 46.7997 55.5537 44.9376 56.3162 44.2412C58.0246 42.6701 59.5029 41.3106 60.9755 42.0736C62.0298 42.6186 62.4125 43.9995 62.1398 46.2905C62.0545 47.0037 61.8724 47.6223 61.6869 48.1351C62.1069 48.1181 62.5579 48.2182 62.9512 48.581C63.8809 49.4412 63.6695 51.0492 62.3266 53.3637C61.9942 53.9401 61.5445 54.713 60.7126 55.4868C60.3206 55.8509 59.935 56.1289 59.6015 56.3612C59.7227 56.5626 59.8157 56.8058 59.839 57.1033C59.9089 57.9783 59.378 58.7632 58.2274 59.4091C56.9727 60.1374 55.8226 60.558 54.809 60.9303C53.9245 61.2564 53.1639 61.5395 52.6661 61.9141C51.7517 62.6221 51.5122 63.8802 51.2933 65.4521L50.7766 69.422Z" fill="#5E5AFF"/>
<path d="M108.894 148.967L107.641 148.99L106.681 149.786C106.602 149.701 106.401 149.516 106.09 149.225C104.387 147.631 99.2028 142.779 92.0858 134.455C87.1178 128.645 82.3911 122.422 78.0342 115.958C73.6707 109.484 70.7497 104.333 68.4012 100.193C66.6304 97.0709 64.9931 94.0658 63.3999 91.1371C59.1411 83.3145 55.1173 75.9258 49.6251 68.4232C48.3999 66.7477 45.8479 63.2613 41.2277 60.7947C38.5478 59.3644 35.5691 58.4857 32.3751 58.186L32.6097 55.689C36.137 56.0225 39.4342 56.9973 42.4098 58.5852C47.5325 61.32 50.3132 65.1189 51.6493 66.9441C57.2383 74.5794 61.3001 82.0396 65.5995 89.938C67.1881 92.8551 68.8173 95.848 70.5812 98.9575C72.9077 103.059 75.8036 108.165 80.1113 114.556C84.4153 120.943 89.0847 127.089 93.9892 132.827C101.017 141.046 106.125 145.824 107.803 147.394C108.698 148.233 108.886 148.409 108.894 148.967Z" fill="#5E5AFF"/>
<path d="M30.703 64.0323C30.6169 64.0884 30.5285 64.1433 30.4364 64.1946C28.5865 65.2648 26.2335 65.2752 23.4424 64.2273C22.1317 63.7327 21.0722 62.8842 18.9593 61.1919C18.633 60.9315 17.0006 59.5948 15.1639 57.4885C13.9632 56.1125 13.5765 55.4619 13.5116 54.7065C13.4379 53.8662 13.6932 53.0799 14.1086 52.3909C13.9509 52.2075 13.8373 51.9864 13.7866 51.7185C13.5729 50.6101 14.5987 50.1042 15.1492 49.8237C15.4309 49.6866 15.7838 49.5176 16.1222 49.2704C16.656 48.884 16.8452 48.5267 17.1334 47.9878C17.4089 47.4719 17.7515 46.8304 18.4378 46.1515C19.7867 44.8063 21.3841 44.3949 21.9104 44.2588C24.6735 43.5335 26.9442 44.5675 29.573 45.7652C30.0987 46.0065 31.9588 46.9198 33.8789 48.583C35.2642 49.7829 35.6328 50.4775 35.8241 51.0481C36.22 52.2188 35.9849 53.1905 35.2634 55.4676C34.512 57.8489 34.134 59.0426 33.7007 59.9011C32.6901 61.8964 32.0554 63.1494 30.703 64.0323Z" fill="#5E5AFF"/>
</svg>
