<svg width="160" height="134" viewBox="0 0 160 134" fill="none" xmlns="http://www.w3.org/2000/svg">
<path d="M157.527 67.5264L126.149 129.299C124.895 131.766 121.869 132.754 119.402 131.5L4.56122 73.1654C2.09433 71.9123 1.10685 68.8859 2.35995 66.419L33.7384 4.64615C34.9915 2.17926 38.0179 1.19178 40.4847 2.44488L155.326 60.78C157.792 62.0331 158.78 65.0595 157.527 67.5264ZM2.9384 66.7128C1.84736 68.8607 2.70719 71.4959 4.85505 72.5869L119.696 130.922C121.844 132.013 124.479 131.153 125.57 129.005L156.949 67.2326C158.04 65.0847 157.18 62.4496 155.032 61.3584L40.1909 3.02333C38.043 1.93229 35.4079 2.79212 34.3168 4.93999L2.9384 66.7128Z" fill="#3F3D56"/>
<path d="M87.1483 25.9317L51.0498 96.9967L69.5083 106.373L105.607 35.3079L87.1483 25.9317Z" fill="#5E5AFF"/>
<path d="M23.261 25.9888L13.8848 44.4473L137.095 107.034L146.471 88.5753L23.261 25.9888Z" fill="#5E5AFF"/>
<path opacity="0.2" d="M91.437 59.7615C90.995 59.3725 90.5061 59.0262 89.9712 58.7306L80.6733 24.9645L60.9031 39.8849L79.7816 60.4763C79.3218 60.9948 78.9133 61.5721 78.5848 62.2188C78.4104 62.5621 78.2718 62.9134 78.149 63.2673L50.5892 60.1892L50.2005 84.9545L81.665 73.0359C81.8456 73.1456 82.0262 73.2554 82.2177 73.3526C82.8544 73.6761 83.5141 73.8991 84.1805 74.0469C81.5235 89.8002 91.527 101.883 91.527 101.883L114.044 91.8413C103.343 87.6869 96.0768 76.1724 92.9792 70.3695C93.1107 70.1595 93.2372 69.9449 93.3516 69.7198C93.466 69.4946 93.5646 69.2659 93.6567 69.0358C100.17 68.1148 113.754 67.1918 123.42 73.3829L118.249 49.2766C118.249 49.2766 102.592 48.3247 91.437 59.7615Z" fill="black"/>
<path d="M118.645 70.4284C118.544 70.6276 118.399 70.8063 118.214 70.9508C117.747 71.3165 117.127 71.3824 116.595 71.123C107.597 66.728 96.2489 67.3677 90.2856 68.1404C89.8874 68.192 89.5338 68.4509 89.3397 68.833L89.3388 68.8347C89.1376 69.2309 89.1371 69.6691 89.3303 70.0211C92.2235 75.2924 98.3997 84.8337 107.256 89.5087C107.779 89.7846 108.091 90.3244 108.072 90.9174C108.053 91.5167 107.7 92.0402 107.154 92.2841L88.4382 100.631C87.77 100.928 86.9747 100.712 86.547 100.115C84.5131 97.2768 78.0074 87.0242 79.6842 74.2405C79.7591 73.67 79.4267 73.1317 78.8757 72.9314C78.5681 72.8193 78.2681 72.6893 77.984 72.545C77.6454 72.3721 77.2717 72.3452 76.9505 72.467L48.0056 83.4311C47.5256 83.6129 46.9882 83.5453 46.568 83.2505C46.1479 82.9556 45.9017 82.4729 45.9098 81.9596L46.2429 60.7586C46.2495 60.3237 46.4409 59.9094 46.7674 59.6213C47.094 59.3337 47.5295 59.1965 47.962 59.2447L72.9665 62.0375C73.4826 62.0952 73.9774 61.8221 74.2059 61.3428C74.379 60.9818 74.5835 60.6303 74.8136 60.2933C75.1404 59.8186 75.0973 59.1921 74.7116 58.772L57.6534 40.1659C57.3594 39.8451 57.2133 39.4125 57.2529 38.9791C57.293 38.5459 57.5149 38.1466 57.862 37.8847L74.7864 25.1119C75.1962 24.8025 75.7313 24.7165 76.2175 24.8821C76.7032 25.0473 77.0746 25.4415 77.2109 25.9364L85.8201 57.2003C85.9002 57.4917 86.0849 57.7415 86.3398 57.9037C86.3948 57.9387 86.4496 57.9742 86.5037 58.0104C86.9614 58.3167 87.5912 58.2555 88.0011 57.8649C97.336 48.9683 109.455 48.1752 112.946 48.1438C113.681 48.1371 114.325 48.6514 114.478 49.3667L118.776 69.4035C118.853 69.7596 118.803 70.1187 118.645 70.4284Z" fill="#5E5AFF"/>
</svg>
