<svg width="35" height="35" viewBox="0 0 35 35" fill="none" xmlns="http://www.w3.org/2000/svg">
<g clip-path="url(#clip0_137_82)">
<path d="M15.7602 4.47852H4.28005C3.41012 4.47852 2.57583 4.82409 1.9607 5.43922C1.34558 6.05435 1 6.88864 1 7.75856V30.7189C1 31.5888 1.34558 32.4231 1.9607 33.0382C2.57583 33.6534 3.41012 33.9989 4.28005 33.9989H27.2404C28.1103 33.9989 28.9446 33.6534 29.5597 33.0382C30.1748 32.4231 30.5204 31.5888 30.5204 30.7189V19.2387" stroke="#FF8098" stroke-width="2" stroke-linecap="round" stroke-linejoin="round"/>
<path d="M28.0611 2.01898C28.7135 1.36654 29.5984 1 30.5211 1C31.4438 1 32.3287 1.36654 32.9811 2.01898C33.6336 2.67142 34.0001 3.55632 34.0001 4.47902C34.0001 5.40171 33.6336 6.28661 32.9811 6.93905L17.4009 22.5193L10.8408 24.1593L12.4808 17.5992L28.0611 2.01898Z" stroke="#FF8098" stroke-width="2" stroke-linecap="round" stroke-linejoin="round"/>
</g>
<defs>
<clipPath id="clip0_137_82">
<rect width="35" height="35" fill="white"/>
</clipPath>
</defs>
</svg>
