<svg width="35" height="35" viewBox="0 0 35 35" fill="none" xmlns="http://www.w3.org/2000/svg">
<g clip-path="url(#clip0_137_102)">
<path d="M34.4603 16.0448C32.2632 14.9517 30.2307 13.5552 28.4224 11.8962C29.3513 8.38392 30.0405 4.81254 30.4852 1.20678C30.5895 0.366781 30.1218 0.0957064 29.9765 0.0327647C29.5672 -0.123055 29.1047 0.0303197 28.8696 0.399856C25.6773 4.21947 21.3046 3.78366 16.6749 3.31967C12.0091 2.85301 7.19535 2.37957 3.62663 6.47632C3.12758 5.85339 2.30519 5.588 1.53614 5.8017L1.45582 5.82421C0.397577 6.12144 -0.220559 7.21898 0.0738409 8.27801L7.1957 33.7633C7.40231 34.501 8.07374 35.0116 8.83977 35.0137C8.99594 35.0135 9.15136 34.992 9.30177 34.9499L9.92494 34.7759C10.3616 34.6539 10.7325 34.3633 10.9549 33.9683C11.1774 33.5732 11.2337 33.1059 11.1116 32.6693L8.90586 24.7752C12.118 20.6448 16.5942 21.0822 21.3302 21.5552C26.0606 22.0277 30.9472 22.5154 34.5368 18.2227L34.5385 18.2204C34.8911 17.7809 35.0363 17.2104 34.9367 16.6558C34.8842 16.3879 34.7073 16.161 34.4603 16.0448ZM9.93807 33.3958C9.86796 33.5217 9.75028 33.6142 9.6114 33.6525L8.98817 33.8265C8.69947 33.9068 8.40026 33.7382 8.31938 33.4497L1.19717 7.96412C1.0756 7.52523 1.33185 7.07067 1.77029 6.94748L1.85003 6.92526C1.92217 6.90495 1.99676 6.89468 2.0717 6.89475C2.4417 6.89534 2.76635 7.14147 2.86684 7.49757L2.93002 7.72367V7.72489L6.57754 20.7773L9.98817 32.9828C10.0272 33.1217 10.0092 33.2703 9.93807 33.3958ZM33.6406 17.4752C30.4477 21.2936 26.0744 20.857 21.4464 20.3941C16.8362 19.9333 12.0781 19.4579 8.52255 23.4017L5.3358 11.9987L4.13162 7.68942C7.34392 3.55977 11.8197 4.00748 16.5592 4.48068C21.0595 4.92956 25.7052 5.39441 29.2393 1.73347C28.8038 5.05854 28.1545 8.3521 27.2957 11.5937C27.1794 12.0129 27.3113 12.4617 27.6358 12.7513C29.49 14.4488 31.5655 15.8875 33.8057 17.028C33.7933 17.1895 33.7361 17.3443 33.6406 17.4752Z" fill="#FF8098"/>
</g>
<defs>
<clipPath id="clip0_137_102">
<rect width="35" height="35" fill="white"/>
</clipPath>
</defs>
</svg>
