<svg width="338" height="32" viewBox="0 0 338 32" fill="none" xmlns="http://www.w3.org/2000/svg">
<path d="M11.136 30.576C9.856 30.576 8.576 30.464 7.296 30.24C6.016 30.048 4.848 29.68 3.792 29.136C2.768 28.592 1.936 27.824 1.296 26.832C0.656 25.84 0.336 24.56 0.336 22.992C0.336 21.68 0.592 20.176 1.104 18.48C1.648 16.752 2.448 15.024 3.504 13.296C4.56 11.536 5.872 9.904 7.44 8.4C9.04 6.896 10.88 5.696 12.96 4.8C15.072 3.872 17.44 3.408 20.064 3.408C23.904 3.408 26.704 4.032 28.464 5.28C30.224 6.496 31.104 8.4 31.104 10.992C31.104 13.52 30.576 15.952 29.52 18.288C28.496 20.624 27.056 22.72 25.2 24.576C23.376 26.432 21.264 27.904 18.864 28.992C16.464 30.048 13.888 30.576 11.136 30.576ZM10.752 29.856C12.704 29.856 14.56 29.488 16.32 28.752C18.112 27.984 19.728 26.96 21.168 25.68C22.64 24.368 23.904 22.88 24.96 21.216C26.048 19.552 26.88 17.808 27.456 15.984C28.064 14.16 28.368 12.352 28.368 10.56C28.368 8.576 27.744 7.008 26.496 5.856C25.248 4.704 23.136 4.128 20.16 4.128C18.464 4.128 16.768 4.56 15.072 5.424C13.408 6.256 11.84 7.376 10.368 8.784C8.928 10.192 7.632 11.744 6.48 13.44C5.36 15.136 4.48 16.848 3.84 18.576C3.2 20.304 2.88 21.92 2.88 23.424C2.88 25.44 3.472 27.024 4.656 28.176C5.872 29.296 7.904 29.856 10.752 29.856ZM28.788 31.008C28.66 31.008 28.564 30.976 28.5 30.912C28.404 30.848 28.388 30.8 28.452 30.768C29.188 30.192 29.796 29.616 30.276 29.04C30.788 28.464 31.3 27.728 31.812 26.832L32.484 25.68C33.124 24.592 33.844 23.344 34.644 21.936C35.444 20.528 36.244 19.104 37.044 17.664C37.876 16.224 38.628 14.896 39.3 13.68C40.004 12.464 40.564 11.488 40.98 10.752C41.396 9.984 41.604 9.6 41.604 9.6C42.468 8.096 43.412 6.96 44.436 6.192C45.492 5.392 46.42 4.88 47.22 4.656C44.884 4.688 42.804 4.864 40.98 5.184C39.156 5.504 37.924 6.256 37.284 7.44C37.156 7.664 37.06 7.92 36.996 8.208C36.964 8.464 36.948 8.72 36.948 8.976C36.948 9.808 37.172 10.4 37.62 10.752C37.652 10.784 37.668 10.816 37.668 10.848C37.668 10.912 37.604 10.976 37.476 11.04C37.38 11.104 37.284 11.12 37.188 11.088C36.9 10.928 36.548 10.544 36.132 9.936C35.716 9.296 35.46 8.768 35.364 8.352C35.268 7.968 35.22 7.616 35.22 7.296C35.22 6.432 35.524 5.76 36.132 5.28C36.74 4.8 37.476 4.464 38.34 4.272C39.236 4.08 40.148 3.968 41.076 3.936C42.004 3.904 42.772 3.888 43.38 3.888H45.3C45.94 3.888 46.628 3.888 47.364 3.888C48.132 3.856 48.772 3.792 49.284 3.696H49.476C49.668 3.696 49.812 3.76 49.908 3.888C50.004 4.016 50.052 4.144 50.052 4.272C50.052 4.528 49.94 4.656 49.716 4.656C49.588 4.656 49.476 4.656 49.38 4.656C49.316 4.624 49.22 4.608 49.092 4.608C47.62 4.608 46.148 5.888 44.676 8.448C44.676 8.448 44.5 8.736 44.148 9.312C43.828 9.856 43.412 10.56 42.9 11.424C42.42 12.288 41.908 13.2 41.364 14.16C40.82 15.12 40.34 15.984 39.924 16.752C39.06 18.352 38.132 20.096 37.14 21.984C36.18 23.84 35.188 25.776 34.164 27.792C33.94 28.176 33.748 28.624 33.588 29.136C33.428 29.616 33.188 29.856 32.868 29.856C32.74 29.856 32.58 29.84 32.388 29.808C32.196 29.776 31.988 29.76 31.764 29.76C31.22 29.76 30.724 29.856 30.276 30.048C29.86 30.24 29.428 30.544 28.98 30.96C28.948 30.992 28.884 31.008 28.788 31.008ZM49.716 30.528C48.916 30.528 48.1 30.272 47.268 29.76C46.436 29.216 45.588 28.384 44.724 27.264C43.7 25.888 42.836 24.56 42.132 23.28C41.428 21.968 40.852 20.832 40.404 19.872C39.988 18.912 39.668 18.224 39.444 17.808C41.236 16.144 43.076 14.656 44.964 13.344C46.884 12.032 48.788 10.784 50.676 9.6C51.956 8.832 53.332 7.984 54.804 7.056C56.276 6.096 57.764 5.296 59.268 4.656C60.324 4.208 61.348 3.984 62.34 3.984C62.788 3.984 63.236 4.032 63.684 4.128C64.132 4.192 64.564 4.304 64.98 4.464C65.3 4.56 65.668 4.768 66.084 5.088C66.5 5.376 66.676 5.712 66.612 6.096C66.612 6.224 66.548 6.288 66.42 6.288C66.26 6.288 66.116 6.192 65.988 6C65.86 5.808 65.668 5.616 65.412 5.424C65.156 5.232 64.756 5.136 64.212 5.136C63.508 5.136 62.724 5.28 61.86 5.568C61.028 5.856 60.292 6.128 59.652 6.384C58.372 6.928 57.028 7.52 55.62 8.16C54.212 8.8 52.884 9.472 51.636 10.176C50.516 10.784 49.332 11.488 48.084 12.288C46.836 13.088 45.62 13.904 44.436 14.736C43.284 15.536 42.244 16.272 41.316 16.944C41.508 17.424 41.828 18.144 42.276 19.104C42.724 20.064 43.316 21.152 44.052 22.368C44.788 23.552 45.652 24.752 46.644 25.968C47.38 26.864 48.1 27.52 48.804 27.936C49.54 28.32 50.228 28.512 50.868 28.512C51.732 28.512 52.532 28.272 53.268 27.792C54.036 27.28 54.756 26.64 55.428 25.872C56.132 25.104 56.788 24.32 57.396 23.52C57.556 23.328 57.668 23.232 57.732 23.232C57.86 23.232 57.924 23.312 57.924 23.472C57.924 23.664 57.844 23.856 57.684 24.048C56.276 26 54.916 27.568 53.604 28.752C52.324 29.936 51.028 30.528 49.716 30.528ZM65.9674 31.632C64.8474 31.632 63.6634 31.456 62.4154 31.104C61.1994 30.784 60.1114 30.24 59.1514 29.472C58.2234 28.704 57.5994 27.68 57.2794 26.4C57.2474 26.24 57.2154 26.064 57.1834 25.872C57.1834 25.68 57.1834 25.488 57.1834 25.296C57.1834 24.304 57.4074 23.344 57.8554 22.416C58.3034 21.488 58.8474 20.784 59.4874 20.304H59.5354C59.5994 20.304 59.6794 20.384 59.7754 20.544C59.9034 20.672 59.9034 20.768 59.7754 20.832C59.4554 21.152 59.2154 21.52 59.0554 21.936C58.9274 22.32 58.8634 22.736 58.8634 23.184C58.8634 23.792 58.9594 24.416 59.1514 25.056C59.3754 25.664 59.6474 26.192 59.9674 26.64C60.7674 27.76 61.8714 28.656 63.2794 29.328C64.7194 29.968 66.1274 30.288 67.5034 30.288C69.3914 30.288 70.8474 29.728 71.8714 28.608C72.9274 27.488 73.4554 26.112 73.4554 24.48C73.4554 23.488 73.2634 22.496 72.8794 21.504C72.3674 20.128 71.6794 18.784 70.8154 17.472C69.9834 16.128 69.2154 14.816 68.5114 13.536C67.9034 12.384 67.5994 11.216 67.5994 10.032C67.5994 8.784 67.9834 7.584 68.7514 6.432C69.5194 5.408 70.5274 4.592 71.7754 3.984C73.0554 3.344 74.3514 3.024 75.6634 3.024C76.5594 3.024 77.4234 3.184 78.2554 3.504C79.0874 3.824 79.8394 4.352 80.5114 5.088C80.7034 5.376 80.7994 5.744 80.7994 6.192C80.7994 6.832 80.6714 7.328 80.4154 7.68C80.1274 8.096 79.8074 8.64 79.4554 9.312C79.1034 9.984 78.8954 10.448 78.8314 10.704C78.7674 10.736 78.6074 10.8 78.3514 10.896C78.1274 10.96 77.9834 10.944 77.9194 10.848C78.0474 10.592 78.2234 10.128 78.4474 9.456C78.6714 8.784 78.7834 8.176 78.7834 7.632C78.7834 7.28 78.7674 6.896 78.7354 6.48C78.7354 6.032 78.5274 5.648 78.1114 5.328C77.7274 4.976 77.2314 4.672 76.6234 4.416C76.0154 4.16 75.2794 4.032 74.4154 4.032C72.6554 4.032 71.3114 4.544 70.3834 5.568C69.4554 6.592 68.9914 7.712 68.9914 8.928C68.9914 9.536 69.1194 10.144 69.3754 10.752C69.8554 11.904 70.5274 12.992 71.3914 14.016C72.2554 15.04 73.1034 16.096 73.9354 17.184C74.7994 18.24 75.4714 19.392 75.9514 20.64C76.2714 21.472 76.4314 22.32 76.4314 23.184C76.4314 24.432 76.1114 25.568 75.4714 26.592C74.8634 27.616 74.0314 28.512 72.9754 29.28C71.9514 30.016 70.8314 30.592 69.6154 31.008C68.3994 31.424 67.1834 31.632 65.9674 31.632ZM81.1916 31.2C80.1996 31.2 79.3836 30.912 78.7436 30.336C78.1356 29.76 77.8956 28.896 78.0236 27.744C78.0556 27.328 78.1516 26.896 78.3116 26.448C78.5036 25.968 78.7116 25.504 78.9356 25.056C79.1276 24.608 79.3196 24.384 79.5116 24.384C79.6716 24.384 79.6876 24.512 79.5596 24.768C79.1436 25.632 78.9356 26.4 78.9356 27.072C78.9356 27.776 79.1756 28.304 79.6556 28.656C80.1676 29.008 80.8236 29.184 81.6236 29.184C83.1916 29.184 84.9196 28.688 86.8076 27.696C88.6956 26.672 90.6476 25.376 92.6636 23.808C94.6796 22.208 96.6156 20.544 98.4716 18.816C97.2236 18.752 96.0556 18.688 94.9676 18.624C93.8796 18.56 92.9196 18.528 92.0876 18.528C91.3836 18.528 90.5356 18.592 89.5436 18.72C88.5516 18.848 87.7836 19.184 87.2396 19.728C87.0156 19.952 86.8076 20.288 86.6156 20.736C86.4556 21.152 86.3756 21.584 86.3756 22.032C86.3756 22.16 86.3756 22.288 86.3756 22.416C86.4076 22.512 86.4396 22.624 86.4716 22.752C86.3436 22.688 86.1036 22.64 85.7516 22.608C85.4316 22.544 85.2236 22.336 85.1276 21.984C85.0956 21.888 85.0796 21.728 85.0796 21.504C85.0796 20.992 85.2716 20.576 85.6556 20.256C86.0396 19.904 86.5036 19.6 87.0476 19.344C87.5916 19.088 88.0876 18.864 88.5356 18.672C89.5916 18.224 90.6796 17.856 91.7996 17.568C92.9196 17.28 94.0556 17.136 95.2076 17.136C96.5196 17.136 98.1516 17.184 100.104 17.28C101.608 15.808 103 14.416 104.28 13.104C105.56 11.792 106.6 10.704 107.4 9.84C108.52 8.656 109.704 7.648 110.952 6.816C112.232 5.952 113.528 5.344 114.84 4.992H112.2C111.08 4.992 109.864 5.04 108.552 5.136C107.24 5.232 106.008 5.44 104.856 5.76C103.704 6.08 102.744 6.56 101.976 7.2C101.496 7.616 101.128 8.096 100.872 8.64C100.648 9.152 100.536 9.632 100.536 10.08C100.536 10.688 100.712 11.104 101.064 11.328C101.096 11.328 101.112 11.344 101.112 11.376C101.112 11.472 101 11.584 100.776 11.712C100.552 11.808 100.392 11.824 100.296 11.76C99.9756 11.536 99.6876 11.088 99.4316 10.416C99.2076 9.712 99.1276 9.152 99.1916 8.736C99.3516 7.744 99.7836 6.944 100.488 6.336C101.224 5.696 102.12 5.2 103.176 4.848C104.264 4.496 105.4 4.256 106.584 4.128C107.8 4 108.952 3.92 110.04 3.888C111.16 3.856 112.104 3.84 112.872 3.84H118.104C118.168 3.84 118.184 3.856 118.152 3.888C118.952 3.536 119.784 3.184 120.648 2.832C121.544 2.48 122.312 2.304 122.952 2.304C123.112 2.304 123.272 2.352 123.432 2.448C123.624 2.544 123.72 2.64 123.72 2.736C123.72 2.896 123.4 2.976 122.76 2.976C122.44 2.976 122.104 3.04 121.752 3.168C121.432 3.264 121 3.6 120.456 4.176C120.008 4.624 119.448 5.344 118.776 6.336C118.104 7.328 117.368 8.496 116.568 9.84C115.768 11.152 114.968 12.56 114.168 14.064C113.368 15.536 112.6 16.992 111.864 18.432C111.128 19.872 110.488 21.2 109.944 22.416C109.88 22.608 109.704 23.056 109.416 23.76C109.128 24.432 108.856 25.184 108.6 26.016C108.344 26.816 108.216 27.536 108.216 28.176C108.216 29.04 108.52 29.472 109.128 29.472C109.416 29.472 109.704 29.408 109.992 29.28C110.408 29.12 110.84 28.88 111.288 28.56C111.736 28.24 112.168 27.872 112.584 27.456C113.416 26.656 114.12 25.888 114.696 25.152C115.272 24.384 115.624 23.92 115.752 23.76C115.848 23.6 115.96 23.52 116.088 23.52C116.216 23.52 116.28 23.6 116.28 23.76C116.28 23.856 116.232 23.984 116.136 24.144C115.912 24.464 115.496 25.024 114.888 25.824C114.28 26.592 113.56 27.376 112.728 28.176C111.928 28.976 111.064 29.584 110.136 30C109.848 30.128 109.544 30.224 109.224 30.288C108.904 30.384 108.584 30.432 108.264 30.432C107.624 30.432 107.032 30.208 106.488 29.76C105.976 29.312 105.72 28.576 105.72 27.552C105.72 26.624 105.896 25.632 106.248 24.576C106.632 23.488 106.984 22.608 107.304 21.936C107.944 20.56 108.696 19.024 109.56 17.328C110.456 15.632 111.368 13.936 112.296 12.24C113.256 10.544 114.136 9.008 114.936 7.632C115.736 6.256 116.392 5.232 116.904 4.56C116.392 4.56 115.704 4.768 114.84 5.184C113.976 5.568 113.048 6.096 112.056 6.768C111.096 7.408 110.2 8.16 109.368 9.024C108.376 10.048 107.224 11.296 105.912 12.768C104.632 14.24 103.24 15.776 101.736 17.376C102.472 17.408 103.208 17.44 103.944 17.472C104.68 17.472 105.416 17.472 106.152 17.472C106.664 17.472 107.224 17.424 107.832 17.328C108.472 17.2 109.064 17.008 109.608 16.752C109.608 16.752 109.512 16.928 109.32 17.28C109.16 17.6 108.872 17.936 108.456 18.288C108.072 18.608 107.544 18.8 106.872 18.864C106.264 18.896 105.656 18.928 105.048 18.96C104.44 18.96 103.832 18.96 103.224 18.96C102.712 18.96 102.2 18.96 101.688 18.96C101.208 18.96 100.728 18.944 100.248 18.912C98.7756 20.448 97.2396 21.952 95.6396 23.424C94.0396 24.864 92.4236 26.176 90.7916 27.36C89.1596 28.544 87.5276 29.472 85.8956 30.144C84.2956 30.848 82.7276 31.2 81.1916 31.2ZM141.555 31.44C141.459 31.44 141.363 31.408 141.267 31.344C141.203 31.28 141.187 31.232 141.219 31.2C141.443 30.912 141.619 30.592 141.747 30.24C141.907 29.92 142.051 29.584 142.179 29.232C141.763 26.992 141.203 24.656 140.499 22.224C139.827 19.792 139.091 17.36 138.291 14.928C137.523 12.464 136.787 10.128 136.083 7.92C135.859 8.08 135.619 8.464 135.363 9.072C135.139 9.68 134.979 10.128 134.883 10.416C134.467 11.504 133.971 12.784 133.395 14.256C132.851 15.696 132.227 17.2 131.523 18.768C130.851 20.304 130.083 21.824 129.219 23.328C128.387 24.8 127.459 26.144 126.435 27.36C125.955 27.968 125.299 28.512 124.467 28.992C123.635 29.44 122.771 29.792 121.875 30.048C120.979 30.336 120.163 30.48 119.427 30.48C118.435 30.48 117.475 30.208 116.547 29.664C115.651 29.088 114.979 28.224 114.531 27.072C114.403 26.656 114.307 26.224 114.243 25.776C114.179 25.296 114.147 24.832 114.147 24.384C114.147 23.936 114.227 23.712 114.387 23.712C114.547 23.712 114.627 23.84 114.627 24.096C114.627 25.6 115.043 26.848 115.875 27.84C116.707 28.832 117.699 29.328 118.851 29.328C119.971 29.328 121.091 29.056 122.211 28.512C123.331 27.968 124.339 27.216 125.235 26.256C126.675 24.656 127.891 22.96 128.883 21.168C129.875 19.376 130.755 17.52 131.523 15.6C132.291 13.68 133.075 11.76 133.875 9.84C134.355 8.624 135.027 7.568 135.891 6.672C136.755 5.776 137.763 5.216 138.915 4.992H136.275C135.155 4.992 133.971 5.04 132.723 5.136C131.475 5.232 130.339 5.44 129.315 5.76C128.291 6.08 127.555 6.56 127.107 7.2C126.851 7.584 126.723 8.048 126.723 8.592C126.723 9.168 126.867 9.712 127.155 10.224C127.443 10.736 127.811 11.104 128.259 11.328C128.323 11.392 128.355 11.424 128.355 11.424C128.355 11.52 128.275 11.616 128.115 11.712C127.987 11.776 127.843 11.792 127.683 11.76C127.427 11.6 127.107 11.344 126.723 10.992C126.339 10.608 125.987 10.208 125.667 9.792C125.379 9.376 125.187 9.024 125.091 8.736C124.963 8.352 124.899 7.968 124.899 7.584C124.899 6.816 125.171 6.192 125.715 5.712C126.291 5.232 127.027 4.864 127.923 4.608C128.819 4.352 129.779 4.176 130.803 4.08C131.859 3.952 132.867 3.888 133.827 3.888C134.787 3.856 135.619 3.84 136.323 3.84H142.131C142.291 3.808 142.291 3.92 142.131 4.176C142.003 4.432 141.827 4.688 141.603 4.944C141.411 5.168 141.251 5.28 141.123 5.28C140.803 5.248 140.307 5.312 139.635 5.472C138.995 5.6 138.547 5.76 138.291 5.952C138.387 7.168 138.611 8.592 138.963 10.224C139.347 11.856 139.795 13.584 140.307 15.408C140.819 17.2 141.379 19.008 141.987 20.832C142.627 22.624 143.251 24.304 143.859 25.872C144.371 24.656 144.947 23.168 145.587 21.408C146.227 19.648 146.899 17.776 147.603 15.792C148.339 13.808 149.091 11.888 149.859 10.032C150.659 8.144 151.443 6.464 152.211 4.992C153.011 3.52 153.795 2.432 154.563 1.728C154.947 1.376 155.411 1.104 155.955 0.912C156.499 0.687999 157.011 0.575998 157.491 0.575998C157.939 0.575998 158.323 0.687999 158.643 0.912C158.963 1.104 159.107 1.424 159.075 1.872L159.027 3.6C159.027 3.632 158.947 3.664 158.787 3.696C158.627 3.728 158.563 3.728 158.595 3.696C158.627 3.28 158.467 2.992 158.115 2.832C157.763 2.64 157.475 2.544 157.251 2.544C156.579 2.512 155.859 2.928 155.091 3.792C154.355 4.656 153.587 5.792 152.787 7.2C151.987 8.608 151.203 10.16 150.435 11.856C149.667 13.52 148.931 15.2 148.227 16.896C147.555 18.56 146.947 20.096 146.403 21.504C145.859 22.912 145.411 24.016 145.059 24.816C144.739 25.488 144.579 26.144 144.579 26.784C144.579 26.88 144.579 26.976 144.579 27.072C144.579 27.168 144.595 27.264 144.627 27.36C144.627 27.488 144.643 27.632 144.675 27.792C144.739 27.952 144.787 28.112 144.819 28.272C144.819 28.304 144.819 28.336 144.819 28.368C144.851 28.4 144.867 28.448 144.867 28.512C144.867 28.768 144.739 28.992 144.483 29.184C144.163 29.408 143.811 29.6 143.427 29.76C143.203 29.856 142.883 30.096 142.467 30.48C142.083 30.896 141.843 31.184 141.747 31.344C141.683 31.408 141.619 31.44 141.555 31.44ZM152.629 31.2C151.637 31.2 150.821 30.912 150.181 30.336C149.573 29.76 149.333 28.896 149.461 27.744C149.493 27.328 149.589 26.896 149.749 26.448C149.941 25.968 150.149 25.504 150.373 25.056C150.565 24.608 150.757 24.384 150.949 24.384C151.109 24.384 151.125 24.512 150.997 24.768C150.581 25.632 150.373 26.4 150.373 27.072C150.373 27.776 150.613 28.304 151.093 28.656C151.605 29.008 152.261 29.184 153.061 29.184C154.629 29.184 156.357 28.688 158.245 27.696C160.133 26.672 162.085 25.376 164.101 23.808C166.117 22.208 168.053 20.544 169.909 18.816C168.661 18.752 167.493 18.688 166.405 18.624C165.317 18.56 164.357 18.528 163.525 18.528C162.821 18.528 161.973 18.592 160.981 18.72C159.989 18.848 159.221 19.184 158.677 19.728C158.453 19.952 158.245 20.288 158.053 20.736C157.893 21.152 157.813 21.584 157.813 22.032C157.813 22.16 157.813 22.288 157.813 22.416C157.845 22.512 157.877 22.624 157.909 22.752C157.781 22.688 157.541 22.64 157.189 22.608C156.869 22.544 156.661 22.336 156.565 21.984C156.533 21.888 156.517 21.728 156.517 21.504C156.517 20.992 156.709 20.576 157.093 20.256C157.477 19.904 157.941 19.6 158.485 19.344C159.029 19.088 159.525 18.864 159.973 18.672C161.029 18.224 162.117 17.856 163.237 17.568C164.357 17.28 165.493 17.136 166.645 17.136C167.957 17.136 169.589 17.184 171.541 17.28C173.045 15.808 174.437 14.416 175.717 13.104C176.997 11.792 178.037 10.704 178.837 9.84C179.957 8.656 181.141 7.648 182.389 6.816C183.669 5.952 184.965 5.344 186.277 4.992H183.637C182.517 4.992 181.301 5.04 179.989 5.136C178.677 5.232 177.445 5.44 176.293 5.76C175.141 6.08 174.181 6.56 173.413 7.2C172.933 7.616 172.565 8.096 172.309 8.64C172.085 9.152 171.973 9.632 171.973 10.08C171.973 10.688 172.149 11.104 172.501 11.328C172.533 11.328 172.549 11.344 172.549 11.376C172.549 11.472 172.437 11.584 172.213 11.712C171.989 11.808 171.829 11.824 171.733 11.76C171.413 11.536 171.125 11.088 170.869 10.416C170.645 9.712 170.565 9.152 170.629 8.736C170.789 7.744 171.221 6.944 171.925 6.336C172.661 5.696 173.557 5.2 174.613 4.848C175.701 4.496 176.837 4.256 178.021 4.128C179.237 4 180.389 3.92 181.477 3.888C182.597 3.856 183.541 3.84 184.309 3.84H189.541C189.605 3.84 189.621 3.856 189.589 3.888C190.389 3.536 191.221 3.184 192.085 2.832C192.981 2.48 193.749 2.304 194.389 2.304C194.549 2.304 194.709 2.352 194.869 2.448C195.061 2.544 195.157 2.64 195.157 2.736C195.157 2.896 194.837 2.976 194.197 2.976C193.877 2.976 193.541 3.04 193.189 3.168C192.869 3.264 192.437 3.6 191.893 4.176C191.445 4.624 190.885 5.344 190.213 6.336C189.541 7.328 188.805 8.496 188.005 9.84C187.205 11.152 186.405 12.56 185.605 14.064C184.805 15.536 184.037 16.992 183.301 18.432C182.565 19.872 181.925 21.2 181.381 22.416C181.317 22.608 181.141 23.056 180.853 23.76C180.565 24.432 180.293 25.184 180.037 26.016C179.781 26.816 179.653 27.536 179.653 28.176C179.653 29.04 179.957 29.472 180.565 29.472C180.853 29.472 181.141 29.408 181.429 29.28C181.845 29.12 182.277 28.88 182.725 28.56C183.173 28.24 183.605 27.872 184.021 27.456C184.853 26.656 185.557 25.888 186.133 25.152C186.709 24.384 187.061 23.92 187.189 23.76C187.285 23.6 187.397 23.52 187.525 23.52C187.653 23.52 187.717 23.6 187.717 23.76C187.717 23.856 187.669 23.984 187.573 24.144C187.349 24.464 186.933 25.024 186.325 25.824C185.717 26.592 184.997 27.376 184.165 28.176C183.365 28.976 182.501 29.584 181.573 30C181.285 30.128 180.981 30.224 180.661 30.288C180.341 30.384 180.021 30.432 179.701 30.432C179.061 30.432 178.469 30.208 177.925 29.76C177.413 29.312 177.157 28.576 177.157 27.552C177.157 26.624 177.333 25.632 177.685 24.576C178.069 23.488 178.421 22.608 178.741 21.936C179.381 20.56 180.133 19.024 180.997 17.328C181.893 15.632 182.805 13.936 183.733 12.24C184.693 10.544 185.573 9.008 186.373 7.632C187.173 6.256 187.829 5.232 188.341 4.56C187.829 4.56 187.141 4.768 186.277 5.184C185.413 5.568 184.485 6.096 183.493 6.768C182.533 7.408 181.637 8.16 180.805 9.024C179.813 10.048 178.661 11.296 177.349 12.768C176.069 14.24 174.677 15.776 173.173 17.376C173.909 17.408 174.645 17.44 175.381 17.472C176.117 17.472 176.853 17.472 177.589 17.472C178.101 17.472 178.661 17.424 179.269 17.328C179.909 17.2 180.501 17.008 181.045 16.752C181.045 16.752 180.949 16.928 180.757 17.28C180.597 17.6 180.309 17.936 179.893 18.288C179.509 18.608 178.981 18.8 178.309 18.864C177.701 18.896 177.093 18.928 176.485 18.96C175.877 18.96 175.269 18.96 174.661 18.96C174.149 18.96 173.637 18.96 173.125 18.96C172.645 18.96 172.165 18.944 171.685 18.912C170.213 20.448 168.677 21.952 167.077 23.424C165.477 24.864 163.861 26.176 162.229 27.36C160.597 28.544 158.965 29.472 157.333 30.144C155.733 30.848 154.165 31.2 152.629 31.2ZM216.062 31.104C215.262 31.104 214.446 30.848 213.614 30.336C212.814 29.856 211.998 29.072 211.166 27.984C210.142 26.576 209.278 25.232 208.574 23.952C207.87 22.672 207.294 21.552 206.846 20.592C206.43 19.632 206.11 18.944 205.886 18.528C205.886 18.528 205.966 18.432 206.126 18.24C206.286 18.016 206.478 17.808 206.702 17.616C206.958 17.392 207.166 17.28 207.326 17.28C208.83 17.28 210.174 17.264 211.358 17.232C212.574 17.168 213.646 16.976 214.574 16.656C215.534 16.304 216.382 15.712 217.118 14.88C217.854 14.048 218.478 12.864 218.99 11.328C219.15 10.944 219.246 10.56 219.278 10.176C219.342 9.76 219.374 9.36 219.374 8.976C219.374 7.888 219.102 6.928 218.558 6.096C218.014 5.264 217.23 4.784 216.206 4.656C216.078 4.624 215.934 4.608 215.774 4.608C215.614 4.608 215.454 4.608 215.294 4.608C214.686 4.608 214.014 4.688 213.278 4.848C212.574 5.008 212.046 5.312 211.694 5.76C210.894 6.816 210.126 8.016 209.39 9.36C208.654 10.672 207.95 12.016 207.278 13.392C206.606 14.736 205.966 16 205.358 17.184C205.198 17.504 204.894 18.08 204.446 18.912C203.998 19.712 203.502 20.64 202.958 21.696C202.414 22.72 201.902 23.744 201.422 24.768C200.942 25.792 200.558 26.704 200.27 27.504C200.014 28.304 199.95 28.848 200.078 29.136C200.11 29.168 200.126 29.216 200.126 29.28C200.126 29.376 200.078 29.424 199.982 29.424C199.726 29.424 199.47 29.36 199.214 29.232C198.958 29.104 198.654 29.04 198.302 29.04C197.982 29.04 197.662 29.12 197.342 29.28C197.022 29.408 196.606 29.648 196.094 30C195.582 30.352 195.006 30.64 194.366 30.864C194.302 30.896 194.206 30.912 194.078 30.912C193.854 30.912 193.678 30.848 193.55 30.72C193.422 30.624 193.422 30.544 193.55 30.48C194.254 30.352 194.862 30.096 195.374 29.712C195.886 29.296 196.302 28.784 196.622 28.176C197.294 27.056 197.95 25.936 198.59 24.816C199.262 23.664 199.902 22.512 200.51 21.36C201.246 19.952 201.998 18.544 202.766 17.136C203.534 15.696 204.302 14.272 205.07 12.864C205.806 11.552 206.462 10.288 207.038 9.072C207.614 7.856 208.046 6.976 208.334 6.432C208.558 6.016 208.942 5.648 209.486 5.328C210.062 4.976 210.622 4.704 211.166 4.512C210.974 4.512 210.782 4.512 210.59 4.512C210.398 4.48 210.19 4.464 209.966 4.464C208.974 4.464 207.886 4.528 206.702 4.656C205.55 4.752 204.414 4.912 203.294 5.136C202.206 5.36 201.246 5.664 200.414 6.048C199.582 6.432 199.022 6.896 198.734 7.44C198.606 7.728 198.494 8.016 198.398 8.304C198.302 8.592 198.254 8.88 198.254 9.168C198.254 9.904 198.51 10.432 199.022 10.752C199.054 10.752 199.07 10.784 199.07 10.848C199.07 10.912 199.006 10.976 198.878 11.04C198.782 11.104 198.702 11.12 198.638 11.088C198.318 10.928 197.95 10.544 197.534 9.936C197.15 9.296 196.894 8.768 196.766 8.352C196.67 7.968 196.622 7.616 196.622 7.296C196.622 6.464 196.894 5.824 197.438 5.376C197.982 4.896 198.67 4.56 199.502 4.368C200.334 4.144 201.182 4.016 202.046 3.984C202.942 3.92 203.726 3.888 204.398 3.888C205.422 3.888 206.638 3.888 208.046 3.888C209.454 3.856 210.75 3.84 211.934 3.84C212.222 3.84 212.542 3.84 212.894 3.84C213.246 3.808 213.614 3.792 213.998 3.792C214.862 3.792 215.758 3.84 216.686 3.936C217.614 4.032 218.462 4.24 219.23 4.56C219.998 4.88 220.59 5.376 221.006 6.048C221.55 6.944 221.822 7.968 221.822 9.12C221.822 10.88 221.358 12.352 220.43 13.536C220.11 13.952 219.758 14.352 219.374 14.736C218.99 15.12 218.542 15.488 218.03 15.84C217.198 16.416 216.206 16.912 215.054 17.328C213.902 17.712 212.702 18 211.454 18.192C210.238 18.384 209.118 18.512 208.094 18.576C208.51 19.472 209.134 20.672 209.966 22.176C210.83 23.68 211.87 25.184 213.086 26.688C213.726 27.488 214.382 28.048 215.054 28.368C215.726 28.688 216.382 28.848 217.022 28.848C218.046 28.848 219.006 28.544 219.902 27.936C220.83 27.328 221.662 26.624 222.398 25.824C223.166 24.992 223.774 24.272 224.222 23.664C224.318 23.504 224.398 23.424 224.462 23.424C224.558 23.424 224.606 23.52 224.606 23.712C224.606 23.968 224.51 24.224 224.318 24.48C222.846 26.496 221.438 28.112 220.094 29.328C218.75 30.512 217.406 31.104 216.062 31.104ZM233.417 30.576C232.137 30.576 230.857 30.464 229.577 30.24C228.297 30.048 227.129 29.68 226.073 29.136C225.049 28.592 224.217 27.824 223.577 26.832C222.937 25.84 222.617 24.56 222.617 22.992C222.617 21.68 222.873 20.176 223.385 18.48C223.929 16.752 224.729 15.024 225.785 13.296C226.841 11.536 228.153 9.904 229.721 8.4C231.321 6.896 233.161 5.696 235.241 4.8C237.353 3.872 239.721 3.408 242.345 3.408C246.185 3.408 248.985 4.032 250.745 5.28C252.505 6.496 253.385 8.4 253.385 10.992C253.385 13.52 252.857 15.952 251.801 18.288C250.777 20.624 249.337 22.72 247.481 24.576C245.657 26.432 243.545 27.904 241.145 28.992C238.745 30.048 236.169 30.576 233.417 30.576ZM233.033 29.856C234.985 29.856 236.841 29.488 238.601 28.752C240.393 27.984 242.009 26.96 243.449 25.68C244.921 24.368 246.185 22.88 247.241 21.216C248.329 19.552 249.161 17.808 249.737 15.984C250.345 14.16 250.649 12.352 250.649 10.56C250.649 8.576 250.025 7.008 248.777 5.856C247.529 4.704 245.417 4.128 242.441 4.128C240.745 4.128 239.049 4.56 237.353 5.424C235.689 6.256 234.121 7.376 232.649 8.784C231.209 10.192 229.913 11.744 228.761 13.44C227.641 15.136 226.761 16.848 226.121 18.576C225.481 20.304 225.161 21.92 225.161 23.424C225.161 25.44 225.753 27.024 226.937 28.176C228.153 29.296 230.185 29.856 233.033 29.856ZM256.349 30.48C255.357 30.48 254.413 30.208 253.517 29.664C252.621 29.088 251.949 28.224 251.501 27.072C251.341 26.656 251.229 26.224 251.165 25.776C251.101 25.296 251.069 24.832 251.069 24.384C251.069 23.936 251.149 23.712 251.309 23.712C251.501 23.712 251.597 23.84 251.597 24.096C251.597 25.6 251.965 26.736 252.701 27.504C253.469 28.272 254.413 28.656 255.533 28.656C256.653 28.656 257.725 28.336 258.749 27.696C259.805 27.056 260.781 26.24 261.677 25.248C263.149 23.648 264.397 22.032 265.421 20.4C266.445 18.736 267.373 17.04 268.205 15.312C269.069 13.552 269.933 11.728 270.797 9.84C271.341 8.688 272.013 7.68 272.813 6.816C273.645 5.952 274.637 5.36 275.789 5.04L275.837 4.992H273.197C272.077 4.992 270.893 5.04 269.645 5.136C268.397 5.232 267.261 5.44 266.237 5.76C265.245 6.08 264.525 6.56 264.077 7.2C263.789 7.616 263.645 8.096 263.645 8.64C263.645 9.184 263.789 9.712 264.077 10.224C264.365 10.736 264.733 11.104 265.181 11.328C265.245 11.392 265.277 11.44 265.277 11.472C265.277 11.536 265.197 11.616 265.037 11.712C264.909 11.776 264.765 11.792 264.605 11.76C264.349 11.6 264.029 11.344 263.645 10.992C263.261 10.608 262.909 10.208 262.589 9.792C262.301 9.376 262.109 9.024 262.013 8.736C261.885 8.352 261.821 7.968 261.821 7.584C261.821 6.816 262.093 6.192 262.637 5.712C263.213 5.232 263.949 4.864 264.845 4.608C265.741 4.352 266.701 4.176 267.725 4.08C268.781 3.952 269.789 3.888 270.749 3.888C271.741 3.856 272.589 3.84 273.293 3.84H278.477C278.541 3.84 278.573 3.856 278.573 3.888C278.573 3.984 278.461 4.128 278.237 4.32C278.045 4.48 277.917 4.56 277.853 4.56C277.053 4.72 276.461 5.152 276.077 5.856C275.693 6.528 275.517 7.616 275.549 9.12C275.549 9.12 275.549 9.472 275.549 10.176C275.581 10.88 275.613 11.792 275.645 12.912C275.677 14.032 275.709 15.232 275.741 16.512C275.773 17.792 275.805 19.024 275.837 20.208C275.869 21.392 275.901 22.384 275.933 23.184V23.472L292.589 5.904C293.645 4.784 294.685 3.84 295.709 3.072C296.765 2.272 297.853 1.92 298.973 2.016C299.005 2.016 299.021 2.032 299.021 2.064C299.053 2.064 299.069 2.064 299.069 2.064C299.069 2.16 299.005 2.272 298.877 2.4C298.749 2.528 298.605 2.608 298.445 2.64C297.613 2.608 296.861 2.928 296.189 3.6C295.517 4.272 294.893 5.072 294.317 6C294.029 6.48 293.597 7.248 293.021 8.304C292.445 9.328 291.789 10.544 291.053 11.952C290.349 13.36 289.629 14.848 288.893 16.416C288.157 17.984 287.469 19.52 286.829 21.024C286.221 22.528 285.725 23.904 285.341 25.152C284.957 26.368 284.765 27.36 284.765 28.128C284.765 29.024 285.069 29.472 285.677 29.472C285.933 29.472 286.205 29.408 286.493 29.28C286.909 29.12 287.373 28.88 287.885 28.56C288.397 28.24 288.861 27.872 289.277 27.456C290.109 26.656 290.845 25.84 291.485 25.008C292.125 24.144 292.509 23.648 292.637 23.52C292.733 23.392 292.813 23.328 292.877 23.328C293.005 23.328 293.069 23.424 293.069 23.616C293.069 23.808 293.005 23.984 292.877 24.144C292.621 24.464 292.189 25.024 291.581 25.824C290.973 26.592 290.253 27.376 289.421 28.176C288.621 28.976 287.757 29.584 286.829 30C286.541 30.128 286.237 30.224 285.917 30.288C285.597 30.384 285.277 30.432 284.957 30.432C284.253 30.432 283.613 30.224 283.037 29.808C282.493 29.36 282.221 28.624 282.221 27.6C282.221 26.608 282.445 25.488 282.893 24.24C283.373 22.96 283.901 21.728 284.477 20.544C285.085 19.328 285.581 18.304 285.965 17.472C286.381 16.608 286.909 15.504 287.549 14.16C288.189 12.816 288.925 11.456 289.757 10.08L275.933 24.672C275.901 24.928 275.789 25.184 275.597 25.44C275.405 25.664 275.101 25.856 274.685 26.016C274.461 26.112 274.157 26.368 273.773 26.784C273.389 27.2 273.133 27.488 273.005 27.648C273.005 27.68 272.957 27.696 272.861 27.696C272.765 27.696 272.669 27.664 272.573 27.6C272.477 27.536 272.445 27.488 272.477 27.456C273.309 26.4 273.741 24.944 273.773 23.088L273.821 21.936C273.885 20.592 273.933 19.184 273.965 17.712C273.997 16.208 274.013 14.816 274.013 13.536C274.045 12.224 274.061 11.168 274.061 10.368C274.061 9.536 274.061 9.12 274.061 9.12C274.061 8.352 274.173 7.68 274.397 7.104C274.621 6.528 274.893 6.032 275.213 5.616C274.669 6.032 274.141 6.528 273.629 7.104C273.117 7.68 272.685 8.32 272.333 9.024C271.853 10.016 271.309 11.296 270.701 12.864C270.093 14.432 269.389 16.096 268.589 17.856C267.821 19.616 266.957 21.344 265.997 23.04C265.069 24.704 264.029 26.144 262.877 27.36C262.077 28.224 261.053 28.96 259.805 29.568C258.589 30.176 257.437 30.48 256.349 30.48ZM294.801 31.2C293.809 31.2 292.993 30.912 292.353 30.336C291.745 29.76 291.505 28.896 291.633 27.744C291.665 27.328 291.761 26.896 291.921 26.448C292.113 25.968 292.321 25.504 292.545 25.056C292.737 24.608 292.929 24.384 293.121 24.384C293.281 24.384 293.297 24.512 293.169 24.768C292.753 25.632 292.545 26.4 292.545 27.072C292.545 27.776 292.785 28.304 293.265 28.656C293.777 29.008 294.433 29.184 295.233 29.184C296.801 29.184 298.529 28.688 300.417 27.696C302.305 26.672 304.257 25.376 306.273 23.808C308.289 22.208 310.225 20.544 312.081 18.816C310.833 18.752 309.665 18.688 308.577 18.624C307.489 18.56 306.529 18.528 305.697 18.528C304.993 18.528 304.145 18.592 303.153 18.72C302.161 18.848 301.393 19.184 300.849 19.728C300.625 19.952 300.417 20.288 300.225 20.736C300.065 21.152 299.985 21.584 299.985 22.032C299.985 22.16 299.985 22.288 299.985 22.416C300.017 22.512 300.049 22.624 300.081 22.752C299.953 22.688 299.713 22.64 299.361 22.608C299.041 22.544 298.833 22.336 298.737 21.984C298.705 21.888 298.689 21.728 298.689 21.504C298.689 20.992 298.881 20.576 299.265 20.256C299.649 19.904 300.113 19.6 300.657 19.344C301.201 19.088 301.697 18.864 302.145 18.672C303.201 18.224 304.289 17.856 305.409 17.568C306.529 17.28 307.665 17.136 308.817 17.136C310.129 17.136 311.761 17.184 313.713 17.28C315.217 15.808 316.609 14.416 317.889 13.104C319.169 11.792 320.209 10.704 321.009 9.84C322.129 8.656 323.313 7.648 324.561 6.816C325.841 5.952 327.137 5.344 328.449 4.992H325.809C324.689 4.992 323.473 5.04 322.161 5.136C320.849 5.232 319.617 5.44 318.465 5.76C317.313 6.08 316.353 6.56 315.585 7.2C315.105 7.616 314.737 8.096 314.481 8.64C314.257 9.152 314.145 9.632 314.145 10.08C314.145 10.688 314.321 11.104 314.673 11.328C314.705 11.328 314.721 11.344 314.721 11.376C314.721 11.472 314.609 11.584 314.385 11.712C314.161 11.808 314.001 11.824 313.905 11.76C313.585 11.536 313.297 11.088 313.041 10.416C312.817 9.712 312.737 9.152 312.801 8.736C312.961 7.744 313.393 6.944 314.097 6.336C314.833 5.696 315.729 5.2 316.785 4.848C317.873 4.496 319.009 4.256 320.193 4.128C321.409 4 322.561 3.92 323.649 3.888C324.769 3.856 325.713 3.84 326.481 3.84H331.713C331.777 3.84 331.793 3.856 331.761 3.888C332.561 3.536 333.393 3.184 334.257 2.832C335.153 2.48 335.921 2.304 336.561 2.304C336.721 2.304 336.881 2.352 337.041 2.448C337.233 2.544 337.329 2.64 337.329 2.736C337.329 2.896 337.009 2.976 336.369 2.976C336.049 2.976 335.713 3.04 335.361 3.168C335.041 3.264 334.609 3.6 334.065 4.176C333.617 4.624 333.057 5.344 332.385 6.336C331.713 7.328 330.977 8.496 330.177 9.84C329.377 11.152 328.577 12.56 327.777 14.064C326.977 15.536 326.209 16.992 325.473 18.432C324.737 19.872 324.097 21.2 323.553 22.416C323.489 22.608 323.313 23.056 323.025 23.76C322.737 24.432 322.465 25.184 322.209 26.016C321.953 26.816 321.825 27.536 321.825 28.176C321.825 29.04 322.129 29.472 322.737 29.472C323.025 29.472 323.313 29.408 323.601 29.28C324.017 29.12 324.449 28.88 324.897 28.56C325.345 28.24 325.777 27.872 326.193 27.456C327.025 26.656 327.729 25.888 328.305 25.152C328.881 24.384 329.233 23.92 329.361 23.76C329.457 23.6 329.569 23.52 329.697 23.52C329.825 23.52 329.889 23.6 329.889 23.76C329.889 23.856 329.841 23.984 329.745 24.144C329.521 24.464 329.105 25.024 328.497 25.824C327.889 26.592 327.169 27.376 326.337 28.176C325.537 28.976 324.673 29.584 323.745 30C323.457 30.128 323.153 30.224 322.833 30.288C322.513 30.384 322.193 30.432 321.873 30.432C321.233 30.432 320.641 30.208 320.097 29.76C319.585 29.312 319.329 28.576 319.329 27.552C319.329 26.624 319.505 25.632 319.857 24.576C320.241 23.488 320.593 22.608 320.913 21.936C321.553 20.56 322.305 19.024 323.169 17.328C324.065 15.632 324.977 13.936 325.905 12.24C326.865 10.544 327.745 9.008 328.545 7.632C329.345 6.256 330.001 5.232 330.513 4.56C330.001 4.56 329.313 4.768 328.449 5.184C327.585 5.568 326.657 6.096 325.665 6.768C324.705 7.408 323.809 8.16 322.977 9.024C321.985 10.048 320.833 11.296 319.521 12.768C318.241 14.24 316.849 15.776 315.345 17.376C316.081 17.408 316.817 17.44 317.553 17.472C318.289 17.472 319.025 17.472 319.761 17.472C320.273 17.472 320.833 17.424 321.441 17.328C322.081 17.2 322.673 17.008 323.217 16.752C323.217 16.752 323.121 16.928 322.929 17.28C322.769 17.6 322.481 17.936 322.065 18.288C321.681 18.608 321.153 18.8 320.481 18.864C319.873 18.896 319.265 18.928 318.657 18.96C318.049 18.96 317.441 18.96 316.833 18.96C316.321 18.96 315.809 18.96 315.297 18.96C314.817 18.96 314.337 18.944 313.857 18.912C312.385 20.448 310.849 21.952 309.249 23.424C307.649 24.864 306.033 26.176 304.401 27.36C302.769 28.544 301.137 29.472 299.505 30.144C297.905 30.848 296.337 31.2 294.801 31.2Z" fill="#5E5AFF"/>
</svg>
