<svg width="75" height="36" viewBox="0 0 75 36" fill="none" xmlns="http://www.w3.org/2000/svg">
<rect width="75" height="36" rx="18" fill="#F4F4F4"/>
<g clip-path="url(#clip0_166_216)">
<path d="M25.8872 32.9364V31.0117C25.8872 30.2755 25.4308 29.7934 24.6474 29.7934C24.2557 29.7934 23.8297 29.9205 23.5369 30.3391C23.3087 29.9878 22.9817 29.7934 22.4911 29.7934C22.164 29.7934 21.837 29.8906 21.5783 30.2419V29.857H20.8938V32.9364H21.5783V31.236C21.5783 30.6903 21.8712 30.4325 22.3275 30.4325C22.7839 30.4325 23.0121 30.7202 23.0121 31.236V32.9364H23.6966V31.236C23.6966 30.6903 24.0237 30.4325 24.4458 30.4325C24.9022 30.4325 25.1304 30.7202 25.1304 31.236V32.9364H25.8872ZM36.0413 29.857H34.9308V28.9264H34.2463V29.857H33.6264V30.4661H34.2463V31.8787C34.2463 32.5851 34.5391 32.9999 35.3225 32.9999C35.6154 32.9999 35.9424 32.9027 36.1706 32.7757L35.9729 32.1964C35.7751 32.3235 35.5469 32.3571 35.3834 32.3571C35.0563 32.3571 34.927 32.1628 34.927 31.8451V30.4661H36.0375V29.857H36.0413ZM41.8524 29.7897C41.4607 29.7897 41.1982 29.984 41.0347 30.2382V29.8532H40.3502V32.9326H41.0347V31.1986C41.0347 30.6866 41.2629 30.3951 41.6888 30.3951C41.8181 30.3951 41.9817 30.4287 42.1148 30.4586L42.3125 29.8159C42.1756 29.7897 41.9817 29.7897 41.8524 29.7897ZM33.0711 30.1111C32.7441 29.8869 32.2877 29.7897 31.7971 29.7897C31.0137 29.7897 30.4927 30.1746 30.4927 30.7838C30.4927 31.2958 30.8844 31.5873 31.5689 31.6807L31.896 31.7143C32.2535 31.7778 32.4512 31.875 32.4512 32.0357C32.4512 32.2599 32.1888 32.4206 31.7325 32.4206C31.2761 32.4206 30.9148 32.2599 30.6866 32.0992L30.3596 32.6112C30.7171 32.8691 31.2077 32.9961 31.6982 32.9961C32.611 32.9961 33.1358 32.5776 33.1358 32.0021C33.1358 31.4565 32.7099 31.1687 32.0595 31.0715L31.7325 31.0379C31.4396 31.0043 31.2115 30.9407 31.2115 30.7501C31.2115 30.5259 31.4396 30.3989 31.8009 30.3989C32.1926 30.3989 32.5844 30.5595 32.7821 30.6567L33.0711 30.1111ZM51.2839 29.7897C50.8922 29.7897 50.6298 29.984 50.4663 30.2382V29.8532H49.7817V32.9326H50.4663V31.1986C50.4663 30.6866 50.6944 30.3951 51.1204 30.3951C51.2497 30.3951 51.4132 30.4287 51.5463 30.4586L51.7441 29.8233C51.611 29.7897 51.417 29.7897 51.2839 29.7897ZM42.5369 31.3967C42.5369 32.3272 43.191 32.9999 44.2026 32.9999C44.659 32.9999 44.9861 32.9027 45.3131 32.6486L44.9861 32.103C44.7237 32.2973 44.4651 32.3907 44.1684 32.3907C43.6132 32.3907 43.2215 32.0058 43.2215 31.3967C43.2215 30.8174 43.6132 30.4325 44.1684 30.4026C44.4613 30.4026 44.7237 30.4998 44.9861 30.6903L45.3131 30.1447C44.9861 29.8869 44.659 29.7934 44.2026 29.7934C43.191 29.7897 42.5369 30.4661 42.5369 31.3967ZM48.869 31.3967V29.857H48.1844V30.2419C47.9563 29.9541 47.6292 29.7934 47.2032 29.7934C46.3209 29.7934 45.6364 30.4661 45.6364 31.3967C45.6364 32.3272 46.3209 32.9999 47.2032 32.9999C47.6596 32.9999 47.9867 32.8392 48.1844 32.5514V32.9364H48.869V31.3967ZM46.3552 31.3967C46.3552 30.851 46.7127 30.4026 47.3021 30.4026C47.8574 30.4026 48.2491 30.8211 48.2491 31.3967C48.2491 31.9423 47.8574 32.3907 47.3021 32.3907C46.7165 32.3571 46.3552 31.9385 46.3552 31.3967ZM38.1634 29.7897C37.2507 29.7897 36.5966 30.4325 36.5966 31.3929C36.5966 32.3571 37.2507 32.9961 38.1976 32.9961C38.654 32.9961 39.1104 32.8691 39.4717 32.5776L39.1446 32.0955C38.8822 32.2898 38.5551 32.4169 38.2319 32.4169C37.8059 32.4169 37.3838 32.2226 37.2849 31.6807H39.601C39.601 31.5835 39.601 31.52 39.601 31.4228C39.6314 30.4325 39.0419 29.7897 38.1634 29.7897ZM38.1634 30.369C38.5894 30.369 38.8822 30.6268 38.9468 31.1052H37.3153C37.38 30.6903 37.6728 30.369 38.1634 30.369ZM55.1706 31.3967V28.6387H54.4861V30.2419C54.2579 29.9541 53.9308 29.7934 53.5049 29.7934C52.6226 29.7934 51.938 30.4661 51.938 31.3967C51.938 32.3272 52.6226 32.9999 53.5049 32.9999C53.9613 32.9999 54.2883 32.8392 54.4861 32.5514V32.9364H55.1706V31.3967ZM52.6568 31.3967C52.6568 30.851 53.0143 30.4026 53.6038 30.4026C54.159 30.4026 54.5507 30.8211 54.5507 31.3967C54.5507 31.9423 54.159 32.3907 53.6038 32.3907C53.0143 32.3571 52.6568 31.9385 52.6568 31.3967ZM29.7397 31.3967V29.857H29.0551V30.2419C28.8269 29.9541 28.4999 29.7934 28.0739 29.7934C27.1916 29.7934 26.5071 30.4661 26.5071 31.3967C26.5071 32.3272 27.1916 32.9999 28.0739 32.9999C28.5303 32.9999 28.8574 32.8392 29.0551 32.5514V32.9364H29.7397V31.3967ZM27.1954 31.3967C27.1954 30.851 27.5529 30.4026 28.1424 30.4026C28.6976 30.4026 29.0894 30.8211 29.0894 31.3967C29.0894 31.9423 28.6976 32.3907 28.1424 32.3907C27.5529 32.3571 27.1954 31.9385 27.1954 31.3967Z" fill="#FF8098"/>
<path d="M43.1264 6.47021H32.843V24.6251H43.1264V6.47021Z" fill="#FF5A00"/>
<path d="M33.5276 15.5477C33.5276 11.8591 35.2922 8.58544 38 6.47023C36.0072 4.93054 33.4934 4 30.7514 4C24.2558 4 19 9.16469 19 15.5477C19 21.9307 24.2558 27.0954 30.7514 27.0954C33.4934 27.0954 36.0072 26.1648 38 24.6251C35.2884 22.5398 33.5276 19.2362 33.5276 15.5477Z" fill="#EB001B"/>
<path d="M57 15.5477C57 21.9307 51.7442 27.0954 45.2486 27.0954C42.5066 27.0954 39.9928 26.1648 38 24.6251C40.742 22.5062 42.4724 19.2362 42.4724 15.5477C42.4724 11.8591 40.7078 8.58544 38 6.47023C39.989 4.93054 42.5028 4 45.2448 4C51.7442 4 57 9.19832 57 15.5477Z" fill="#F79E1B"/>
</g>
<defs>
<clipPath id="clip0_166_216">
<rect width="38" height="29" fill="white" transform="translate(19 4)"/>
</clipPath>
</defs>
</svg>
