<svg width="454" height="40" viewBox="0 0 454 40" fill="none" xmlns="http://www.w3.org/2000/svg">
<g clip-path="url(#clip0_166_204)">
<path fill-rule="evenodd" clip-rule="evenodd" d="M30.5387 28.3333V14.3733C30.5387 10.4133 28.3759 8.53332 24.7439 8.53332C21.724 8.53332 19.1122 10.2933 17.9696 12.0533C17.235 9.85332 15.3986 8.53332 12.5012 8.53332C9.4813 8.53332 6.86953 10.3733 6.05335 11.5333V9.01332H0.870605V28.3333H6.05335V15.3333C6.82872 14.2533 8.33865 13.0533 10.1342 13.0533C12.2563 13.0533 13.0725 14.3333 13.0725 16.1333V28.3333H18.296V15.2933C19.0306 14.2533 20.5405 13.0533 22.3769 13.0533C24.499 13.0533 25.3152 14.3333 25.3152 16.1333V28.3333H30.5387ZM44.7811 28.8133C38.2925 28.8133 34.3748 24.1733 34.3748 18.6533C34.3748 13.1733 38.2925 8.53332 44.7811 8.53332C51.3105 8.53332 55.2282 13.1733 55.2282 18.6533C55.2282 24.1733 51.3105 28.8133 44.7811 28.8133ZM44.7811 24.2933C48.005 24.2933 49.8414 21.6933 49.8414 18.6533C49.8414 15.6533 48.005 13.0533 44.7811 13.0533C41.5572 13.0533 39.7616 15.6533 39.7616 18.6533C39.7616 21.6933 41.5572 24.2933 44.7811 24.2933ZM77.5507 28.3333V14.6933C77.5507 10.9333 75.4694 8.53332 71.1437 8.53332C67.9198 8.53332 65.512 10.0533 64.247 11.5333V9.01332H59.0642V28.3333H64.247V15.3333C65.104 14.1733 66.6955 13.0533 68.736 13.0533C70.9396 13.0533 72.368 13.9733 72.368 16.6533V28.3333H77.5507ZM91.8338 28.8133C85.3452 28.8133 81.4276 24.1733 81.4276 18.6533C81.4276 13.1733 85.3452 8.53332 91.8338 8.53332C98.3633 8.53332 102.281 13.1733 102.281 18.6533C102.281 24.1733 98.3633 28.8133 91.8338 28.8133ZM91.8338 24.2933C95.0578 24.2933 96.8942 21.6933 96.8942 18.6533C96.8942 15.6533 95.0578 13.0533 91.8338 13.0533C88.6099 13.0533 86.8143 15.6533 86.8143 18.6533C86.8143 21.6933 88.6099 24.2933 91.8338 24.2933ZM111.3 22.1333C112.157 23.3733 114.075 24.2933 115.748 24.2933C118.768 24.2933 120.767 22.0533 120.767 18.6933C120.767 15.3333 118.768 13.0533 115.748 13.0533C114.075 13.0533 112.157 14.0133 111.3 15.2933V22.1333ZM111.3 28.3333H106.117V1.65332H111.3V11.4933C112.85 9.53332 115.054 8.53332 117.38 8.53332C122.4 8.53332 126.113 12.3733 126.113 18.6933C126.113 25.1333 122.359 28.8133 117.38 28.8133C115.013 28.8133 112.85 27.7733 111.3 25.8533V28.3333ZM147.048 28.3333H141.866V26.3333C140.519 27.8933 138.193 28.8133 135.622 28.8133C132.48 28.8133 128.766 26.7333 128.766 22.4133C128.766 17.8933 132.48 16.1733 135.622 16.1733C138.234 16.1733 140.56 17.0133 141.866 18.5333V15.9333C141.866 13.9733 140.152 12.6933 137.54 12.6933C135.418 12.6933 133.459 13.4533 131.786 14.9733L129.827 11.5733C132.235 9.49332 135.336 8.53332 138.438 8.53332C142.927 8.53332 147.048 10.2933 147.048 15.8533V28.3333ZM137.703 25.3733C139.376 25.3733 141.009 24.8133 141.866 23.6933V21.2933C141.009 20.1733 139.376 19.6133 137.703 19.6133C135.663 19.6133 133.99 20.6533 133.99 22.5333C133.99 24.3333 135.663 25.3733 137.703 25.3733ZM170.677 28.3333V14.6933C170.677 10.9333 168.596 8.53332 164.27 8.53332C161.046 8.53332 158.638 10.0533 157.373 11.5333V9.01332H152.19V28.3333H157.373V15.3333C158.23 14.1733 159.822 13.0533 161.862 13.0533C164.066 13.0533 165.494 13.9733 165.494 16.6533V28.3333H170.677ZM195.081 28.3333L187.041 17.7733L194.836 9.01332H188.47L181.001 17.6133V1.65332H175.819V28.3333H181.001V23.3733L183.368 20.8933L188.592 28.3333H195.081Z" fill="#F4F4F4"/>
<path fill-rule="evenodd" clip-rule="evenodd" d="M438.301 5.3032H442.546V18.5399H442.786L448.307 12.1815L452.223 12.1715L446.166 19.1215L453.463 27.8132H448.573L442.608 19.7232H442.546V27.8132H438.301V5.3032ZM236.463 6.30986V18.6532C236.463 22.8582 237.733 25.1565 241.292 25.1565C244.698 25.1565 246.06 22.3699 246.06 18.8965V6.30986H250.072V19.6649C250.072 25.0949 246.444 28.1715 241.166 28.1715C235.123 28.1715 231.98 25.3099 231.98 19.4499V6.30986H236.463ZM259.452 14.2615C260.889 12.7899 262.888 12.0832 264.895 12.0832C268.615 12.0832 270.584 14.0432 270.584 17.9115V27.7999H266.362V18.3765C266.362 16.2249 265.378 14.8115 263.179 14.8115C261.111 14.8115 259.487 16.1332 259.487 18.6532V27.7999H255.26V12.4482H259.452V14.2615ZM275.553 27.7999H279.781V12.4482H275.553V27.7999ZM275.138 7.84486C275.138 6.67986 276.153 5.47986 277.59 5.47986C279.052 5.47986 280.191 6.6482 280.191 7.84486C280.191 9.1632 279.212 10.4232 277.651 10.4232C276.154 10.4232 275.138 9.1632 275.138 7.84486ZM289.137 27.7999L282.369 12.3832H286.85C288.22 15.9149 289.642 19.2365 290.975 23.5032H291.04C292.476 19.2365 293.828 15.9149 295.289 12.3832H299.256L292.09 27.7999H289.137ZM311.839 18.2849C312.003 15.9449 311.143 14.3532 309.05 14.3532C306.624 14.3532 305.535 16.2249 305.581 18.2849H311.839ZM305.511 20.4949C305.416 23.3832 307.515 25.5282 310.153 25.5282C311.721 25.5282 313.367 25.0065 314.421 24.2982L315.629 26.4499C313.466 27.6765 311.204 28.1715 309.393 28.1715C304.59 28.1715 300.999 24.8832 300.999 19.8182C300.999 15.0882 304.556 12.0832 309.106 12.0832C314.068 12.0832 316.137 15.9182 315.824 20.4949H305.511ZM324.124 15.1499H324.183L325.044 13.9532C325.516 13.2749 326.472 12.0832 327.776 12.0832C328.73 12.0832 329.752 12.5749 330.643 13.4615L329.048 16.2865C328.349 15.9449 327.902 15.7649 327.048 15.7649C325.584 15.7649 324.154 16.9015 324.154 20.2149V27.7999H319.912V12.4482H324.124V15.1499ZM341.932 15.3332C340.98 14.6582 339.993 14.3532 339.225 14.3532C338.273 14.3532 337.317 14.8732 337.317 15.9182C337.317 17.1465 338.847 17.8549 340.626 19.1082C342.891 20.7432 343.552 22.3382 343.552 23.7432C343.552 25.8999 341.1 28.1715 337.608 28.1715C335.411 28.1715 333.79 27.4315 332.299 26.4199L333.634 24.2982C334.583 25.0399 335.948 25.7715 337.091 25.7715C338.308 25.7715 339.385 25.1565 339.385 23.8682C339.385 22.4249 337.728 21.6282 336.207 20.5832C334.392 19.3882 333.156 18.2199 333.156 16.3199C333.156 13.8899 335.567 12.0832 338.682 12.0832C340.439 12.0832 342.151 12.5099 343.304 13.4965L341.932 15.3332ZM353.981 19.6332C351.916 20.2782 350.867 21.4132 350.867 23.1615C350.867 24.5149 351.758 25.4365 352.784 25.4365C354.462 25.4365 356.659 23.4082 356.344 18.8965L353.981 19.6332ZM355.324 26.3282C354.176 27.2499 352.714 28.1715 351.255 28.1715C348.772 28.1715 346.698 26.3282 346.698 23.5032C346.698 20.5832 348.898 18.9582 352.59 17.9115L356.344 16.8365C356.123 15.4265 354.814 14.5382 353.454 14.5382C351.634 14.5382 350.361 15.1832 349.249 16.1049L347.876 14.1699C349.854 12.6049 351.789 12.0832 353.981 12.0832C356.914 12.0832 360.51 12.9982 360.51 17.7932V24.0532C360.51 25.2832 360.665 26.7299 361.178 27.7999H356.694C356.368 27.2765 356.278 26.3899 356.278 25.5599L355.324 26.3282ZM365.249 27.7999H369.483V5.23486H365.249V27.7999ZM406.947 19.6332C404.876 20.2782 403.827 21.4132 403.827 23.1615C403.827 24.5149 404.713 25.4365 405.737 25.4365C407.415 25.4365 409.614 23.4082 409.304 18.8965L406.947 19.6332ZM408.274 26.3282C407.134 27.2499 405.669 28.1715 404.205 28.1715C401.727 28.1715 399.654 26.3282 399.654 23.5032C399.654 20.5832 401.851 18.9582 405.546 17.9115L409.304 16.8365C409.071 15.4265 407.774 14.5382 406.396 14.5382C404.589 14.5382 403.314 15.1832 402.202 16.1049L400.833 14.1699C402.805 12.6049 404.749 12.0832 406.947 12.0832C409.867 12.0832 413.458 12.9982 413.458 17.7932V24.0532C413.458 25.2832 413.616 26.7299 414.123 27.7999H409.646C409.331 27.2765 409.226 26.3899 409.226 25.5599L408.274 26.3282ZM422.399 14.2615C423.832 12.7899 425.838 12.0832 427.84 12.0832C431.56 12.0832 433.531 14.0432 433.531 17.9115V27.7999H429.302V18.3765C429.302 16.2249 428.316 14.8115 426.121 14.8115C424.051 14.8115 422.431 16.1332 422.431 18.6532V27.7999H418.202V12.4482H422.399V14.2615ZM384.914 25.2149H387.203C389.685 25.2149 391.567 23.9582 391.567 21.5665C391.567 19.0465 389.626 17.9732 387.177 17.9732H384.914V25.2149ZM384.914 15.3332H386.32C388.9 15.3332 390.651 13.7382 390.651 11.7382C390.651 9.8382 389.18 9.01153 387.242 9.01153H384.912L384.914 15.3332ZM380.433 27.8582V6.3682H388.483C392.232 6.3682 394.876 8.02486 394.876 10.9415C394.876 14.3782 391.982 15.7949 390.425 16.1915V16.2532C393.193 16.3782 396.274 18.2165 396.274 21.5015C396.274 25.2149 393.059 27.8582 387.818 27.8582H380.433Z" fill="#797979"/>
<path fill-rule="evenodd" clip-rule="evenodd" d="M212.547 0H214.247V40H212.547V0Z" fill="#F4F4F4"/>
</g>
<defs>
<clipPath id="clip0_166_204">
<rect width="454" height="40" fill="white"/>
</clipPath>
</defs>
</svg>
