<svg width="35" height="35" viewBox="0 0 35 35" fill="none" xmlns="http://www.w3.org/2000/svg">
<rect width="35" height="35" rx="17.5" fill="white"/>
<g clip-path="url(#clip0_137_155)">
<path d="M17.5001 32.7175C25.9044 32.7175 32.7175 25.9044 32.7175 17.5001C32.7175 9.09577 25.9044 2.28271 17.5001 2.28271C9.09577 2.28271 2.28271 9.09577 2.28271 17.5001C2.28271 25.9044 9.09577 32.7175 17.5001 32.7175Z" fill="url(#paint0_linear_137_155)"/>
<path d="M14.7101 24.4748C14.2171 24.4748 14.3009 24.2887 14.1309 23.8192L12.6812 19.0482L23.8406 12.4277" fill="#CBD9E8"/>
<path d="M14.7102 24.4748C15.0906 24.4748 15.2587 24.3008 15.4711 24.0943L17.5001 22.1214L14.9692 20.5952" fill="#AFC9DE"/>
<path d="M14.9689 20.5956L21.1015 25.1265C21.8013 25.5126 22.3063 25.3127 22.4807 24.4768L24.977 12.7134C25.2325 11.6888 24.5864 11.2239 23.9168 11.5278L9.25866 17.18C8.25812 17.5813 8.26408 18.1396 9.07631 18.3882L12.8379 19.5624L21.5465 14.0683C21.9576 13.819 22.335 13.9529 22.0253 14.2278" fill="white"/>
</g>
<defs>
<linearGradient id="paint0_linear_137_155" x1="17.5001" y1="2.28271" x2="17.5001" y2="32.4918" gradientUnits="userSpaceOnUse">
<stop stop-color="#2AABEE"/>
<stop offset="1" stop-color="#229ED9"/>
</linearGradient>
<clipPath id="clip0_137_155">
<rect width="30.4348" height="30.4348" fill="white" transform="translate(2.28271 2.28271)"/>
</clipPath>
</defs>
</svg>
