<svg width="33" height="31" viewBox="0 0 33 31" fill="none" xmlns="http://www.w3.org/2000/svg">
<g clip-path="url(#clip0_137_59)">
<path d="M23.6406 26.4978V23.6409C23.6406 22.1254 23.0387 20.6722 21.9672 19.6006C20.8956 18.5291 19.4423 17.9271 17.9269 17.9271H6.4994C4.98402 17.9271 3.5307 18.5291 2.45916 19.6006C1.38763 20.6722 0.785645 22.1254 0.785645 23.6409V26.4978" stroke="#FF8098" stroke-width="1.57128" stroke-linecap="round" stroke-linejoin="round"/>
<path d="M12.213 12.2132C15.3686 12.2132 17.9268 9.65498 17.9268 6.4994C17.9268 3.34378 15.3686 0.785645 12.213 0.785645C9.05742 0.785645 6.49927 3.34378 6.49927 6.4994C6.49927 9.65498 9.05742 12.2132 12.213 12.2132Z" stroke="#FF8098" stroke-width="1.57128" stroke-linecap="round" stroke-linejoin="round"/>
<path d="M32.2116 26.4976V23.6408C32.2106 22.3747 31.7893 21.1449 31.0137 20.1443C30.238 19.1438 29.152 18.4291 27.9263 18.1127" stroke="#FF8098" stroke-width="1.57128" stroke-linecap="round" stroke-linejoin="round"/>
<path d="M22.2119 0.971313C23.441 1.286 24.5303 2.00079 25.3082 3.003C26.0861 4.0052 26.5084 5.23782 26.5084 6.50651C26.5084 7.77521 26.0861 9.00785 25.3082 10.01C24.5303 11.0123 23.441 11.727 22.2119 12.0417" stroke="#FF8098" stroke-width="1.57128" stroke-linecap="round" stroke-linejoin="round"/>
<path d="M8.64209 26.4975L11.5704 29.4258L17.427 23.5692" stroke="#FF8098" stroke-width="1.57128" stroke-linecap="round" stroke-linejoin="round"/>
</g>
<defs>
<clipPath id="clip0_137_59">
<rect width="32.9969" height="30.64" fill="white"/>
</clipPath>
</defs>
</svg>
