<svg width="75" height="36" viewBox="0 0 75 36" fill="none" xmlns="http://www.w3.org/2000/svg">
<rect width="75" height="36" rx="18" fill="#F4F4F4"/>
<g clip-path="url(#clip0_166_223)">
<path d="M45.5132 10.0264C41.7539 10.0264 38.3942 11.9516 38.3942 15.5079C38.3942 19.5866 44.3525 19.8683 44.3525 21.9177C44.3525 22.7806 43.3518 23.5529 41.6421 23.5529C39.2163 23.5529 37.4031 22.4737 37.4031 22.4737L36.6272 26.063C36.6272 26.063 38.7159 26.9745 41.4889 26.9745C45.599 26.9745 48.8336 24.955 48.8336 21.3375C48.8336 17.0273 42.8505 16.754 42.8505 14.8523C42.8505 14.1764 43.672 13.436 45.3764 13.436C47.2998 13.436 48.8686 14.2209 48.8686 14.2209L49.6281 10.7547C49.6281 10.7547 47.9204 10.0264 45.5126 10.0264H45.5132ZM11.1178 10.2882L11.0266 10.8112C11.0266 10.8112 12.6081 11.0971 14.0328 11.6678C15.8671 12.3218 15.9975 12.703 16.3065 13.8852L19.6725 26.7044H24.1849L31.1364 10.2882H26.6346L22.1677 21.4496L20.3451 11.9883C20.1781 10.9055 19.3312 10.2876 18.295 10.2876H11.1183L11.1178 10.2882ZM32.9469 10.2882L29.4155 26.7044H33.7085L37.2272 10.2882H32.9469ZM56.8902 10.2882C55.8551 10.2882 55.3065 10.8358 54.9043 11.7924L48.6147 26.7044H53.1166L53.9874 24.2189H59.4718L60.0013 26.7044H63.9736L60.5085 10.2882H56.8902ZM57.4758 14.7235L58.8104 20.8836H55.2355L57.4763 14.7235H57.4758Z" fill="#FF8098"/>
</g>
<defs>
<clipPath id="clip0_166_223">
<rect width="53" height="17" fill="white" transform="translate(11 10)"/>
</clipPath>
</defs>
</svg>
